<svg xmlns="http://www.w3.org/2000/svg" viewBox="0 0 1200 860" width="1200" height="860">
<rect width="100%" height="100%" fill="#f8fafc"/>
<text x="600.0" y="42.0" fill="#111827" font-size="28" font-family="Inter, Arial, sans-serif" text-anchor="middle" font-weight="700">QPSK carrier recovery: coarse estimate, then Costas tracking</text>
<text x="600.0" y="70.0" fill="#475569" font-size="16" font-family="Inter, Arial, sans-serif" text-anchor="middle" font-weight="normal">Timing is assumed solved here. The job is to stop the constellation from spinning and keep it settled.</text>
<rect x="60.0" y="110.0" width="320.0" height="250.0" rx="18" fill="#ffffff" stroke="#e2e8f0"/>
<text x="220.0" y="136.0" fill="#334155" font-size="15" font-family="Inter, Arial, sans-serif" text-anchor="middle" font-weight="700">raw symbols still spin</text>
<line x1="86.0" y1="235.0" x2="354.0" y2="235.0" stroke="#cbd5e1" stroke-width="1.0"/>
<line x1="220.0" y1="146.0" x2="220.0" y2="338.0" stroke="#cbd5e1" stroke-width="1.0"/>
<circle cx="227.0" cy="313.9" r="3.2" fill="#ef4444" fill-opacity="0.450"/>
<circle cx="136.2" cy="238.7" r="3.2" fill="#ef4444" fill-opacity="0.450"/>
<circle cx="309.8" cy="224.1" r="3.2" fill="#ef4444" fill-opacity="0.450"/>
<circle cx="211.0" cy="147.8" r="3.2" fill="#ef4444" fill-opacity="0.450"/>
<circle cx="204.2" cy="151.1" r="3.2" fill="#ef4444" fill-opacity="0.450"/>
<circle cx="200.8" cy="147.1" r="3.2" fill="#ef4444" fill-opacity="0.450"/>
<circle cx="239.5" cy="315.1" r="3.2" fill="#ef4444" fill-opacity="0.450"/>
<circle cx="203.1" cy="147.7" r="3.2" fill="#ef4444" fill-opacity="0.450"/>
<circle cx="137.3" cy="255.6" r="3.2" fill="#ef4444" fill-opacity="0.450"/>
<circle cx="190.8" cy="145.9" r="3.2" fill="#ef4444" fill-opacity="0.450"/>
<circle cx="194.0" cy="149.3" r="3.2" fill="#ef4444" fill-opacity="0.450"/>
<circle cx="303.3" cy="197.6" r="3.2" fill="#ef4444" fill-opacity="0.450"/>
<circle cx="307.8" cy="204.7" r="3.2" fill="#ef4444" fill-opacity="0.450"/>
<circle cx="186.1" cy="148.7" r="3.2" fill="#ef4444" fill-opacity="0.450"/>
<circle cx="135.2" cy="262.5" r="3.2" fill="#ef4444" fill-opacity="0.450"/>
<circle cx="181.1" cy="153.7" r="3.2" fill="#ef4444" fill-opacity="0.450"/>
<circle cx="304.3" cy="202.1" r="3.2" fill="#ef4444" fill-opacity="0.450"/>
<circle cx="183.4" cy="154.3" r="3.2" fill="#ef4444" fill-opacity="0.450"/>
<circle cx="184.7" cy="157.5" r="3.2" fill="#ef4444" fill-opacity="0.450"/>
<circle cx="145.0" cy="267.9" r="3.2" fill="#ef4444" fill-opacity="0.450"/>
<circle cx="172.5" cy="160.7" r="3.2" fill="#ef4444" fill-opacity="0.450"/>
<circle cx="298.2" cy="192.7" r="3.2" fill="#ef4444" fill-opacity="0.450"/>
<circle cx="169.6" cy="154.3" r="3.2" fill="#ef4444" fill-opacity="0.450"/>
<circle cx="149.9" cy="278.0" r="3.2" fill="#ef4444" fill-opacity="0.450"/>
<circle cx="175.3" cy="158.9" r="3.2" fill="#ef4444" fill-opacity="0.450"/>
<circle cx="145.6" cy="294.0" r="3.2" fill="#ef4444" fill-opacity="0.450"/>
<circle cx="274.6" cy="309.2" r="3.2" fill="#ef4444" fill-opacity="0.450"/>
<circle cx="290.2" cy="179.2" r="3.2" fill="#ef4444" fill-opacity="0.450"/>
<circle cx="147.5" cy="291.1" r="3.2" fill="#ef4444" fill-opacity="0.450"/>
<circle cx="170.0" cy="164.5" r="3.2" fill="#ef4444" fill-opacity="0.450"/>
<circle cx="272.9" cy="301.1" r="3.2" fill="#ef4444" fill-opacity="0.450"/>
<circle cx="155.9" cy="292.2" r="3.2" fill="#ef4444" fill-opacity="0.450"/>
<circle cx="162.0" cy="171.5" r="3.2" fill="#ef4444" fill-opacity="0.450"/>
<circle cx="157.7" cy="293.9" r="3.2" fill="#ef4444" fill-opacity="0.450"/>
<circle cx="279.1" cy="290.8" r="3.2" fill="#ef4444" fill-opacity="0.450"/>
<circle cx="156.5" cy="177.3" r="3.2" fill="#ef4444" fill-opacity="0.450"/>
<circle cx="151.8" cy="176.1" r="3.2" fill="#ef4444" fill-opacity="0.450"/>
<circle cx="147.3" cy="187.0" r="3.2" fill="#ef4444" fill-opacity="0.450"/>
<circle cx="167.1" cy="298.2" r="3.2" fill="#ef4444" fill-opacity="0.450"/>
<circle cx="273.0" cy="164.3" r="3.2" fill="#ef4444" fill-opacity="0.450"/>
<circle cx="271.9" cy="166.9" r="3.2" fill="#ef4444" fill-opacity="0.450"/>
<circle cx="294.2" cy="281.7" r="3.2" fill="#ef4444" fill-opacity="0.450"/>
<circle cx="268.8" cy="157.9" r="3.2" fill="#ef4444" fill-opacity="0.450"/>
<circle cx="263.3" cy="159.2" r="3.2" fill="#ef4444" fill-opacity="0.450"/>
<circle cx="293.1" cy="281.6" r="3.2" fill="#ef4444" fill-opacity="0.450"/>
<circle cx="297.8" cy="277.6" r="3.2" fill="#ef4444" fill-opacity="0.450"/>
<circle cx="181.6" cy="309.8" r="3.2" fill="#ef4444" fill-opacity="0.450"/>
<circle cx="175.9" cy="308.4" r="3.2" fill="#ef4444" fill-opacity="0.450"/>
<circle cx="176.2" cy="314.4" r="3.2" fill="#ef4444" fill-opacity="0.450"/>
<circle cx="141.2" cy="198.6" r="3.2" fill="#ef4444" fill-opacity="0.450"/>
<circle cx="302.8" cy="269.6" r="3.2" fill="#ef4444" fill-opacity="0.450"/>
<circle cx="249.5" cy="150.4" r="3.2" fill="#ef4444" fill-opacity="0.450"/>
<circle cx="302.2" cy="269.5" r="3.2" fill="#ef4444" fill-opacity="0.450"/>
<circle cx="249.6" cy="152.1" r="3.2" fill="#ef4444" fill-opacity="0.450"/>
<circle cx="304.8" cy="264.6" r="3.2" fill="#ef4444" fill-opacity="0.450"/>
<circle cx="136.5" cy="210.0" r="3.2" fill="#ef4444" fill-opacity="0.450"/>
<circle cx="141.1" cy="212.5" r="3.2" fill="#ef4444" fill-opacity="0.450"/>
<circle cx="246.6" cy="150.1" r="3.2" fill="#ef4444" fill-opacity="0.450"/>
<circle cx="204.0" cy="312.3" r="3.2" fill="#ef4444" fill-opacity="0.450"/>
<circle cx="304.7" cy="252.7" r="3.2" fill="#ef4444" fill-opacity="0.450"/>
<circle cx="200.5" cy="324.0" r="3.2" fill="#ef4444" fill-opacity="0.450"/>
<circle cx="232.4" cy="147.8" r="3.2" fill="#ef4444" fill-opacity="0.450"/>
<circle cx="235.8" cy="144.7" r="3.2" fill="#ef4444" fill-opacity="0.450"/>
<circle cx="130.9" cy="223.9" r="3.2" fill="#ef4444" fill-opacity="0.450"/>
<circle cx="127.2" cy="224.3" r="3.2" fill="#ef4444" fill-opacity="0.450"/>
<circle cx="306.9" cy="245.6" r="3.2" fill="#ef4444" fill-opacity="0.450"/>
<circle cx="305.3" cy="237.7" r="3.2" fill="#ef4444" fill-opacity="0.450"/>
<circle cx="308.3" cy="235.5" r="3.2" fill="#ef4444" fill-opacity="0.450"/>
<circle cx="219.3" cy="146.4" r="3.2" fill="#ef4444" fill-opacity="0.450"/>
<circle cx="218.1" cy="152.5" r="3.2" fill="#ef4444" fill-opacity="0.450"/>
<circle cx="131.5" cy="238.5" r="3.2" fill="#ef4444" fill-opacity="0.450"/>
<circle cx="129.7" cy="237.1" r="3.2" fill="#ef4444" fill-opacity="0.450"/>
<circle cx="315.4" cy="223.1" r="3.2" fill="#ef4444" fill-opacity="0.450"/>
<circle cx="211.4" cy="151.6" r="3.2" fill="#ef4444" fill-opacity="0.450"/>
<circle cx="132.0" cy="248.0" r="3.2" fill="#ef4444" fill-opacity="0.450"/>
<circle cx="133.5" cy="243.3" r="3.2" fill="#ef4444" fill-opacity="0.450"/>
<circle cx="306.6" cy="225.6" r="3.2" fill="#ef4444" fill-opacity="0.450"/>
<circle cx="208.4" cy="148.3" r="3.2" fill="#ef4444" fill-opacity="0.450"/>
<circle cx="310.9" cy="219.8" r="3.2" fill="#ef4444" fill-opacity="0.450"/>
<circle cx="208.7" cy="153.7" r="3.2" fill="#ef4444" fill-opacity="0.450"/>
<circle cx="305.7" cy="210.0" r="3.2" fill="#ef4444" fill-opacity="0.450"/>
<circle cx="126.1" cy="261.8" r="3.2" fill="#ef4444" fill-opacity="0.450"/>
<circle cx="188.5" cy="144.7" r="3.2" fill="#ef4444" fill-opacity="0.450"/>
<circle cx="306.0" cy="210.8" r="3.2" fill="#ef4444" fill-opacity="0.450"/>
<circle cx="243.3" cy="324.2" r="3.2" fill="#ef4444" fill-opacity="0.450"/>
<circle cx="138.4" cy="269.2" r="3.2" fill="#ef4444" fill-opacity="0.450"/>
<circle cx="188.2" cy="155.4" r="3.2" fill="#ef4444" fill-opacity="0.450"/>
<circle cx="133.1" cy="263.4" r="3.2" fill="#ef4444" fill-opacity="0.450"/>
<circle cx="258.4" cy="317.5" r="3.2" fill="#ef4444" fill-opacity="0.450"/>
<circle cx="297.9" cy="191.9" r="3.2" fill="#ef4444" fill-opacity="0.450"/>
<circle cx="263.1" cy="317.8" r="3.2" fill="#ef4444" fill-opacity="0.450"/>
<circle cx="267.1" cy="314.6" r="3.2" fill="#ef4444" fill-opacity="0.450"/>
<circle cx="178.5" cy="162.9" r="3.2" fill="#ef4444" fill-opacity="0.450"/>
<circle cx="172.4" cy="156.7" r="3.2" fill="#ef4444" fill-opacity="0.450"/>
<circle cx="168.8" cy="160.3" r="3.2" fill="#ef4444" fill-opacity="0.450"/>
<circle cx="148.0" cy="285.9" r="3.2" fill="#ef4444" fill-opacity="0.450"/>
<circle cx="275.3" cy="304.9" r="3.2" fill="#ef4444" fill-opacity="0.450"/>
<circle cx="167.8" cy="160.1" r="3.2" fill="#ef4444" fill-opacity="0.450"/>
<circle cx="171.7" cy="160.5" r="3.2" fill="#ef4444" fill-opacity="0.450"/>
<circle cx="288.4" cy="177.3" r="3.2" fill="#ef4444" fill-opacity="0.450"/>
<circle cx="277.7" cy="306.6" r="3.2" fill="#ef4444" fill-opacity="0.450"/>
<circle cx="161.0" cy="161.3" r="3.2" fill="#ef4444" fill-opacity="0.450"/>
<circle cx="282.3" cy="174.1" r="3.2" fill="#ef4444" fill-opacity="0.450"/>
<circle cx="165.5" cy="172.5" r="3.2" fill="#ef4444" fill-opacity="0.450"/>
<circle cx="282.4" cy="175.7" r="3.2" fill="#ef4444" fill-opacity="0.450"/>
<circle cx="158.5" cy="178.3" r="3.2" fill="#ef4444" fill-opacity="0.450"/>
<circle cx="286.3" cy="297.6" r="3.2" fill="#ef4444" fill-opacity="0.450"/>
<circle cx="287.2" cy="299.4" r="3.2" fill="#ef4444" fill-opacity="0.450"/>
<circle cx="159.3" cy="298.9" r="3.2" fill="#ef4444" fill-opacity="0.450"/>
<circle cx="290.6" cy="301.2" r="3.2" fill="#ef4444" fill-opacity="0.450"/>
<circle cx="295.1" cy="291.7" r="3.2" fill="#ef4444" fill-opacity="0.450"/>
<circle cx="294.0" cy="283.5" r="3.2" fill="#ef4444" fill-opacity="0.450"/>
<circle cx="291.4" cy="287.0" r="3.2" fill="#ef4444" fill-opacity="0.450"/>
<circle cx="164.1" cy="306.4" r="3.2" fill="#ef4444" fill-opacity="0.450"/>
<circle cx="152.5" cy="192.1" r="3.2" fill="#ef4444" fill-opacity="0.450"/>
<circle cx="299.2" cy="278.1" r="3.2" fill="#ef4444" fill-opacity="0.450"/>
<circle cx="267.5" cy="162.7" r="3.2" fill="#ef4444" fill-opacity="0.450"/>
<circle cx="262.0" cy="157.0" r="3.2" fill="#ef4444" fill-opacity="0.450"/>
<circle cx="185.4" cy="316.4" r="3.2" fill="#ef4444" fill-opacity="0.450"/>
<circle cx="297.0" cy="276.8" r="3.2" fill="#ef4444" fill-opacity="0.450"/>
<circle cx="143.3" cy="203.5" r="3.2" fill="#ef4444" fill-opacity="0.450"/>
<circle cx="254.7" cy="159.2" r="3.2" fill="#ef4444" fill-opacity="0.450"/>
<circle cx="252.5" cy="151.0" r="3.2" fill="#ef4444" fill-opacity="0.450"/>
<circle cx="300.1" cy="264.5" r="3.2" fill="#ef4444" fill-opacity="0.450"/>
<circle cx="188.2" cy="317.9" r="3.2" fill="#ef4444" fill-opacity="0.450"/>
<circle cx="136.1" cy="209.9" r="3.2" fill="#ef4444" fill-opacity="0.450"/>
<circle cx="137.5" cy="206.3" r="3.2" fill="#ef4444" fill-opacity="0.450"/>
<circle cx="132.6" cy="208.0" r="3.2" fill="#ef4444" fill-opacity="0.450"/>
<circle cx="135.3" cy="213.9" r="3.2" fill="#ef4444" fill-opacity="0.450"/>
<circle cx="135.0" cy="211.3" r="3.2" fill="#ef4444" fill-opacity="0.450"/>
<circle cx="203.7" cy="315.7" r="3.2" fill="#ef4444" fill-opacity="0.450"/>
<circle cx="134.5" cy="217.2" r="3.2" fill="#ef4444" fill-opacity="0.450"/>
<circle cx="127.9" cy="221.8" r="3.2" fill="#ef4444" fill-opacity="0.450"/>
<circle cx="208.8" cy="326.0" r="3.2" fill="#ef4444" fill-opacity="0.450"/>
<circle cx="303.9" cy="239.9" r="3.2" fill="#ef4444" fill-opacity="0.450"/>
<circle cx="210.3" cy="326.5" r="3.2" fill="#ef4444" fill-opacity="0.450"/>
<circle cx="300.1" cy="245.6" r="3.2" fill="#ef4444" fill-opacity="0.450"/>
<circle cx="140.3" cy="229.6" r="3.2" fill="#ef4444" fill-opacity="0.450"/>
<circle cx="310.0" cy="236.3" r="3.2" fill="#ef4444" fill-opacity="0.450"/>
<circle cx="216.5" cy="321.8" r="3.2" fill="#ef4444" fill-opacity="0.450"/>
<circle cx="219.8" cy="148.2" r="3.2" fill="#ef4444" fill-opacity="0.450"/>
<circle cx="225.8" cy="326.0" r="3.2" fill="#ef4444" fill-opacity="0.450"/>
<circle cx="221.4" cy="325.3" r="3.2" fill="#ef4444" fill-opacity="0.450"/>
<circle cx="230.3" cy="324.6" r="3.2" fill="#ef4444" fill-opacity="0.450"/>
<circle cx="314.0" cy="231.8" r="3.2" fill="#ef4444" fill-opacity="0.450"/>
<circle cx="226.3" cy="331.9" r="3.2" fill="#ef4444" fill-opacity="0.450"/>
<circle cx="204.8" cy="147.6" r="3.2" fill="#ef4444" fill-opacity="0.450"/>
<circle cx="236.2" cy="325.5" r="3.2" fill="#ef4444" fill-opacity="0.450"/>
<circle cx="233.7" cy="316.6" r="3.2" fill="#ef4444" fill-opacity="0.450"/>
<circle cx="304.4" cy="217.2" r="3.2" fill="#ef4444" fill-opacity="0.450"/>
<circle cx="136.4" cy="258.0" r="3.2" fill="#ef4444" fill-opacity="0.450"/>
<circle cx="309.7" cy="214.4" r="3.2" fill="#ef4444" fill-opacity="0.450"/>
<circle cx="199.5" cy="151.2" r="3.2" fill="#ef4444" fill-opacity="0.450"/>
<circle cx="195.8" cy="146.4" r="3.2" fill="#ef4444" fill-opacity="0.450"/>
<circle cx="193.8" cy="157.8" r="3.2" fill="#ef4444" fill-opacity="0.450"/>
<circle cx="135.7" cy="265.2" r="3.2" fill="#ef4444" fill-opacity="0.450"/>
<circle cx="249.9" cy="316.9" r="3.2" fill="#ef4444" fill-opacity="0.450"/>
<circle cx="246.5" cy="310.7" r="3.2" fill="#ef4444" fill-opacity="0.450"/>
<circle cx="135.8" cy="264.7" r="3.2" fill="#ef4444" fill-opacity="0.450"/>
<circle cx="138.3" cy="272.3" r="3.2" fill="#ef4444" fill-opacity="0.450"/>
<circle cx="140.0" cy="274.1" r="3.2" fill="#ef4444" fill-opacity="0.450"/>
<circle cx="143.2" cy="270.2" r="3.2" fill="#ef4444" fill-opacity="0.450"/>
<circle cx="185.1" cy="150.7" r="3.2" fill="#ef4444" fill-opacity="0.450"/>
<circle cx="258.5" cy="309.6" r="3.2" fill="#ef4444" fill-opacity="0.450"/>
<circle cx="297.5" cy="190.8" r="3.2" fill="#ef4444" fill-opacity="0.450"/>
<circle cx="267.2" cy="309.9" r="3.2" fill="#ef4444" fill-opacity="0.450"/>
<circle cx="168.0" cy="164.2" r="3.2" fill="#ef4444" fill-opacity="0.450"/>
<circle cx="173.8" cy="162.5" r="3.2" fill="#ef4444" fill-opacity="0.450"/>
<circle cx="153.1" cy="287.7" r="3.2" fill="#ef4444" fill-opacity="0.450"/>
<circle cx="288.4" cy="182.1" r="3.2" fill="#ef4444" fill-opacity="0.450"/>
<circle cx="274.5" cy="301.0" r="3.2" fill="#ef4444" fill-opacity="0.450"/>
<circle cx="286.2" cy="176.5" r="3.2" fill="#ef4444" fill-opacity="0.450"/>
<circle cx="164.1" cy="171.3" r="3.2" fill="#ef4444" fill-opacity="0.450"/>
<circle cx="285.0" cy="177.1" r="3.2" fill="#ef4444" fill-opacity="0.450"/>
<circle cx="283.6" cy="295.0" r="3.2" fill="#ef4444" fill-opacity="0.450"/>
<circle cx="160.9" cy="173.9" r="3.2" fill="#ef4444" fill-opacity="0.450"/>
<circle cx="285.3" cy="296.1" r="3.2" fill="#ef4444" fill-opacity="0.450"/>
<circle cx="153.7" cy="172.2" r="3.2" fill="#ef4444" fill-opacity="0.450"/>
<circle cx="151.8" cy="177.3" r="3.2" fill="#ef4444" fill-opacity="0.450"/>
<circle cx="273.6" cy="173.2" r="3.2" fill="#ef4444" fill-opacity="0.450"/>
<circle cx="153.2" cy="184.8" r="3.2" fill="#ef4444" fill-opacity="0.450"/>
<circle cx="272.0" cy="167.2" r="3.2" fill="#ef4444" fill-opacity="0.450"/>
<circle cx="151.2" cy="184.6" r="3.2" fill="#ef4444" fill-opacity="0.450"/>
<circle cx="273.7" cy="166.4" r="3.2" fill="#ef4444" fill-opacity="0.450"/>
<circle cx="266.8" cy="165.4" r="3.2" fill="#ef4444" fill-opacity="0.450"/>
<circle cx="266.2" cy="163.9" r="3.2" fill="#ef4444" fill-opacity="0.450"/>
<circle cx="168.5" cy="312.5" r="3.2" fill="#ef4444" fill-opacity="0.450"/>
<circle cx="261.7" cy="155.6" r="3.2" fill="#ef4444" fill-opacity="0.450"/>
<circle cx="259.3" cy="157.2" r="3.2" fill="#ef4444" fill-opacity="0.450"/>
<circle cx="175.3" cy="309.7" r="3.2" fill="#ef4444" fill-opacity="0.450"/>
<circle cx="140.9" cy="197.4" r="3.2" fill="#ef4444" fill-opacity="0.450"/>
<circle cx="303.4" cy="267.7" r="3.2" fill="#ef4444" fill-opacity="0.450"/>
<circle cx="305.5" cy="267.9" r="3.2" fill="#ef4444" fill-opacity="0.450"/>
<circle cx="139.1" cy="203.0" r="3.2" fill="#ef4444" fill-opacity="0.450"/>
<circle cx="185.6" cy="318.8" r="3.2" fill="#ef4444" fill-opacity="0.450"/>
<circle cx="139.3" cy="205.8" r="3.2" fill="#ef4444" fill-opacity="0.450"/>
<circle cx="249.7" cy="151.3" r="3.2" fill="#ef4444" fill-opacity="0.450"/>
<circle cx="135.8" cy="210.2" r="3.2" fill="#ef4444" fill-opacity="0.450"/>
<circle cx="190.9" cy="310.4" r="3.2" fill="#ef4444" fill-opacity="0.450"/>
<circle cx="134.7" cy="217.3" r="3.2" fill="#ef4444" fill-opacity="0.450"/>
<circle cx="130.2" cy="215.7" r="3.2" fill="#ef4444" fill-opacity="0.450"/>
<circle cx="312.2" cy="254.3" r="3.2" fill="#ef4444" fill-opacity="0.450"/>
<circle cx="234.5" cy="142.7" r="3.2" fill="#ef4444" fill-opacity="0.450"/>
<circle cx="299.9" cy="246.9" r="3.2" fill="#ef4444" fill-opacity="0.450"/>
<circle cx="243.9" cy="148.1" r="3.2" fill="#ef4444" fill-opacity="0.450"/>
<circle cx="211.4" cy="319.8" r="3.2" fill="#ef4444" fill-opacity="0.450"/>
<circle cx="219.9" cy="146.4" r="3.2" fill="#ef4444" fill-opacity="0.450"/>
<circle cx="130.3" cy="236.5" r="3.2" fill="#ef4444" fill-opacity="0.450"/>
<circle cx="229.4" cy="149.3" r="3.2" fill="#ef4444" fill-opacity="0.450"/>
<circle cx="216.8" cy="321.3" r="3.2" fill="#ef4444" fill-opacity="0.450"/>
<circle cx="305.8" cy="245.8" r="3.2" fill="#ef4444" fill-opacity="0.450"/>
<circle cx="217.8" cy="325.8" r="3.2" fill="#ef4444" fill-opacity="0.450"/>
<circle cx="127.8" cy="239.4" r="3.2" fill="#ef4444" fill-opacity="0.450"/>
<circle cx="307.8" cy="226.2" r="3.2" fill="#ef4444" fill-opacity="0.450"/>
<circle cx="308.1" cy="228.9" r="3.2" fill="#ef4444" fill-opacity="0.450"/>
<circle cx="231.0" cy="321.1" r="3.2" fill="#ef4444" fill-opacity="0.450"/>
<circle cx="210.0" cy="149.9" r="3.2" fill="#ef4444" fill-opacity="0.450"/>
<circle cx="226.8" cy="319.0" r="3.2" fill="#ef4444" fill-opacity="0.450"/>
<circle cx="206.7" cy="143.7" r="3.2" fill="#ef4444" fill-opacity="0.450"/>
<circle cx="232.0" cy="323.9" r="3.2" fill="#ef4444" fill-opacity="0.450"/>
<circle cx="135.0" cy="246.6" r="3.2" fill="#ef4444" fill-opacity="0.450"/>
<circle cx="305.3" cy="218.5" r="3.2" fill="#ef4444" fill-opacity="0.450"/>
<circle cx="242.4" cy="325.4" r="3.2" fill="#ef4444" fill-opacity="0.450"/>
<circle cx="246.6" cy="324.6" r="3.2" fill="#ef4444" fill-opacity="0.450"/>
<circle cx="238.8" cy="319.4" r="3.2" fill="#ef4444" fill-opacity="0.450"/>
<circle cx="302.0" cy="204.1" r="3.2" fill="#ef4444" fill-opacity="0.450"/>
<circle cx="194.8" cy="150.0" r="3.2" fill="#ef4444" fill-opacity="0.450"/>
<circle cx="182.8" cy="152.5" r="3.2" fill="#ef4444" fill-opacity="0.450"/>
<circle cx="185.2" cy="159.9" r="3.2" fill="#ef4444" fill-opacity="0.450"/>
<circle cx="307.8" cy="208.4" r="3.2" fill="#ef4444" fill-opacity="0.450"/>
<circle cx="181.1" cy="157.7" r="3.2" fill="#ef4444" fill-opacity="0.450"/>
<circle cx="254.6" cy="314.4" r="3.2" fill="#ef4444" fill-opacity="0.450"/>
<circle cx="182.6" cy="160.6" r="3.2" fill="#ef4444" fill-opacity="0.450"/>
<circle cx="261.9" cy="310.9" r="3.2" fill="#ef4444" fill-opacity="0.450"/>
<circle cx="143.8" cy="271.7" r="3.2" fill="#ef4444" fill-opacity="0.450"/>
<circle cx="174.2" cy="160.1" r="3.2" fill="#ef4444" fill-opacity="0.450"/>
<circle cx="172.7" cy="163.9" r="3.2" fill="#ef4444" fill-opacity="0.450"/>
<circle cx="293.9" cy="184.0" r="3.2" fill="#ef4444" fill-opacity="0.450"/>
<circle cx="295.1" cy="186.3" r="3.2" fill="#ef4444" fill-opacity="0.450"/>
<circle cx="292.5" cy="179.9" r="3.2" fill="#ef4444" fill-opacity="0.450"/>
<rect x="440.0" y="110.0" width="320.0" height="250.0" rx="18" fill="#ffffff" stroke="#e2e8f0"/>
<text x="600.0" y="136.0" fill="#334155" font-size="15" font-family="Inter, Arial, sans-serif" text-anchor="middle" font-weight="700">4th-power phase estimate gets close</text>
<line x1="466.0" y1="235.0" x2="734.0" y2="235.0" stroke="#cbd5e1" stroke-width="1.0"/>
<line x1="600.0" y1="146.0" x2="600.0" y2="338.0" stroke="#cbd5e1" stroke-width="1.0"/>
<circle cx="613.6" cy="313.0" r="3.2" fill="#f59e0b" fill-opacity="0.450"/>
<circle cx="516.8" cy="245.7" r="3.2" fill="#f59e0b" fill-opacity="0.450"/>
<circle cx="688.5" cy="216.6" r="3.2" fill="#f59e0b" fill-opacity="0.450"/>
<circle cx="583.7" cy="148.8" r="3.2" fill="#f59e0b" fill-opacity="0.450"/>
<circle cx="577.2" cy="152.7" r="3.2" fill="#f59e0b" fill-opacity="0.450"/>
<circle cx="573.5" cy="149.1" r="3.2" fill="#f59e0b" fill-opacity="0.450"/>
<circle cx="626.2" cy="313.2" r="3.2" fill="#f59e0b" fill-opacity="0.450"/>
<circle cx="575.8" cy="149.4" r="3.2" fill="#f59e0b" fill-opacity="0.450"/>
<circle cx="519.3" cy="262.5" r="3.2" fill="#f59e0b" fill-opacity="0.450"/>
<circle cx="563.4" cy="148.6" r="3.2" fill="#f59e0b" fill-opacity="0.450"/>
<circle cx="566.9" cy="151.8" r="3.2" fill="#f59e0b" fill-opacity="0.450"/>
<circle cx="679.9" cy="190.7" r="3.2" fill="#f59e0b" fill-opacity="0.450"/>
<circle cx="685.0" cy="197.5" r="3.2" fill="#f59e0b" fill-opacity="0.450"/>
<circle cx="559.0" cy="151.9" r="3.2" fill="#f59e0b" fill-opacity="0.450"/>
<circle cx="517.8" cy="269.5" r="3.2" fill="#f59e0b" fill-opacity="0.450"/>
<circle cx="554.4" cy="157.2" r="3.2" fill="#f59e0b" fill-opacity="0.450"/>
<circle cx="681.2" cy="195.1" r="3.2" fill="#f59e0b" fill-opacity="0.450"/>
<circle cx="556.8" cy="157.7" r="3.2" fill="#f59e0b" fill-opacity="0.450"/>
<circle cx="558.4" cy="160.8" r="3.2" fill="#f59e0b" fill-opacity="0.450"/>
<circle cx="528.0" cy="274.0" r="3.2" fill="#f59e0b" fill-opacity="0.450"/>
<circle cx="546.4" cy="164.9" r="3.2" fill="#f59e0b" fill-opacity="0.450"/>
<circle cx="674.4" cy="186.3" r="3.2" fill="#f59e0b" fill-opacity="0.450"/>
<circle cx="543.0" cy="158.8" r="3.2" fill="#f59e0b" fill-opacity="0.450"/>
<circle cx="533.8" cy="283.8" r="3.2" fill="#f59e0b" fill-opacity="0.450"/>
<circle cx="549.0" cy="162.9" r="3.2" fill="#f59e0b" fill-opacity="0.450"/>
<circle cx="530.8" cy="300.0" r="3.2" fill="#f59e0b" fill-opacity="0.450"/>
<circle cx="660.7" cy="304.4" r="3.2" fill="#f59e0b" fill-opacity="0.450"/>
<circle cx="665.3" cy="173.5" r="3.2" fill="#f59e0b" fill-opacity="0.450"/>
<circle cx="532.4" cy="297.0" r="3.2" fill="#f59e0b" fill-opacity="0.450"/>
<circle cx="544.3" cy="169.0" r="3.2" fill="#f59e0b" fill-opacity="0.450"/>
<circle cx="658.2" cy="296.5" r="3.2" fill="#f59e0b" fill-opacity="0.450"/>
<circle cx="540.9" cy="297.4" r="3.2" fill="#f59e0b" fill-opacity="0.450"/>
<circle cx="536.9" cy="176.6" r="3.2" fill="#f59e0b" fill-opacity="0.450"/>
<circle cx="542.9" cy="298.9" r="3.2" fill="#f59e0b" fill-opacity="0.450"/>
<circle cx="663.6" cy="285.7" r="3.2" fill="#f59e0b" fill-opacity="0.450"/>
<circle cx="531.9" cy="182.8" r="3.2" fill="#f59e0b" fill-opacity="0.450"/>
<circle cx="527.1" cy="182.0" r="3.2" fill="#f59e0b" fill-opacity="0.450"/>
<circle cx="523.5" cy="193.3" r="3.2" fill="#f59e0b" fill-opacity="0.450"/>
<circle cx="552.6" cy="302.4" r="3.2" fill="#f59e0b" fill-opacity="0.450"/>
<circle cx="646.8" cy="160.1" r="3.2" fill="#f59e0b" fill-opacity="0.450"/>
<circle cx="646.0" cy="162.8" r="3.2" fill="#f59e0b" fill-opacity="0.450"/>
<circle cx="677.9" cy="275.3" r="3.2" fill="#f59e0b" fill-opacity="0.450"/>
<circle cx="642.2" cy="154.1" r="3.2" fill="#f59e0b" fill-opacity="0.450"/>
<circle cx="636.8" cy="155.9" r="3.2" fill="#f59e0b" fill-opacity="0.450"/>
<circle cx="676.7" cy="275.3" r="3.2" fill="#f59e0b" fill-opacity="0.450"/>
<circle cx="681.1" cy="270.9" r="3.2" fill="#f59e0b" fill-opacity="0.450"/>
<circle cx="568.0" cy="312.8" r="3.2" fill="#f59e0b" fill-opacity="0.450"/>
<circle cx="562.2" cy="311.9" r="3.2" fill="#f59e0b" fill-opacity="0.450"/>
<circle cx="563.0" cy="317.8" r="3.2" fill="#f59e0b" fill-opacity="0.450"/>
<circle cx="518.4" cy="205.4" r="3.2" fill="#f59e0b" fill-opacity="0.450"/>
<circle cx="685.4" cy="262.5" r="3.2" fill="#f59e0b" fill-opacity="0.450"/>
<circle cx="622.3" cy="148.2" r="3.2" fill="#f59e0b" fill-opacity="0.450"/>
<circle cx="684.8" cy="262.4" r="3.2" fill="#f59e0b" fill-opacity="0.450"/>
<circle cx="622.6" cy="149.9" r="3.2" fill="#f59e0b" fill-opacity="0.450"/>
<circle cx="687.0" cy="257.4" r="3.2" fill="#f59e0b" fill-opacity="0.450"/>
<circle cx="514.7" cy="217.1" r="3.2" fill="#f59e0b" fill-opacity="0.450"/>
<circle cx="519.5" cy="219.2" r="3.2" fill="#f59e0b" fill-opacity="0.450"/>
<circle cx="619.4" cy="148.1" r="3.2" fill="#f59e0b" fill-opacity="0.450"/>
<circle cx="590.5" cy="313.4" r="3.2" fill="#f59e0b" fill-opacity="0.450"/>
<circle cx="685.9" cy="245.5" r="3.2" fill="#f59e0b" fill-opacity="0.450"/>
<circle cx="588.0" cy="325.3" r="3.2" fill="#f59e0b" fill-opacity="0.450"/>
<circle cx="605.0" cy="147.1" r="3.2" fill="#f59e0b" fill-opacity="0.450"/>
<circle cx="608.2" cy="143.7" r="3.2" fill="#f59e0b" fill-opacity="0.450"/>
<circle cx="510.3" cy="231.4" r="3.2" fill="#f59e0b" fill-opacity="0.450"/>
<circle cx="506.6" cy="232.1" r="3.2" fill="#f59e0b" fill-opacity="0.450"/>
<circle cx="687.5" cy="238.3" r="3.2" fill="#f59e0b" fill-opacity="0.450"/>
<circle cx="685.2" cy="230.5" r="3.2" fill="#f59e0b" fill-opacity="0.450"/>
<circle cx="688.0" cy="228.1" r="3.2" fill="#f59e0b" fill-opacity="0.450"/>
<circle cx="591.9" cy="146.8" r="3.2" fill="#f59e0b" fill-opacity="0.450"/>
<circle cx="591.2" cy="152.9" r="3.2" fill="#f59e0b" fill-opacity="0.450"/>
<circle cx="512.1" cy="245.9" r="3.2" fill="#f59e0b" fill-opacity="0.450"/>
<circle cx="510.2" cy="244.7" r="3.2" fill="#f59e0b" fill-opacity="0.450"/>
<circle cx="694.1" cy="215.1" r="3.2" fill="#f59e0b" fill-opacity="0.450"/>
<circle cx="584.4" cy="152.6" r="3.2" fill="#f59e0b" fill-opacity="0.450"/>
<circle cx="513.4" cy="255.3" r="3.2" fill="#f59e0b" fill-opacity="0.450"/>
<circle cx="514.5" cy="250.6" r="3.2" fill="#f59e0b" fill-opacity="0.450"/>
<circle cx="685.5" cy="218.3" r="3.2" fill="#f59e0b" fill-opacity="0.450"/>
<circle cx="581.2" cy="149.6" r="3.2" fill="#f59e0b" fill-opacity="0.450"/>
<circle cx="689.4" cy="212.2" r="3.2" fill="#f59e0b" fill-opacity="0.450"/>
<circle cx="582.0" cy="155.0" r="3.2" fill="#f59e0b" fill-opacity="0.450"/>
<circle cx="683.3" cy="202.9" r="3.2" fill="#f59e0b" fill-opacity="0.450"/>
<circle cx="508.7" cy="269.6" r="3.2" fill="#f59e0b" fill-opacity="0.450"/>
<circle cx="561.0" cy="147.7" r="3.2" fill="#f59e0b" fill-opacity="0.450"/>
<circle cx="683.7" cy="203.6" r="3.2" fill="#f59e0b" fill-opacity="0.450"/>
<circle cx="630.6" cy="321.9" r="3.2" fill="#f59e0b" fill-opacity="0.450"/>
<circle cx="521.5" cy="275.9" r="3.2" fill="#f59e0b" fill-opacity="0.450"/>
<circle cx="561.6" cy="158.3" r="3.2" fill="#f59e0b" fill-opacity="0.450"/>
<circle cx="515.8" cy="270.6" r="3.2" fill="#f59e0b" fill-opacity="0.450"/>
<circle cx="645.2" cy="314.0" r="3.2" fill="#f59e0b" fill-opacity="0.450"/>
<circle cx="674.1" cy="185.5" r="3.2" fill="#f59e0b" fill-opacity="0.450"/>
<circle cx="649.9" cy="313.9" r="3.2" fill="#f59e0b" fill-opacity="0.450"/>
<circle cx="653.6" cy="310.4" r="3.2" fill="#f59e0b" fill-opacity="0.450"/>
<circle cx="552.6" cy="166.6" r="3.2" fill="#f59e0b" fill-opacity="0.450"/>
<circle cx="546.0" cy="161.0" r="3.2" fill="#f59e0b" fill-opacity="0.450"/>
<circle cx="542.7" cy="164.8" r="3.2" fill="#f59e0b" fill-opacity="0.450"/>
<circle cx="532.6" cy="291.7" r="3.2" fill="#f59e0b" fill-opacity="0.450"/>
<circle cx="661.0" cy="300.1" r="3.2" fill="#f59e0b" fill-opacity="0.450"/>
<circle cx="541.7" cy="164.8" r="3.2" fill="#f59e0b" fill-opacity="0.450"/>
<circle cx="545.6" cy="164.8" r="3.2" fill="#f59e0b" fill-opacity="0.450"/>
<circle cx="663.4" cy="171.8" r="3.2" fill="#f59e0b" fill-opacity="0.450"/>
<circle cx="663.5" cy="301.5" r="3.2" fill="#f59e0b" fill-opacity="0.450"/>
<circle cx="535.0" cy="166.5" r="3.2" fill="#f59e0b" fill-opacity="0.450"/>
<circle cx="657.0" cy="169.0" r="3.2" fill="#f59e0b" fill-opacity="0.450"/>
<circle cx="540.4" cy="177.3" r="3.2" fill="#f59e0b" fill-opacity="0.450"/>
<circle cx="657.2" cy="170.6" r="3.2" fill="#f59e0b" fill-opacity="0.450"/>
<circle cx="533.9" cy="183.7" r="3.2" fill="#f59e0b" fill-opacity="0.450"/>
<circle cx="671.3" cy="291.8" r="3.2" fill="#f59e0b" fill-opacity="0.450"/>
<circle cx="672.3" cy="293.5" r="3.2" fill="#f59e0b" fill-opacity="0.450"/>
<circle cx="544.9" cy="303.8" r="3.2" fill="#f59e0b" fill-opacity="0.450"/>
<circle cx="675.9" cy="295.0" r="3.2" fill="#f59e0b" fill-opacity="0.450"/>
<circle cx="679.6" cy="285.2" r="3.2" fill="#f59e0b" fill-opacity="0.450"/>
<circle cx="677.8" cy="277.2" r="3.2" fill="#f59e0b" fill-opacity="0.450"/>
<circle cx="675.5" cy="280.8" r="3.2" fill="#f59e0b" fill-opacity="0.450"/>
<circle cx="550.3" cy="310.9" r="3.2" fill="#f59e0b" fill-opacity="0.450"/>
<circle cx="529.1" cy="197.9" r="3.2" fill="#f59e0b" fill-opacity="0.450"/>
<circle cx="682.5" cy="271.3" r="3.2" fill="#f59e0b" fill-opacity="0.450"/>
<circle cx="641.3" cy="159.0" r="3.2" fill="#f59e0b" fill-opacity="0.450"/>
<circle cx="635.3" cy="153.8" r="3.2" fill="#f59e0b" fill-opacity="0.450"/>
<circle cx="572.3" cy="319.0" r="3.2" fill="#f59e0b" fill-opacity="0.450"/>
<circle cx="680.2" cy="270.2" r="3.2" fill="#f59e0b" fill-opacity="0.450"/>
<circle cx="521.0" cy="210.0" r="3.2" fill="#f59e0b" fill-opacity="0.450"/>
<circle cx="628.2" cy="156.5" r="3.2" fill="#f59e0b" fill-opacity="0.450"/>
<circle cx="625.3" cy="148.6" r="3.2" fill="#f59e0b" fill-opacity="0.450"/>
<circle cx="682.2" cy="257.6" r="3.2" fill="#f59e0b" fill-opacity="0.450"/>
<circle cx="575.3" cy="320.3" r="3.2" fill="#f59e0b" fill-opacity="0.450"/>
<circle cx="514.3" cy="217.1" r="3.2" fill="#f59e0b" fill-opacity="0.450"/>
<circle cx="515.4" cy="213.3" r="3.2" fill="#f59e0b" fill-opacity="0.450"/>
<circle cx="510.7" cy="215.5" r="3.2" fill="#f59e0b" fill-opacity="0.450"/>
<circle cx="513.8" cy="221.0" r="3.2" fill="#f59e0b" fill-opacity="0.450"/>
<circle cx="513.3" cy="218.5" r="3.2" fill="#f59e0b" fill-opacity="0.450"/>
<circle cx="590.5" cy="316.8" r="3.2" fill="#f59e0b" fill-opacity="0.450"/>
<circle cx="513.4" cy="224.5" r="3.2" fill="#f59e0b" fill-opacity="0.450"/>
<circle cx="507.1" cy="229.6" r="3.2" fill="#f59e0b" fill-opacity="0.450"/>
<circle cx="596.5" cy="326.6" r="3.2" fill="#f59e0b" fill-opacity="0.450"/>
<circle cx="684.0" cy="232.8" r="3.2" fill="#f59e0b" fill-opacity="0.450"/>
<circle cx="598.0" cy="327.0" r="3.2" fill="#f59e0b" fill-opacity="0.450"/>
<circle cx="680.7" cy="238.9" r="3.2" fill="#f59e0b" fill-opacity="0.450"/>
<circle cx="520.1" cy="236.3" r="3.2" fill="#f59e0b" fill-opacity="0.450"/>
<circle cx="689.8" cy="228.7" r="3.2" fill="#f59e0b" fill-opacity="0.450"/>
<circle cx="603.8" cy="321.8" r="3.2" fill="#f59e0b" fill-opacity="0.450"/>
<circle cx="592.6" cy="148.6" r="3.2" fill="#f59e0b" fill-opacity="0.450"/>
<circle cx="613.4" cy="325.2" r="3.2" fill="#f59e0b" fill-opacity="0.450"/>
<circle cx="608.9" cy="324.9" r="3.2" fill="#f59e0b" fill-opacity="0.450"/>
<circle cx="617.8" cy="323.4" r="3.2" fill="#f59e0b" fill-opacity="0.450"/>
<circle cx="693.4" cy="224.0" r="3.2" fill="#f59e0b" fill-opacity="0.450"/>
<circle cx="614.4" cy="331.0" r="3.2" fill="#f59e0b" fill-opacity="0.450"/>
<circle cx="577.5" cy="149.2" r="3.2" fill="#f59e0b" fill-opacity="0.450"/>
<circle cx="623.7" cy="323.8" r="3.2" fill="#f59e0b" fill-opacity="0.450"/>
<circle cx="620.5" cy="315.2" r="3.2" fill="#f59e0b" fill-opacity="0.450"/>
<circle cx="682.6" cy="210.1" r="3.2" fill="#f59e0b" fill-opacity="0.450"/>
<circle cx="518.6" cy="264.9" r="3.2" fill="#f59e0b" fill-opacity="0.450"/>
<circle cx="687.6" cy="207.0" r="3.2" fill="#f59e0b" fill-opacity="0.450"/>
<circle cx="572.5" cy="153.3" r="3.2" fill="#f59e0b" fill-opacity="0.450"/>
<circle cx="568.5" cy="148.8" r="3.2" fill="#f59e0b" fill-opacity="0.450"/>
<circle cx="567.4" cy="160.2" r="3.2" fill="#f59e0b" fill-opacity="0.450"/>
<circle cx="518.6" cy="272.2" r="3.2" fill="#f59e0b" fill-opacity="0.450"/>
<circle cx="636.6" cy="314.1" r="3.2" fill="#f59e0b" fill-opacity="0.450"/>
<circle cx="632.8" cy="308.2" r="3.2" fill="#f59e0b" fill-opacity="0.450"/>
<circle cx="518.6" cy="271.7" r="3.2" fill="#f59e0b" fill-opacity="0.450"/>
<circle cx="521.7" cy="279.0" r="3.2" fill="#f59e0b" fill-opacity="0.450"/>
<circle cx="523.5" cy="280.6" r="3.2" fill="#f59e0b" fill-opacity="0.450"/>
<circle cx="526.4" cy="276.5" r="3.2" fill="#f59e0b" fill-opacity="0.450"/>
<circle cx="558.2" cy="153.9" r="3.2" fill="#f59e0b" fill-opacity="0.450"/>
<circle cx="644.6" cy="306.1" r="3.2" fill="#f59e0b" fill-opacity="0.450"/>
<circle cx="673.5" cy="184.5" r="3.2" fill="#f59e0b" fill-opacity="0.450"/>
<circle cx="653.3" cy="305.7" r="3.2" fill="#f59e0b" fill-opacity="0.450"/>
<circle cx="542.3" cy="168.8" r="3.2" fill="#f59e0b" fill-opacity="0.450"/>
<circle cx="547.9" cy="166.6" r="3.2" fill="#f59e0b" fill-opacity="0.450"/>
<circle cx="537.8" cy="293.2" r="3.2" fill="#f59e0b" fill-opacity="0.450"/>
<circle cx="663.7" cy="176.5" r="3.2" fill="#f59e0b" fill-opacity="0.450"/>
<circle cx="659.8" cy="296.2" r="3.2" fill="#f59e0b" fill-opacity="0.450"/>
<circle cx="661.1" cy="171.2" r="3.2" fill="#f59e0b" fill-opacity="0.450"/>
<circle cx="538.9" cy="176.2" r="3.2" fill="#f59e0b" fill-opacity="0.450"/>
<circle cx="659.9" cy="171.9" r="3.2" fill="#f59e0b" fill-opacity="0.450"/>
<circle cx="668.4" cy="289.5" r="3.2" fill="#f59e0b" fill-opacity="0.450"/>
<circle cx="536.0" cy="179.1" r="3.2" fill="#f59e0b" fill-opacity="0.450"/>
<circle cx="670.2" cy="290.4" r="3.2" fill="#f59e0b" fill-opacity="0.450"/>
<circle cx="528.7" cy="178.0" r="3.2" fill="#f59e0b" fill-opacity="0.450"/>
<circle cx="527.2" cy="183.2" r="3.2" fill="#f59e0b" fill-opacity="0.450"/>
<circle cx="648.2" cy="168.9" r="3.2" fill="#f59e0b" fill-opacity="0.450"/>
<circle cx="529.2" cy="190.6" r="3.2" fill="#f59e0b" fill-opacity="0.450"/>
<circle cx="646.1" cy="163.1" r="3.2" fill="#f59e0b" fill-opacity="0.450"/>
<circle cx="527.2" cy="190.6" r="3.2" fill="#f59e0b" fill-opacity="0.450"/>
<circle cx="647.8" cy="162.2" r="3.2" fill="#f59e0b" fill-opacity="0.450"/>
<circle cx="640.8" cy="161.7" r="3.2" fill="#f59e0b" fill-opacity="0.450"/>
<circle cx="640.1" cy="160.3" r="3.2" fill="#f59e0b" fill-opacity="0.450"/>
<circle cx="555.2" cy="316.5" r="3.2" fill="#f59e0b" fill-opacity="0.450"/>
<circle cx="634.9" cy="152.4" r="3.2" fill="#f59e0b" fill-opacity="0.450"/>
<circle cx="632.6" cy="154.2" r="3.2" fill="#f59e0b" fill-opacity="0.450"/>
<circle cx="561.7" cy="313.2" r="3.2" fill="#f59e0b" fill-opacity="0.450"/>
<circle cx="518.0" cy="204.2" r="3.2" fill="#f59e0b" fill-opacity="0.450"/>
<circle cx="685.8" cy="260.6" r="3.2" fill="#f59e0b" fill-opacity="0.450"/>
<circle cx="688.0" cy="260.6" r="3.2" fill="#f59e0b" fill-opacity="0.450"/>
<circle cx="516.8" cy="209.9" r="3.2" fill="#f59e0b" fill-opacity="0.450"/>
<circle cx="572.8" cy="321.3" r="3.2" fill="#f59e0b" fill-opacity="0.450"/>
<circle cx="517.1" cy="212.6" r="3.2" fill="#f59e0b" fill-opacity="0.450"/>
<circle cx="622.6" cy="149.1" r="3.2" fill="#f59e0b" fill-opacity="0.450"/>
<circle cx="514.0" cy="217.4" r="3.2" fill="#f59e0b" fill-opacity="0.450"/>
<circle cx="577.3" cy="312.6" r="3.2" fill="#f59e0b" fill-opacity="0.450"/>
<circle cx="513.5" cy="224.5" r="3.2" fill="#f59e0b" fill-opacity="0.450"/>
<circle cx="508.9" cy="223.3" r="3.2" fill="#f59e0b" fill-opacity="0.450"/>
<circle cx="693.5" cy="246.5" r="3.2" fill="#f59e0b" fill-opacity="0.450"/>
<circle cx="606.7" cy="141.9" r="3.2" fill="#f59e0b" fill-opacity="0.450"/>
<circle cx="680.6" cy="240.2" r="3.2" fill="#f59e0b" fill-opacity="0.450"/>
<circle cx="616.5" cy="146.4" r="3.2" fill="#f59e0b" fill-opacity="0.450"/>
<circle cx="598.5" cy="320.2" r="3.2" fill="#f59e0b" fill-opacity="0.450"/>
<circle cx="592.5" cy="146.7" r="3.2" fill="#f59e0b" fill-opacity="0.450"/>
<circle cx="510.8" cy="244.0" r="3.2" fill="#f59e0b" fill-opacity="0.450"/>
<circle cx="602.2" cy="148.8" r="3.2" fill="#f59e0b" fill-opacity="0.450"/>
<circle cx="604.1" cy="321.3" r="3.2" fill="#f59e0b" fill-opacity="0.450"/>
<circle cx="686.4" cy="238.6" r="3.2" fill="#f59e0b" fill-opacity="0.450"/>
<circle cx="605.5" cy="325.7" r="3.2" fill="#f59e0b" fill-opacity="0.450"/>
<circle cx="508.5" cy="247.1" r="3.2" fill="#f59e0b" fill-opacity="0.450"/>
<circle cx="686.8" cy="218.9" r="3.2" fill="#f59e0b" fill-opacity="0.450"/>
<circle cx="687.3" cy="221.5" r="3.2" fill="#f59e0b" fill-opacity="0.450"/>
<circle cx="618.2" cy="319.9" r="3.2" fill="#f59e0b" fill-opacity="0.450"/>
<circle cx="582.9" cy="151.0" r="3.2" fill="#f59e0b" fill-opacity="0.450"/>
<circle cx="613.8" cy="318.2" r="3.2" fill="#f59e0b" fill-opacity="0.450"/>
<circle cx="579.0" cy="145.1" r="3.2" fill="#f59e0b" fill-opacity="0.450"/>
<circle cx="619.4" cy="322.6" r="3.2" fill="#f59e0b" fill-opacity="0.450"/>
<circle cx="516.3" cy="253.7" r="3.2" fill="#f59e0b" fill-opacity="0.450"/>
<circle cx="683.6" cy="211.4" r="3.2" fill="#f59e0b" fill-opacity="0.450"/>
<circle cx="629.9" cy="323.2" r="3.2" fill="#f59e0b" fill-opacity="0.450"/>
<circle cx="634.0" cy="322.1" r="3.2" fill="#f59e0b" fill-opacity="0.450"/>
<circle cx="625.8" cy="317.5" r="3.2" fill="#f59e0b" fill-opacity="0.450"/>
<circle cx="679.1" cy="197.3" r="3.2" fill="#f59e0b" fill-opacity="0.450"/>
<circle cx="567.7" cy="152.4" r="3.2" fill="#f59e0b" fill-opacity="0.450"/>
<circle cx="556.0" cy="155.9" r="3.2" fill="#f59e0b" fill-opacity="0.450"/>
<circle cx="559.0" cy="163.1" r="3.2" fill="#f59e0b" fill-opacity="0.450"/>
<circle cx="685.2" cy="201.1" r="3.2" fill="#f59e0b" fill-opacity="0.450"/>
<circle cx="554.8" cy="161.2" r="3.2" fill="#f59e0b" fill-opacity="0.450"/>
<circle cx="641.1" cy="311.2" r="3.2" fill="#f59e0b" fill-opacity="0.450"/>
<circle cx="556.5" cy="164.0" r="3.2" fill="#f59e0b" fill-opacity="0.450"/>
<circle cx="648.1" cy="307.1" r="3.2" fill="#f59e0b" fill-opacity="0.450"/>
<circle cx="527.2" cy="277.9" r="3.2" fill="#f59e0b" fill-opacity="0.450"/>
<circle cx="548.1" cy="164.2" r="3.2" fill="#f59e0b" fill-opacity="0.450"/>
<circle cx="546.9" cy="168.1" r="3.2" fill="#f59e0b" fill-opacity="0.450"/>
<circle cx="669.3" cy="178.0" r="3.2" fill="#f59e0b" fill-opacity="0.450"/>
<circle cx="670.8" cy="180.1" r="3.2" fill="#f59e0b" fill-opacity="0.450"/>
<circle cx="667.6" cy="174.0" r="3.2" fill="#f59e0b" fill-opacity="0.450"/>
<rect x="820.0" y="110.0" width="320.0" height="250.0" rx="18" fill="#ffffff" stroke="#e2e8f0"/>
<text x="980.0" y="136.0" fill="#334155" font-size="15" font-family="Inter, Arial, sans-serif" text-anchor="middle" font-weight="700">Costas loop keeps the cloud near the four corners</text>
<line x1="846.0" y1="235.0" x2="1114.0" y2="235.0" stroke="#cbd5e1" stroke-width="1.0"/>
<line x1="980.0" y1="146.0" x2="980.0" y2="338.0" stroke="#cbd5e1" stroke-width="1.0"/>
<circle cx="1042.2" cy="172.4" r="3.2" fill="#2563eb" fill-opacity="0.450"/>
<circle cx="1047.2" cy="169.9" r="3.2" fill="#2563eb" fill-opacity="0.450"/>
<circle cx="1037.2" cy="178.2" r="3.2" fill="#2563eb" fill-opacity="0.450"/>
<circle cx="1041.8" cy="172.0" r="3.2" fill="#2563eb" fill-opacity="0.450"/>
<circle cx="1044.9" cy="296.4" r="3.2" fill="#2563eb" fill-opacity="0.450"/>
<circle cx="921.6" cy="173.4" r="3.2" fill="#2563eb" fill-opacity="0.450"/>
<circle cx="921.8" cy="293.4" r="3.2" fill="#2563eb" fill-opacity="0.450"/>
<circle cx="918.9" cy="167.4" r="3.2" fill="#2563eb" fill-opacity="0.450"/>
<circle cx="1047.6" cy="170.6" r="3.2" fill="#2563eb" fill-opacity="0.450"/>
<circle cx="1041.6" cy="171.5" r="3.2" fill="#2563eb" fill-opacity="0.450"/>
<circle cx="1041.8" cy="174.5" r="3.2" fill="#2563eb" fill-opacity="0.450"/>
<circle cx="919.3" cy="172.6" r="3.2" fill="#2563eb" fill-opacity="0.450"/>
<circle cx="911.2" cy="175.4" r="3.2" fill="#2563eb" fill-opacity="0.450"/>
<circle cx="1044.2" cy="167.6" r="3.2" fill="#2563eb" fill-opacity="0.450"/>
<circle cx="1036.6" cy="176.0" r="3.2" fill="#2563eb" fill-opacity="0.450"/>
<circle cx="1041.6" cy="178.7" r="3.2" fill="#2563eb" fill-opacity="0.450"/>
<circle cx="916.5" cy="295.7" r="3.2" fill="#2563eb" fill-opacity="0.450"/>
<circle cx="929.1" cy="174.8" r="3.2" fill="#2563eb" fill-opacity="0.450"/>
<circle cx="916.9" cy="289.1" r="3.2" fill="#2563eb" fill-opacity="0.450"/>
<circle cx="925.0" cy="299.7" r="3.2" fill="#2563eb" fill-opacity="0.450"/>
<circle cx="912.3" cy="298.4" r="3.2" fill="#2563eb" fill-opacity="0.450"/>
<circle cx="928.3" cy="170.3" r="3.2" fill="#2563eb" fill-opacity="0.450"/>
<circle cx="1051.2" cy="166.6" r="3.2" fill="#2563eb" fill-opacity="0.450"/>
<circle cx="915.1" cy="176.0" r="3.2" fill="#2563eb" fill-opacity="0.450"/>
<circle cx="917.4" cy="177.7" r="3.2" fill="#2563eb" fill-opacity="0.450"/>
<circle cx="920.2" cy="174.3" r="3.2" fill="#2563eb" fill-opacity="0.450"/>
<circle cx="923.7" cy="302.0" r="3.2" fill="#2563eb" fill-opacity="0.450"/>
<circle cx="919.8" cy="302.1" r="3.2" fill="#2563eb" fill-opacity="0.450"/>
<circle cx="921.0" cy="172.0" r="3.2" fill="#2563eb" fill-opacity="0.450"/>
<circle cx="1042.2" cy="296.4" r="3.2" fill="#2563eb" fill-opacity="0.450"/>
<circle cx="914.2" cy="296.1" r="3.2" fill="#2563eb" fill-opacity="0.450"/>
<circle cx="1036.7" cy="294.2" r="3.2" fill="#2563eb" fill-opacity="0.450"/>
<circle cx="1041.1" cy="172.4" r="3.2" fill="#2563eb" fill-opacity="0.450"/>
<circle cx="920.2" cy="174.4" r="3.2" fill="#2563eb" fill-opacity="0.450"/>
<circle cx="917.4" cy="170.6" r="3.2" fill="#2563eb" fill-opacity="0.450"/>
<circle cx="920.0" cy="170.8" r="3.2" fill="#2563eb" fill-opacity="0.450"/>
<circle cx="1042.1" cy="295.5" r="3.2" fill="#2563eb" fill-opacity="0.450"/>
<circle cx="921.4" cy="297.6" r="3.2" fill="#2563eb" fill-opacity="0.450"/>
<circle cx="1044.0" cy="170.0" r="3.2" fill="#2563eb" fill-opacity="0.450"/>
<circle cx="1050.0" cy="300.8" r="3.2" fill="#2563eb" fill-opacity="0.450"/>
<circle cx="917.8" cy="298.5" r="3.2" fill="#2563eb" fill-opacity="0.450"/>
<circle cx="915.5" cy="171.6" r="3.2" fill="#2563eb" fill-opacity="0.450"/>
<circle cx="913.0" cy="175.4" r="3.2" fill="#2563eb" fill-opacity="0.450"/>
<circle cx="1033.2" cy="296.6" r="3.2" fill="#2563eb" fill-opacity="0.450"/>
<circle cx="1034.5" cy="167.1" r="3.2" fill="#2563eb" fill-opacity="0.450"/>
<circle cx="1042.5" cy="300.1" r="3.2" fill="#2563eb" fill-opacity="0.450"/>
<circle cx="1041.6" cy="297.9" r="3.2" fill="#2563eb" fill-opacity="0.450"/>
<circle cx="912.2" cy="294.6" r="3.2" fill="#2563eb" fill-opacity="0.450"/>
<circle cx="1043.9" cy="173.4" r="3.2" fill="#2563eb" fill-opacity="0.450"/>
<circle cx="917.6" cy="301.7" r="3.2" fill="#2563eb" fill-opacity="0.450"/>
<circle cx="917.6" cy="297.3" r="3.2" fill="#2563eb" fill-opacity="0.450"/>
<circle cx="919.9" cy="167.7" r="3.2" fill="#2563eb" fill-opacity="0.450"/>
<circle cx="1043.1" cy="173.7" r="3.2" fill="#2563eb" fill-opacity="0.450"/>
<circle cx="1037.0" cy="298.0" r="3.2" fill="#2563eb" fill-opacity="0.450"/>
<circle cx="925.0" cy="176.6" r="3.2" fill="#2563eb" fill-opacity="0.450"/>
<circle cx="922.4" cy="171.6" r="3.2" fill="#2563eb" fill-opacity="0.450"/>
<circle cx="918.3" cy="295.6" r="3.2" fill="#2563eb" fill-opacity="0.450"/>
<circle cx="1041.6" cy="170.8" r="3.2" fill="#2563eb" fill-opacity="0.450"/>
<circle cx="1045.8" cy="171.5" r="3.2" fill="#2563eb" fill-opacity="0.450"/>
<circle cx="918.2" cy="176.4" r="3.2" fill="#2563eb" fill-opacity="0.450"/>
<circle cx="1045.6" cy="295.7" r="3.2" fill="#2563eb" fill-opacity="0.450"/>
<circle cx="914.6" cy="297.8" r="3.2" fill="#2563eb" fill-opacity="0.450"/>
<circle cx="1041.8" cy="164.2" r="3.2" fill="#2563eb" fill-opacity="0.450"/>
<circle cx="1044.9" cy="292.5" r="3.2" fill="#2563eb" fill-opacity="0.450"/>
<circle cx="916.2" cy="297.0" r="3.2" fill="#2563eb" fill-opacity="0.450"/>
<circle cx="1036.9" cy="163.3" r="3.2" fill="#2563eb" fill-opacity="0.450"/>
<circle cx="917.2" cy="174.9" r="3.2" fill="#2563eb" fill-opacity="0.450"/>
<circle cx="1046.9" cy="300.0" r="3.2" fill="#2563eb" fill-opacity="0.450"/>
<circle cx="1046.0" cy="171.7" r="3.2" fill="#2563eb" fill-opacity="0.450"/>
<circle cx="1038.1" cy="297.0" r="3.2" fill="#2563eb" fill-opacity="0.450"/>
<circle cx="1042.7" cy="174.0" r="3.2" fill="#2563eb" fill-opacity="0.450"/>
<circle cx="906.3" cy="298.9" r="3.2" fill="#2563eb" fill-opacity="0.450"/>
<circle cx="912.6" cy="174.1" r="3.2" fill="#2563eb" fill-opacity="0.450"/>
<circle cx="1049.5" cy="292.6" r="3.2" fill="#2563eb" fill-opacity="0.450"/>
<circle cx="921.5" cy="170.1" r="3.2" fill="#2563eb" fill-opacity="0.450"/>
<circle cx="918.1" cy="294.2" r="3.2" fill="#2563eb" fill-opacity="0.450"/>
<circle cx="1044.7" cy="172.4" r="3.2" fill="#2563eb" fill-opacity="0.450"/>
<circle cx="917.9" cy="300.5" r="3.2" fill="#2563eb" fill-opacity="0.450"/>
<circle cx="1042.8" cy="291.3" r="3.2" fill="#2563eb" fill-opacity="0.450"/>
<circle cx="913.3" cy="298.4" r="3.2" fill="#2563eb" fill-opacity="0.450"/>
<circle cx="915.9" cy="295.2" r="3.2" fill="#2563eb" fill-opacity="0.450"/>
<circle cx="1042.9" cy="178.3" r="3.2" fill="#2563eb" fill-opacity="0.450"/>
<circle cx="920.7" cy="304.1" r="3.2" fill="#2563eb" fill-opacity="0.450"/>
<circle cx="1036.3" cy="299.5" r="3.2" fill="#2563eb" fill-opacity="0.450"/>
<circle cx="1044.3" cy="295.9" r="3.2" fill="#2563eb" fill-opacity="0.450"/>
<circle cx="918.7" cy="169.3" r="3.2" fill="#2563eb" fill-opacity="0.450"/>
<circle cx="1038.8" cy="175.0" r="3.2" fill="#2563eb" fill-opacity="0.450"/>
<circle cx="913.2" cy="298.7" r="3.2" fill="#2563eb" fill-opacity="0.450"/>
<circle cx="916.5" cy="301.1" r="3.2" fill="#2563eb" fill-opacity="0.450"/>
<circle cx="1037.4" cy="171.6" r="3.2" fill="#2563eb" fill-opacity="0.450"/>
<circle cx="1049.0" cy="171.8" r="3.2" fill="#2563eb" fill-opacity="0.450"/>
<circle cx="921.9" cy="175.0" r="3.2" fill="#2563eb" fill-opacity="0.450"/>
<circle cx="909.1" cy="292.3" r="3.2" fill="#2563eb" fill-opacity="0.450"/>
<circle cx="1036.4" cy="171.5" r="3.2" fill="#2563eb" fill-opacity="0.450"/>
<circle cx="918.3" cy="166.3" r="3.2" fill="#2563eb" fill-opacity="0.450"/>
<circle cx="920.4" cy="298.2" r="3.2" fill="#2563eb" fill-opacity="0.450"/>
<circle cx="919.3" cy="175.2" r="3.2" fill="#2563eb" fill-opacity="0.450"/>
<circle cx="920.2" cy="298.1" r="3.2" fill="#2563eb" fill-opacity="0.450"/>
<circle cx="1034.4" cy="176.5" r="3.2" fill="#2563eb" fill-opacity="0.450"/>
<circle cx="923.3" cy="175.6" r="3.2" fill="#2563eb" fill-opacity="0.450"/>
<circle cx="920.8" cy="171.6" r="3.2" fill="#2563eb" fill-opacity="0.450"/>
<circle cx="925.4" cy="295.1" r="3.2" fill="#2563eb" fill-opacity="0.450"/>
<circle cx="1037.7" cy="175.6" r="3.2" fill="#2563eb" fill-opacity="0.450"/>
<circle cx="1034.0" cy="167.3" r="3.2" fill="#2563eb" fill-opacity="0.450"/>
<circle cx="1042.3" cy="298.3" r="3.2" fill="#2563eb" fill-opacity="0.450"/>
<circle cx="921.7" cy="168.8" r="3.2" fill="#2563eb" fill-opacity="0.450"/>
<circle cx="916.1" cy="170.8" r="3.2" fill="#2563eb" fill-opacity="0.450"/>
<circle cx="915.8" cy="297.2" r="3.2" fill="#2563eb" fill-opacity="0.450"/>
<circle cx="1046.9" cy="297.9" r="3.2" fill="#2563eb" fill-opacity="0.450"/>
<circle cx="923.0" cy="300.5" r="3.2" fill="#2563eb" fill-opacity="0.450"/>
<circle cx="914.8" cy="294.7" r="3.2" fill="#2563eb" fill-opacity="0.450"/>
<circle cx="1046.8" cy="175.2" r="3.2" fill="#2563eb" fill-opacity="0.450"/>
<circle cx="915.9" cy="172.2" r="3.2" fill="#2563eb" fill-opacity="0.450"/>
<circle cx="1045.2" cy="298.8" r="3.2" fill="#2563eb" fill-opacity="0.450"/>
<circle cx="1042.5" cy="174.7" r="3.2" fill="#2563eb" fill-opacity="0.450"/>
<circle cx="1047.5" cy="293.3" r="3.2" fill="#2563eb" fill-opacity="0.450"/>
<circle cx="1034.1" cy="300.7" r="3.2" fill="#2563eb" fill-opacity="0.450"/>
<circle cx="1044.9" cy="181.0" r="3.2" fill="#2563eb" fill-opacity="0.450"/>
<circle cx="913.4" cy="290.0" r="3.2" fill="#2563eb" fill-opacity="0.450"/>
<circle cx="911.4" cy="171.3" r="3.2" fill="#2563eb" fill-opacity="0.450"/>
<circle cx="915.8" cy="173.4" r="3.2" fill="#2563eb" fill-opacity="0.450"/>
<circle cx="919.6" cy="174.4" r="3.2" fill="#2563eb" fill-opacity="0.450"/>
<circle cx="1040.9" cy="292.7" r="3.2" fill="#2563eb" fill-opacity="0.450"/>
<circle cx="914.6" cy="177.0" r="3.2" fill="#2563eb" fill-opacity="0.450"/>
<circle cx="1042.8" cy="297.5" r="3.2" fill="#2563eb" fill-opacity="0.450"/>
<circle cx="1042.2" cy="167.9" r="3.2" fill="#2563eb" fill-opacity="0.450"/>
<circle cx="923.9" cy="169.4" r="3.2" fill="#2563eb" fill-opacity="0.450"/>
<circle cx="918.7" cy="297.3" r="3.2" fill="#2563eb" fill-opacity="0.450"/>
<circle cx="1046.5" cy="170.9" r="3.2" fill="#2563eb" fill-opacity="0.450"/>
<circle cx="1047.5" cy="296.2" r="3.2" fill="#2563eb" fill-opacity="0.450"/>
<circle cx="1042.7" cy="295.6" r="3.2" fill="#2563eb" fill-opacity="0.450"/>
<circle cx="1041.2" cy="178.9" r="3.2" fill="#2563eb" fill-opacity="0.450"/>
<circle cx="916.3" cy="181.3" r="3.2" fill="#2563eb" fill-opacity="0.450"/>
<circle cx="917.7" cy="167.9" r="3.2" fill="#2563eb" fill-opacity="0.450"/>
<circle cx="1043.4" cy="172.3" r="3.2" fill="#2563eb" fill-opacity="0.450"/>
<circle cx="914.6" cy="300.2" r="3.2" fill="#2563eb" fill-opacity="0.450"/>
<circle cx="1039.9" cy="292.7" r="3.2" fill="#2563eb" fill-opacity="0.450"/>
<circle cx="1043.4" cy="174.5" r="3.2" fill="#2563eb" fill-opacity="0.450"/>
<circle cx="921.8" cy="297.7" r="3.2" fill="#2563eb" fill-opacity="0.450"/>
<circle cx="1040.1" cy="295.8" r="3.2" fill="#2563eb" fill-opacity="0.450"/>
<circle cx="1037.8" cy="297.4" r="3.2" fill="#2563eb" fill-opacity="0.450"/>
<circle cx="1043.7" cy="175.8" r="3.2" fill="#2563eb" fill-opacity="0.450"/>
<circle cx="917.5" cy="172.4" r="3.2" fill="#2563eb" fill-opacity="0.450"/>
<circle cx="1044.2" cy="169.3" r="3.2" fill="#2563eb" fill-opacity="0.450"/>
<circle cx="915.5" cy="297.3" r="3.2" fill="#2563eb" fill-opacity="0.450"/>
<circle cx="1030.6" cy="174.7" r="3.2" fill="#2563eb" fill-opacity="0.450"/>
<circle cx="919.9" cy="174.8" r="3.2" fill="#2563eb" fill-opacity="0.450"/>
<circle cx="1035.5" cy="176.3" r="3.2" fill="#2563eb" fill-opacity="0.450"/>
<circle cx="911.6" cy="174.5" r="3.2" fill="#2563eb" fill-opacity="0.450"/>
<circle cx="1042.7" cy="174.2" r="3.2" fill="#2563eb" fill-opacity="0.450"/>
<circle cx="917.2" cy="164.3" r="3.2" fill="#2563eb" fill-opacity="0.450"/>
<circle cx="919.6" cy="165.7" r="3.2" fill="#2563eb" fill-opacity="0.450"/>
<circle cx="1042.9" cy="297.4" r="3.2" fill="#2563eb" fill-opacity="0.450"/>
<circle cx="919.1" cy="300.1" r="3.2" fill="#2563eb" fill-opacity="0.450"/>
<circle cx="916.4" cy="179.8" r="3.2" fill="#2563eb" fill-opacity="0.450"/>
<circle cx="1036.4" cy="296.0" r="3.2" fill="#2563eb" fill-opacity="0.450"/>
<circle cx="1041.2" cy="296.8" r="3.2" fill="#2563eb" fill-opacity="0.450"/>
<circle cx="1039.6" cy="295.0" r="3.2" fill="#2563eb" fill-opacity="0.450"/>
<circle cx="1038.2" cy="293.0" r="3.2" fill="#2563eb" fill-opacity="0.450"/>
<circle cx="916.2" cy="176.2" r="3.2" fill="#2563eb" fill-opacity="0.450"/>
<circle cx="1037.1" cy="296.7" r="3.2" fill="#2563eb" fill-opacity="0.450"/>
<circle cx="1041.8" cy="295.7" r="3.2" fill="#2563eb" fill-opacity="0.450"/>
<circle cx="1039.4" cy="295.8" r="3.2" fill="#2563eb" fill-opacity="0.450"/>
<circle cx="1044.6" cy="296.3" r="3.2" fill="#2563eb" fill-opacity="0.450"/>
<circle cx="914.7" cy="170.6" r="3.2" fill="#2563eb" fill-opacity="0.450"/>
<circle cx="918.9" cy="168.8" r="3.2" fill="#2563eb" fill-opacity="0.450"/>
<circle cx="920.4" cy="176.5" r="3.2" fill="#2563eb" fill-opacity="0.450"/>
<circle cx="920.7" cy="294.8" r="3.2" fill="#2563eb" fill-opacity="0.450"/>
<circle cx="918.3" cy="174.2" r="3.2" fill="#2563eb" fill-opacity="0.450"/>
<circle cx="1042.9" cy="180.7" r="3.2" fill="#2563eb" fill-opacity="0.450"/>
<circle cx="1042.5" cy="173.7" r="3.2" fill="#2563eb" fill-opacity="0.450"/>
<circle cx="1037.5" cy="176.4" r="3.2" fill="#2563eb" fill-opacity="0.450"/>
<circle cx="1043.4" cy="289.3" r="3.2" fill="#2563eb" fill-opacity="0.450"/>
<circle cx="1047.6" cy="174.2" r="3.2" fill="#2563eb" fill-opacity="0.450"/>
<circle cx="1046.1" cy="173.9" r="3.2" fill="#2563eb" fill-opacity="0.450"/>
<circle cx="920.5" cy="301.0" r="3.2" fill="#2563eb" fill-opacity="0.450"/>
<circle cx="1044.0" cy="174.3" r="3.2" fill="#2563eb" fill-opacity="0.450"/>
<circle cx="915.0" cy="297.3" r="3.2" fill="#2563eb" fill-opacity="0.450"/>
<circle cx="917.2" cy="180.4" r="3.2" fill="#2563eb" fill-opacity="0.450"/>
<circle cx="1039.6" cy="301.0" r="3.2" fill="#2563eb" fill-opacity="0.450"/>
<circle cx="919.9" cy="296.7" r="3.2" fill="#2563eb" fill-opacity="0.450"/>
<circle cx="913.2" cy="295.5" r="3.2" fill="#2563eb" fill-opacity="0.450"/>
<circle cx="1047.2" cy="297.3" r="3.2" fill="#2563eb" fill-opacity="0.450"/>
<circle cx="1037.0" cy="293.8" r="3.2" fill="#2563eb" fill-opacity="0.450"/>
<circle cx="1041.3" cy="173.0" r="3.2" fill="#2563eb" fill-opacity="0.450"/>
<circle cx="1040.9" cy="290.5" r="3.2" fill="#2563eb" fill-opacity="0.450"/>
<circle cx="916.0" cy="172.3" r="3.2" fill="#2563eb" fill-opacity="0.450"/>
<circle cx="912.1" cy="294.7" r="3.2" fill="#2563eb" fill-opacity="0.450"/>
<circle cx="1041.2" cy="168.7" r="3.2" fill="#2563eb" fill-opacity="0.450"/>
<circle cx="921.5" cy="298.0" r="3.2" fill="#2563eb" fill-opacity="0.450"/>
<circle cx="916.1" cy="297.9" r="3.2" fill="#2563eb" fill-opacity="0.450"/>
<circle cx="1041.5" cy="170.2" r="3.2" fill="#2563eb" fill-opacity="0.450"/>
<circle cx="916.0" cy="170.8" r="3.2" fill="#2563eb" fill-opacity="0.450"/>
<circle cx="918.2" cy="169.7" r="3.2" fill="#2563eb" fill-opacity="0.450"/>
<circle cx="1041.4" cy="181.3" r="3.2" fill="#2563eb" fill-opacity="0.450"/>
<circle cx="1038.6" cy="296.3" r="3.2" fill="#2563eb" fill-opacity="0.450"/>
<circle cx="917.4" cy="294.7" r="3.2" fill="#2563eb" fill-opacity="0.450"/>
<circle cx="1039.4" cy="168.9" r="3.2" fill="#2563eb" fill-opacity="0.450"/>
<circle cx="916.3" cy="165.6" r="3.2" fill="#2563eb" fill-opacity="0.450"/>
<circle cx="918.6" cy="174.8" r="3.2" fill="#2563eb" fill-opacity="0.450"/>
<circle cx="1045.6" cy="293.3" r="3.2" fill="#2563eb" fill-opacity="0.450"/>
<circle cx="910.2" cy="171.1" r="3.2" fill="#2563eb" fill-opacity="0.450"/>
<circle cx="915.5" cy="290.2" r="3.2" fill="#2563eb" fill-opacity="0.450"/>
<circle cx="921.3" cy="173.9" r="3.2" fill="#2563eb" fill-opacity="0.450"/>
<circle cx="1047.6" cy="173.2" r="3.2" fill="#2563eb" fill-opacity="0.450"/>
<circle cx="1041.3" cy="164.1" r="3.2" fill="#2563eb" fill-opacity="0.450"/>
<circle cx="1045.2" cy="171.3" r="3.2" fill="#2563eb" fill-opacity="0.450"/>
<circle cx="919.6" cy="298.8" r="3.2" fill="#2563eb" fill-opacity="0.450"/>
<circle cx="928.9" cy="298.6" r="3.2" fill="#2563eb" fill-opacity="0.450"/>
<circle cx="924.3" cy="293.7" r="3.2" fill="#2563eb" fill-opacity="0.450"/>
<circle cx="1044.0" cy="178.4" r="3.2" fill="#2563eb" fill-opacity="0.450"/>
<circle cx="1038.5" cy="172.9" r="3.2" fill="#2563eb" fill-opacity="0.450"/>
<circle cx="915.1" cy="296.4" r="3.2" fill="#2563eb" fill-opacity="0.450"/>
<circle cx="920.8" cy="170.7" r="3.2" fill="#2563eb" fill-opacity="0.450"/>
<circle cx="1043.9" cy="296.9" r="3.2" fill="#2563eb" fill-opacity="0.450"/>
<circle cx="1038.5" cy="294.6" r="3.2" fill="#2563eb" fill-opacity="0.450"/>
<circle cx="1046.1" cy="303.8" r="3.2" fill="#2563eb" fill-opacity="0.450"/>
<circle cx="1039.9" cy="300.2" r="3.2" fill="#2563eb" fill-opacity="0.450"/>
<circle cx="1045.6" cy="297.5" r="3.2" fill="#2563eb" fill-opacity="0.450"/>
<circle cx="1039.7" cy="299.0" r="3.2" fill="#2563eb" fill-opacity="0.450"/>
<circle cx="1039.9" cy="295.3" r="3.2" fill="#2563eb" fill-opacity="0.450"/>
<circle cx="911.4" cy="299.5" r="3.2" fill="#2563eb" fill-opacity="0.450"/>
<circle cx="1042.2" cy="172.0" r="3.2" fill="#2563eb" fill-opacity="0.450"/>
<circle cx="916.6" cy="297.8" r="3.2" fill="#2563eb" fill-opacity="0.450"/>
<circle cx="923.6" cy="299.3" r="3.2" fill="#2563eb" fill-opacity="0.450"/>
<circle cx="915.7" cy="300.3" r="3.2" fill="#2563eb" fill-opacity="0.450"/>
<circle cx="919.9" cy="294.4" r="3.2" fill="#2563eb" fill-opacity="0.450"/>
<circle cx="914.9" cy="292.3" r="3.2" fill="#2563eb" fill-opacity="0.450"/>
<circle cx="1043.8" cy="298.9" r="3.2" fill="#2563eb" fill-opacity="0.450"/>
<circle cx="917.4" cy="296.8" r="3.2" fill="#2563eb" fill-opacity="0.450"/>
<circle cx="1048.6" cy="297.4" r="3.2" fill="#2563eb" fill-opacity="0.450"/>
<circle cx="914.9" cy="175.3" r="3.2" fill="#2563eb" fill-opacity="0.450"/>
<circle cx="1048.6" cy="173.7" r="3.2" fill="#2563eb" fill-opacity="0.450"/>
<circle cx="1045.1" cy="293.9" r="3.2" fill="#2563eb" fill-opacity="0.450"/>
<circle cx="919.4" cy="298.9" r="3.2" fill="#2563eb" fill-opacity="0.450"/>
<circle cx="915.0" cy="297.2" r="3.2" fill="#2563eb" fill-opacity="0.450"/>
<circle cx="916.1" cy="177.5" r="3.2" fill="#2563eb" fill-opacity="0.450"/>
<circle cx="1039.8" cy="171.0" r="3.2" fill="#2563eb" fill-opacity="0.450"/>
<circle cx="917.7" cy="172.4" r="3.2" fill="#2563eb" fill-opacity="0.450"/>
<circle cx="922.7" cy="171.1" r="3.2" fill="#2563eb" fill-opacity="0.450"/>
<rect x="90.0" y="430.0" width="1020.0" height="150.0" rx="18" fill="#ffffff" stroke="#e2e8f0"/>
<text x="108.0" y="456.0" fill="#334155" font-size="15" font-family="Inter, Arial, sans-serif" text-anchor="start" font-weight="700">phase estimate (rad)</text>
<line x1="120.0" y1="556.0" x2="1090.0" y2="556.0" stroke="#94a3b8" stroke-width="1.0"/>
<line x1="120.0" y1="466.0" x2="120.0" y2="556.0" stroke="#94a3b8" stroke-width="1.0"/>
<polyline fill="none" stroke="#2563eb" stroke-width="2.5" points="120.0,506.3 121.1,507.7 122.2,508.9 123.2,509.9 124.3,510.6 125.4,511.2 126.5,511.6 127.6,512.0 128.6,512.3 129.7,512.3 130.8,512.4 131.9,512.2 132.9,512.1 134.0,512.0 135.1,512.0 136.2,511.7 137.3,511.6 138.3,511.4 139.4,511.2 140.5,511.1 141.6,510.6 142.7,510.3 143.7,509.8 144.8,509.5 145.9,509.3 147.0,508.6 148.1,508.2 149.1,507.7 150.2,507.3 151.3,507.1 152.4,506.8 153.4,506.4 154.5,506.0 155.6,505.6 156.7,505.1 157.8,504.7 158.8,504.2 159.9,503.4 161.0,503.1 162.1,502.6 163.2,502.3 164.2,501.7 165.3,501.2 166.4,500.7 167.5,500.4 168.6,500.0 169.6,499.5 170.7,499.3 171.8,499.0 172.9,498.6 173.9,498.2 175.0,497.6 176.1,497.3 177.2,496.9 178.3,496.6 179.3,496.2 180.4,495.8 181.5,495.5 182.6,495.1 183.7,494.7 184.7,494.4 185.8,493.9 186.9,493.6 188.0,493.2 189.1,492.9 190.1,492.6 191.2,492.1 192.3,491.7 193.4,491.2 194.4,490.8 195.5,490.5 196.6,490.2 197.7,489.7 198.8,489.3 199.8,488.9 200.9,488.7 202.0,488.4 203.1,488.2 204.2,487.9 205.2,487.8 206.3,487.3 207.4,486.8 208.5,486.3 209.6,486.1 210.6,485.9 211.7,485.4 212.8,485.0 213.9,484.9 214.9,484.4 216.0,483.9 217.1,483.5 218.2,483.0 219.3,482.6 220.3,482.2 221.4,481.8 222.5,481.3 223.6,480.8 224.7,480.6 225.7,480.4 226.8,480.0 227.9,479.7 229.0,479.5 230.1,479.0 231.1,478.8 232.2,478.5 233.3,478.0 234.4,477.7 235.5,477.5 236.5,477.2 237.6,477.1 238.7,476.6 239.8,476.1 240.8,475.7 241.9,475.5 243.0,475.1 244.1,474.6 245.2,474.4 246.2,474.0 247.3,473.4 248.4,473.1 249.5,472.7 250.6,472.4 251.6,471.9 252.7,471.5 253.8,471.3 254.9,470.8 256.0,470.6 257.0,470.3 258.1,469.9 259.2,469.6 260.3,469.2 261.3,468.9 262.4,468.4 263.5,468.0 264.6,467.5 265.7,467.2 266.7,467.0 267.8,466.7 268.9,466.2 270.0,466.0 271.1,465.6 272.1,465.2 273.2,464.9 274.3,464.5 275.4,464.3 276.5,464.1 277.5,463.6 278.6,463.2 279.7,462.9 280.8,462.5 281.8,462.1 282.9,461.8 284.0,461.5 285.1,461.2 286.2,460.8 287.2,460.4 288.3,460.1 289.4,459.9 290.5,459.6 291.6,459.2 292.6,458.8 293.7,458.6 294.8,458.4 295.9,458.1 297.0,457.7 298.0,457.3 299.1,456.8 300.2,456.5 301.3,456.0 302.3,455.6 303.4,455.1 304.5,554.8 305.6,554.5 306.7,554.1 307.7,553.6 308.8,553.3 309.9,552.9 311.0,552.6 312.1,552.2 313.1,551.9 314.2,551.5 315.3,551.2 316.4,550.8 317.5,550.6 318.5,550.3 319.6,549.9 320.7,549.7 321.8,549.2 322.8,548.8 323.9,548.6 325.0,548.2 326.1,547.7 327.2,547.2 328.2,546.8 329.3,546.6 330.4,546.2 331.5,545.9 332.6,545.6 333.6,545.4 334.7,544.9 335.8,544.5 336.9,544.2 338.0,543.7 339.0,543.3 340.1,543.3 341.2,542.9 342.3,542.3 343.3,541.7 344.4,541.5 345.5,541.2 346.6,541.2 347.7,540.9 348.7,540.5 349.8,540.0 350.9,539.7 352.0,539.2 353.1,538.9 354.1,538.7 355.2,538.4 356.3,538.2 357.4,538.0 358.5,537.6 359.5,537.3 360.6,536.8 361.7,536.6 362.8,536.1 363.8,535.8 364.9,535.3 366.0,534.8 367.1,534.7 368.2,534.2 369.2,533.9 370.3,533.6 371.4,533.2 372.5,533.0 373.6,532.5 374.6,532.1 375.7,531.6 376.8,531.4 377.9,530.9 379.0,530.6 380.0,530.3 381.1,530.1 382.2,529.7 383.3,529.3 384.3,529.0 385.4,528.7 386.5,528.4 387.6,528.1 388.7,527.8 389.7,527.6 390.8,527.2 391.9,526.9 393.0,526.5 394.1,526.1 395.1,525.7 396.2,525.2 397.3,525.0 398.4,524.5 399.5,524.4 400.5,524.1 401.6,523.5 402.7,523.0 403.8,522.6 404.8,522.2 405.9,521.8 407.0,521.6 408.1,521.3 409.2,520.8 410.2,520.3 411.3,520.2 412.4,519.8 413.5,519.5 414.6,518.9 415.6,518.7 416.7,518.4 417.8,518.0 418.9,517.5 420.0,517.3 421.0,517.0 422.1,516.5 423.2,516.2 424.3,515.9 425.4,515.6 426.4,515.4 427.5,515.2 428.6,514.8 429.7,514.5 430.7,514.3 431.8,513.8 432.9,513.4 434.0,513.0 435.1,512.6 436.1,512.5 437.2,512.1 438.3,511.7 439.4,511.4 440.5,510.9 441.5,510.6 442.6,510.2 443.7,509.9 444.8,509.6 445.9,509.4 446.9,509.0 448.0,508.6 449.1,508.1 450.2,507.9 451.2,507.6 452.3,507.0 453.4,506.6 454.5,506.1 455.6,505.8 456.6,505.5 457.7,505.1 458.8,504.7 459.9,504.4 461.0,504.1 462.0,503.7 463.1,503.4 464.2,502.9 465.3,502.5 466.4,502.3 467.4,502.1 468.5,502.0 469.6,501.6 470.7,501.3 471.7,500.8 472.8,500.4 473.9,500.0 475.0,499.7 476.1,499.4 477.1,499.1 478.2,498.7 479.3,498.3 480.4,497.9 481.5,497.7 482.5,497.4 483.6,497.1 484.7,496.8 485.8,496.3 486.9,496.0 487.9,495.5 489.0,495.3 490.1,495.2 491.2,494.8 492.2,494.5 493.3,494.1 494.4,493.6 495.5,493.2 496.6,493.0 497.6,492.5 498.7,491.9 499.8,491.5 500.9,491.0 502.0,490.8 503.0,490.4 504.1,490.1 505.2,489.8 506.3,489.2 507.4,488.8 508.4,488.6 509.5,488.2 510.6,487.8 511.7,487.4 512.7,487.1 513.8,486.5 514.9,486.4 516.0,485.9 517.1,485.8 518.1,485.6 519.2,485.2 520.3,484.9 521.4,484.6 522.5,484.3 523.5,484.0 524.6,483.7 525.7,483.4 526.8,483.1 527.9,482.6 528.9,482.2 530.0,481.8 531.1,481.5 532.2,481.2 533.2,480.9 534.3,480.4 535.4,480.0 536.5,479.5 537.6,479.3 538.6,479.0 539.7,478.6 540.8,478.2 541.9,477.8 543.0,477.5 544.0,477.2 545.1,476.9 546.2,476.6 547.3,476.0 548.4,475.7 549.4,475.4 550.5,475.2 551.6,474.8 552.7,474.3 553.7,473.8 554.8,473.5 555.9,473.2 557.0,472.8 558.1,472.2 559.1,471.8 560.2,471.7 561.3,471.3 562.4,470.9 563.5,470.5 564.5,470.2 565.6,469.9 566.7,469.5 567.8,469.1 568.9,468.7 569.9,468.4 571.0,468.1 572.1,467.9 573.2,467.6 574.2,467.1 575.3,466.8 576.4,466.6 577.5,466.2 578.6,465.9 579.6,465.4 580.7,465.0 581.8,464.6 582.9,464.5 584.0,464.3 585.0,464.0 586.1,463.6 587.2,463.2 588.3,462.8 589.4,462.3 590.4,461.8 591.5,461.7 592.6,461.2 593.7,460.9 594.7,460.5 595.8,460.2 596.9,459.9 598.0,459.6 599.1,459.1 600.1,458.8 601.2,458.4 602.3,458.1 603.4,457.7 604.5,457.4 605.5,457.1 606.6,456.7 607.7,456.5 608.8,456.3 609.9,456.0 610.9,455.6 612.0,455.2 613.1,554.9 614.2,554.5 615.3,554.1 616.3,553.8 617.4,553.3 618.5,553.0 619.6,552.7 620.6,552.2 621.7,551.9 622.8,551.7 623.9,551.4 625.0,551.0 626.0,550.5 627.1,550.1 628.2,549.8 629.3,549.2 630.4,548.9 631.4,548.5 632.5,548.1 633.6,547.8 634.7,547.5 635.8,547.4 636.8,547.1 637.9,546.7 639.0,546.3 640.1,545.9 641.1,545.6 642.2,545.3 643.3,545.0 644.4,544.6 645.5,544.2 646.5,543.8 647.6,543.6 648.7,543.4 649.8,543.1 650.9,542.7 651.9,542.4 653.0,542.0 654.1,541.7 655.2,541.3 656.3,540.8 657.3,540.4 658.4,539.9 659.5,539.6 660.6,539.2 661.6,538.8 662.7,538.4 663.8,538.0 664.9,537.6 666.0,537.4 667.0,537.0 668.1,536.8 669.2,536.4 670.3,536.3 671.4,536.0 672.4,535.5 673.5,535.1 674.6,534.8 675.7,534.4 676.8,534.0 677.8,533.7 678.9,533.4 680.0,533.1 681.1,532.6 682.1,532.2 683.2,531.9 684.3,531.6 685.4,531.4 686.5,531.1 687.5,530.9 688.6,530.6 689.7,530.3 690.8,530.0 691.9,529.6 692.9,529.3 694.0,528.8 695.1,528.3 696.2,527.9 697.3,527.5 698.3,527.2 699.4,526.9 700.5,526.6 701.6,526.2 702.6,526.0 703.7,525.7 704.8,525.4 705.9,525.0 707.0,524.5 708.0,524.2 709.1,523.9 710.2,523.6 711.3,523.2 712.4,522.8 713.4,522.5 714.5,522.0 715.6,521.6 716.7,521.3 717.8,521.0 718.8,520.6 719.9,520.4 721.0,520.0 722.1,519.5 723.1,518.9 724.2,518.6 725.3,518.3 726.4,518.0 727.5,517.5 728.5,517.2 729.6,516.8 730.7,516.5 731.8,516.1 732.9,515.8 733.9,515.4 735.0,515.2 736.1,515.0 737.2,514.7 738.3,514.4 739.3,513.9 740.4,513.5 741.5,513.1 742.6,512.8 743.6,512.5 744.7,512.0 745.8,511.7 746.9,511.3 748.0,510.9 749.0,510.7 750.1,510.3 751.2,510.0 752.3,509.7 753.4,509.1 754.4,508.8 755.5,508.4 756.6,508.2 757.7,507.9 758.8,507.6 759.8,507.3 760.9,506.9 762.0,506.6 763.1,506.1 764.1,505.7 765.2,505.2 766.3,504.9 767.4,504.5 768.5,504.3 769.5,504.1 770.6,503.7 771.7,503.4 772.8,502.9 773.9,502.6 774.9,502.2 776.0,501.8 777.1,501.4 778.2,501.2 779.3,500.7 780.3,500.4 781.4,500.2 782.5,500.1 783.6,499.7 784.6,499.4 785.7,498.9 786.8,498.8 787.9,498.4 789.0,497.9 790.0,497.5 791.1,497.2 792.2,496.6 793.3,496.3 794.4,496.0 795.4,495.7 796.5,495.4 797.6,495.0 798.7,494.8 799.8,494.4 800.8,494.1 801.9,494.0 803.0,493.7 804.1,493.2 805.2,492.8 806.2,492.5 807.3,492.0 808.4,491.4 809.5,491.1 810.5,490.9 811.6,490.4 812.7,490.0 813.8,489.6 814.9,489.3 815.9,488.8 817.0,488.6 818.1,488.2 819.2,487.6 820.3,487.2 821.3,486.8 822.4,486.6 823.5,486.3 824.6,486.0 825.7,485.6 826.7,485.4 827.8,484.9 828.9,484.7 830.0,484.2 831.0,483.9 832.1,483.5 833.2,483.2 834.3,482.8 835.4,482.4 836.4,482.0 837.5,481.7 838.6,481.4 839.7,481.1 840.8,480.8 841.8,480.5 842.9,480.1 844.0,479.8 845.1,479.3 846.2,478.9 847.2,478.5 848.3,478.2 849.4,477.9 850.5,477.7 851.5,477.6 852.6,477.0 853.7,476.8 854.8,476.7 855.9,476.4 856.9,476.0 858.0,475.5 859.1,475.2 860.2,474.7 861.3,474.2 862.3,473.9 863.4,473.5 864.5,473.3 865.6,473.0 866.7,472.6 867.7,472.3 868.8,472.0 869.9,471.7 871.0,471.3 872.0,470.9 873.1,470.5 874.2,470.1 875.3,469.7 876.4,469.4 877.4,468.9 878.5,468.7 879.6,468.0 880.7,467.7 881.8,467.4 882.8,467.2 883.9,466.9 885.0,466.5 886.1,466.1 887.2,465.9 888.2,465.6 889.3,465.4 890.4,465.1 891.5,464.9 892.5,464.6 893.6,464.2 894.7,463.9 895.8,463.5 896.9,463.1 897.9,462.8 899.0,462.3 900.1,461.8 901.2,461.5 902.3,460.8 903.3,460.4 904.4,460.0 905.5,459.7 906.6,459.4 907.7,459.1 908.7,458.9 909.8,458.4 910.9,457.8 912.0,457.6 913.0,457.3 914.1,457.0 915.2,456.5 916.3,456.1 917.4,455.8 918.4,455.5 919.5,455.2 920.6,554.8 921.7,554.6 922.8,554.2 923.8,553.9 924.9,553.6 926.0,553.3 927.1,552.9 928.2,552.4 929.2,552.2 930.3,551.8 931.4,551.8 932.5,551.3 933.5,551.1 934.6,550.7 935.7,550.3 936.8,549.9 937.9,549.4 938.9,549.2 940.0,548.9 941.1,548.4 942.2,548.0 943.3,547.4 944.3,547.1 945.4,546.9 946.5,546.5 947.6,546.2 948.7,545.8 949.7,545.2 950.8,545.0 951.9,544.8 953.0,544.4 954.0,544.0 955.1,543.7 956.2,543.1 957.3,543.0 958.4,542.9 959.4,542.8 960.5,542.3 961.6,542.0 962.7,541.6 963.8,541.2 964.8,540.7 965.9,540.4 967.0,539.9 968.1,539.8 969.2,539.4 970.2,539.1 971.3,538.6 972.4,538.2 973.5,538.0 974.5,537.4 975.6,537.2 976.7,536.8 977.8,536.5 978.9,536.1 979.9,535.8 981.0,535.4 982.1,535.0 983.2,534.8 984.3,534.5 985.3,534.2 986.4,533.8 987.5,533.5 988.6,532.9 989.7,532.6 990.7,532.2 991.8,531.7 992.9,531.3 994.0,531.1 995.1,531.0 996.1,530.6 997.2,530.2 998.3,529.6 999.4,529.4 1000.4,529.0 1001.5,528.7 1002.6,528.3 1003.7,527.9 1004.8,527.6 1005.8,527.3 1006.9,526.9 1008.0,526.5 1009.1,526.1 1010.2,525.9 1011.2,525.5 1012.3,525.1 1013.4,524.8 1014.5,524.6 1015.6,524.3 1016.6,523.9 1017.7,523.4 1018.8,523.2 1019.9,522.9 1020.9,522.4 1022.0,522.1 1023.1,521.9 1024.2,521.3 1025.3,521.1 1026.3,520.7 1027.4,520.5 1028.5,520.1 1029.6,519.8 1030.7,519.4 1031.7,518.9 1032.8,518.6 1033.9,518.4 1035.0,517.9 1036.1,517.5 1037.1,517.2 1038.2,516.7 1039.3,516.4 1040.4,516.1 1041.4,515.9 1042.5,515.6 1043.6,515.3 1044.7,514.9 1045.8,514.6 1046.8,514.3 1047.9,513.8 1049.0,513.3 1050.1,513.2 1051.2,512.9 1052.2,512.6 1053.3,512.1 1054.4,511.8 1055.5,511.4 1056.6,510.8 1057.6,510.3 1058.7,510.1 1059.8,509.7 1060.9,509.4 1061.9,509.2 1063.0,508.8 1064.1,508.4 1065.2,508.1 1066.3,507.9 1067.3,507.5 1068.4,507.2 1069.5,506.9 1070.6,506.6 1071.7,506.3 1072.7,506.0 1073.8,505.5 1074.9,505.1 1076.0,504.8 1077.1,504.6 1078.1,504.2 1079.2,503.9 1080.3,503.4 1081.4,503.0 1082.4,502.8 1083.5,502.3 1084.6,501.9 1085.7,501.6 1086.8,501.1 1087.8,500.7 1088.9,500.3 1090.0,500.1"/>
<rect x="90.0" y="610.0" width="1020.0" height="150.0" rx="18" fill="#ffffff" stroke="#e2e8f0"/>
<text x="108.0" y="636.0" fill="#334155" font-size="15" font-family="Inter, Arial, sans-serif" text-anchor="start" font-weight="700">frequency estimate (rad/sample)</text>
<line x1="120.0" y1="736.0" x2="1090.0" y2="736.0" stroke="#94a3b8" stroke-width="1.0"/>
<line x1="120.0" y1="646.0" x2="120.0" y2="736.0" stroke="#94a3b8" stroke-width="1.0"/>
<polyline fill="none" stroke="#059669" stroke-width="2.5" points="120.0,703.8 121.1,711.2 122.2,717.1 123.2,722.0 124.3,724.8 125.4,726.8 126.5,727.8 127.6,729.2 128.6,729.4 129.7,728.3 130.8,727.5 131.9,724.7 132.9,723.5 134.0,721.7 135.1,721.0 136.2,718.3 137.3,716.9 138.3,714.9 139.4,713.1 140.5,711.8 141.6,708.2 142.7,706.1 143.7,703.3 144.8,701.2 145.9,699.6 147.0,696.0 148.1,693.6 149.1,691.2 150.2,689.3 151.3,688.4 152.4,686.9 153.4,685.0 154.5,683.2 155.6,681.6 156.7,679.6 157.8,677.7 158.8,675.7 159.9,672.4 161.0,671.4 162.1,669.9 163.2,668.9 164.2,667.0 165.3,665.5 166.4,663.9 167.5,663.4 168.6,662.3 169.6,661.2 170.7,661.4 171.8,661.2 172.9,660.3 173.9,659.3 175.0,657.7 176.1,657.6 177.2,656.9 178.3,656.5 179.3,655.8 180.4,655.3 181.5,655.5 182.6,654.6 183.7,654.0 184.7,653.9 185.8,653.0 186.9,653.0 188.0,652.6 189.1,652.4 190.1,652.6 191.2,651.8 192.3,651.0 193.4,650.4 194.4,650.0 195.5,649.7 196.6,650.0 197.7,649.0 198.8,648.9 199.8,648.5 200.9,649.1 202.0,649.8 203.1,650.3 204.2,650.6 205.2,651.4 206.3,650.4 207.4,649.8 208.5,648.8 209.6,649.2 210.6,650.2 211.7,649.3 212.8,649.0 213.9,650.0 214.9,649.4 216.0,648.2 217.1,647.9 218.2,647.1 219.3,647.0 220.3,646.8 221.4,646.2 222.5,645.8 223.6,645.1 224.7,645.6 225.7,646.9 226.8,646.5 227.9,646.8 229.0,647.4 230.1,646.8 231.1,647.4 232.2,647.6 233.3,647.2 234.4,647.3 235.5,647.9 236.5,648.6 237.6,649.4 238.7,648.8 239.8,647.7 240.8,647.8 241.9,648.6 243.0,648.3 244.1,647.3 245.2,648.0 246.2,647.6 247.3,646.3 248.4,646.8 249.5,646.2 250.6,646.4 251.6,646.1 252.7,645.9 253.8,646.2 254.9,645.8 256.0,646.3 257.0,646.6 258.1,646.4 259.2,647.0 260.3,646.7 261.3,646.9 262.4,646.4 263.5,646.0 264.6,645.2 265.7,645.5 266.7,646.3 267.8,646.5 268.9,646.2 270.0,646.6 271.1,646.7 272.1,646.2 273.2,646.8 274.3,646.2 275.4,647.3 276.5,648.0 277.5,647.3 278.6,647.0 279.7,647.2 280.8,647.1 281.8,646.5 282.9,646.9 284.0,647.3 285.1,647.6 286.2,647.3 287.2,647.2 288.3,647.2 289.4,647.7 290.5,648.5 291.6,648.2 292.6,647.8 293.7,648.2 294.8,649.4 295.9,649.5 297.0,649.2 298.0,648.7 299.1,647.5 300.2,647.8 301.3,647.0 302.3,646.7 303.4,646.3 304.5,645.8 305.6,645.7 306.7,645.9 307.7,645.1 308.8,645.5 309.9,645.3 311.0,645.7 312.1,645.5 313.1,645.8 314.2,645.4 315.3,645.5 316.4,645.6 317.5,646.5 318.5,646.5 319.6,646.6 320.7,647.2 321.8,646.5 322.8,646.1 323.9,647.0 325.0,646.7 326.1,645.8 327.2,645.3 328.2,645.3 329.3,645.8 330.4,646.0 331.5,646.3 332.6,646.2 333.6,647.4 334.7,646.6 335.8,646.3 336.9,646.2 338.0,645.8 339.0,645.7 340.1,647.6 341.2,647.2 342.3,645.7 343.3,644.4 344.4,645.5 345.5,645.8 346.6,647.5 347.7,647.9 348.7,647.5 349.8,646.8 350.9,646.9 352.0,646.5 353.1,646.6 354.1,647.5 355.2,647.7 356.3,648.3 357.4,649.1 358.5,649.3 359.5,649.0 360.6,648.4 361.7,649.2 362.8,648.1 363.8,648.6 364.9,647.3 366.0,646.5 367.1,648.1 368.2,647.3 369.2,647.7 370.3,647.6 371.4,647.3 372.5,648.0 373.6,647.6 374.6,647.0 375.7,646.6 376.8,646.9 377.9,646.4 379.0,646.5 380.0,647.0 381.1,647.7 382.2,647.6 383.3,647.0 384.3,647.6 385.4,647.7 386.5,648.2 387.6,648.4 388.7,648.7 389.7,649.1 390.8,649.1 391.9,649.1 393.0,648.6 394.1,648.4 395.1,648.0 396.2,647.5 397.3,648.1 398.4,647.4 399.5,648.6 400.5,648.6 401.6,647.4 402.7,646.6 403.8,646.0 404.8,645.9 405.9,646.0 407.0,646.4 408.1,647.2 409.2,646.3 410.2,645.5 411.3,646.7 412.4,646.4 413.5,646.6 414.6,645.6 415.6,646.4 416.7,646.7 417.8,646.4 418.9,645.8 420.0,646.6 421.0,646.7 422.1,646.0 423.2,646.6 424.3,646.6 425.4,647.0 426.4,647.8 427.5,648.4 428.6,648.4 429.7,648.5 430.7,649.0 431.8,648.5 432.9,647.9 434.0,648.0 435.1,647.6 436.1,648.6 437.2,648.3 438.3,647.9 439.4,648.6 440.5,647.4 441.5,647.7 442.6,647.4 443.7,647.7 444.8,647.8 445.9,648.5 446.9,648.4 448.0,648.2 449.1,647.3 450.2,648.2 451.2,648.6 452.3,646.9 453.4,646.5 454.5,645.8 455.6,646.1 456.6,646.5 457.7,646.4 458.8,645.9 459.9,646.5 461.0,646.4 462.0,646.1 463.1,646.5 464.2,645.8 465.3,645.9 466.4,646.5 467.4,647.1 468.5,648.8 469.6,648.4 470.7,648.9 471.7,647.5 472.8,647.3 473.9,647.4 475.0,647.4 476.1,647.7 477.1,648.2 478.2,647.9 479.3,647.3 480.4,647.2 481.5,647.7 482.5,647.9 483.6,648.3 484.7,648.4 485.8,647.9 486.9,647.9 487.9,647.4 489.0,648.0 490.1,649.2 491.2,649.0 492.2,649.0 493.3,649.1 494.4,648.0 495.5,647.9 496.6,648.2 497.6,647.6 498.7,646.4 499.8,646.0 500.9,645.1 502.0,646.1 503.0,645.8 504.1,646.3 505.2,646.4 506.3,645.2 507.4,644.9 508.4,645.8 509.5,645.5 510.6,645.2 511.7,645.2 512.7,645.5 513.8,644.4 514.9,645.5 516.0,645.1 517.1,646.3 518.1,647.1 519.2,647.1 520.3,647.3 521.4,647.7 522.5,648.0 523.5,648.2 524.6,648.6 525.7,648.4 526.8,648.6 527.9,647.8 528.9,647.5 530.0,647.1 531.1,647.7 532.2,647.6 533.2,647.9 534.3,647.1 535.4,647.0 536.5,646.2 537.6,646.7 538.6,647.2 539.7,646.9 540.8,646.9 541.9,646.4 543.0,646.6 544.0,646.9 545.1,647.6 546.2,647.5 547.3,646.3 548.4,646.3 549.4,647.0 550.5,648.0 551.6,647.1 552.7,646.4 553.7,645.7 554.8,646.4 555.9,646.6 557.0,646.0 558.1,644.8 559.1,644.9 560.2,646.0 561.3,646.0 562.4,645.9 563.5,645.6 564.5,646.0 565.6,646.1 566.7,646.1 567.8,645.8 568.9,645.6 569.9,645.9 571.0,646.2 572.1,647.1 573.2,647.2 574.2,646.2 575.3,646.6 576.4,647.6 577.5,647.2 578.6,647.5 579.6,646.5 580.7,646.6 581.8,646.4 582.9,647.9 584.0,648.3 585.0,648.6 586.1,648.5 587.2,647.9 588.3,647.6 589.4,647.1 590.4,646.2 591.5,647.2 592.6,646.7 593.7,647.1 594.7,646.5 595.8,646.8 596.9,647.2 598.0,647.6 599.1,646.9 600.1,647.0 601.2,646.9 602.3,647.1 603.4,646.4 604.5,647.1 605.5,647.1 606.6,647.1 607.7,647.9 608.8,648.5 609.9,648.7 610.9,648.7 612.0,648.3 613.1,647.8 614.2,647.4 615.3,647.0 616.3,647.3 617.4,646.7 618.5,646.8 619.6,647.1 620.6,646.5 621.7,646.7 622.8,647.3 623.9,647.7 625.0,647.2 626.0,646.6 627.1,646.5 628.2,646.5 629.3,645.4 630.4,645.4 631.4,645.7 632.5,645.3 633.6,645.4 634.7,646.0 635.8,647.2 636.8,647.8 637.9,647.5 639.0,647.1 640.1,646.9 641.1,647.1 642.2,647.2 643.3,647.8 644.4,647.4 645.5,646.8 646.5,646.7 647.6,647.6 648.7,648.3 649.8,648.5 650.9,648.3 651.9,648.3 653.0,648.2 654.1,648.4 655.2,648.1 656.3,647.4 657.3,646.9 658.4,646.1 659.5,646.5 660.6,646.0 661.6,646.2 662.7,645.5 663.8,645.6 664.9,645.2 666.0,646.2 667.0,646.3 668.1,647.0 669.2,646.9 670.3,647.8 671.4,648.0 672.4,647.5 673.5,647.1 674.6,647.4 675.7,647.2 676.8,647.1 677.8,647.1 678.9,647.5 680.0,647.7 681.1,647.0 682.1,646.3 683.2,647.1 684.3,647.4 685.4,648.0 686.5,648.2 687.5,648.7 688.6,649.5 689.7,649.7 690.8,649.6 691.9,649.0 692.9,649.6 694.0,648.4 695.1,647.5 696.2,647.4 697.3,646.8 698.3,647.5 699.4,647.6 700.5,647.9 701.6,647.8 702.6,648.6 703.7,648.6 704.8,648.8 705.9,648.2 707.0,647.5 708.0,647.8 709.1,648.1 710.2,648.2 711.3,647.9 712.4,648.0 713.4,647.8 714.5,647.4 715.6,646.7 716.7,647.2 717.8,647.3 718.8,647.4 719.9,647.7 721.0,647.5 722.1,646.9 723.1,645.4 724.2,646.0 725.3,646.1 726.4,646.3 727.5,645.9 728.5,645.7 729.6,645.7 730.7,646.1 731.8,645.9 732.9,646.3 733.9,645.9 735.0,646.6 736.1,647.9 737.2,648.0 738.3,648.3 739.3,647.5 740.4,647.1 741.5,646.5 742.6,647.1 743.6,647.5 744.7,646.7 745.8,646.6 746.9,646.4 748.0,646.3 749.0,647.1 750.1,647.0 751.2,647.3 752.3,647.2 753.4,646.2 754.4,646.3 755.5,646.3 756.6,646.9 757.7,647.2 758.8,647.4 759.8,647.6 760.9,647.6 762.0,647.6 763.1,646.7 764.1,646.6 765.2,645.8 766.3,646.2 767.4,646.2 768.5,646.7 769.5,647.7 770.6,647.5 771.7,647.5 772.8,646.8 773.9,647.3 774.9,647.0 776.0,646.8 777.1,646.5 778.2,646.9 779.3,646.5 780.3,646.7 781.4,647.2 782.5,648.7 783.6,648.4 784.6,648.9 785.7,648.1 786.8,649.0 787.9,649.0 789.0,648.2 790.0,647.8 791.1,647.8 792.2,646.7 793.3,646.6 794.4,647.1 795.4,647.2 796.5,647.8 797.6,647.3 798.7,647.9 799.8,647.8 800.8,648.2 801.9,649.2 803.0,649.4 804.1,648.8 805.2,648.5 806.2,648.5 807.3,647.6 808.4,646.5 809.5,646.7 810.5,647.2 811.6,646.9 812.7,646.2 813.8,646.2 814.9,646.3 815.9,645.7 817.0,646.3 818.1,646.2 819.2,645.2 820.3,644.6 821.3,644.6 822.4,645.8 823.5,646.1 824.6,646.0 825.7,645.7 826.7,646.8 827.8,645.8 828.9,646.7 830.0,646.2 831.0,646.1 832.1,646.1 833.2,646.3 834.3,646.4 835.4,646.2 836.4,645.8 837.5,646.2 838.6,646.2 839.7,646.9 840.8,647.3 841.8,647.1 842.9,647.2 844.0,647.4 845.1,646.4 846.2,646.0 847.2,645.7 848.3,646.3 849.4,646.7 850.5,647.7 851.5,648.8 852.6,647.7 853.7,648.1 854.8,649.6 855.9,649.9 856.9,649.3 858.0,648.7 859.1,648.8 860.2,647.5 861.3,646.7 862.3,647.2 863.4,647.1 864.5,647.6 865.6,647.9 866.7,647.8 867.7,647.9 868.8,648.1 869.9,648.5 871.0,648.4 872.0,647.9 873.1,647.8 874.2,647.3 875.3,647.2 876.4,647.0 877.4,646.2 878.5,647.1 879.6,645.6 880.7,645.9 881.8,646.0 882.8,647.0 883.9,647.2 885.0,646.7 886.1,646.8 887.2,647.6 888.2,647.8 889.3,648.5 890.4,648.9 891.5,649.5 892.5,649.7 893.6,649.4 894.7,649.6 895.8,649.3 896.9,648.7 897.9,649.0 899.0,647.9 900.1,647.1 901.2,647.3 902.3,645.6 903.3,645.3 904.4,645.1 905.5,645.4 906.6,645.8 907.7,646.0 908.7,647.2 909.8,646.4 910.9,645.0 912.0,645.8 913.0,646.1 914.1,646.3 915.2,645.9 916.3,645.2 917.4,645.6 918.4,646.0 919.5,646.7 920.6,645.6 921.7,646.5 922.8,646.2 923.8,646.7 924.9,646.5 926.0,646.9 927.1,646.6 928.2,645.9 929.2,646.5 930.3,646.8 931.4,648.3 932.5,647.5 933.5,648.3 934.6,647.9 935.7,647.8 936.8,647.4 937.9,647.0 938.9,647.3 940.0,647.7 941.1,647.1 942.2,646.9 943.3,645.3 944.3,645.5 945.4,646.4 946.5,646.4 947.6,646.6 948.7,646.2 949.7,645.2 950.8,645.8 951.9,646.6 953.0,646.4 954.0,646.3 955.1,646.5 956.2,645.5 957.3,646.8 958.4,648.1 959.4,649.4 960.5,648.8 961.6,648.5 962.7,648.6 963.8,648.2 964.8,647.3 965.9,647.3 967.0,646.8 968.1,647.9 969.2,647.7 970.2,648.0 971.3,647.3 972.4,647.1 973.5,647.6 974.5,646.5 975.6,647.1 976.7,647.1 977.8,647.2 978.9,646.9 979.9,647.2 981.0,646.7 982.1,646.8 983.2,647.3 984.3,647.8 985.3,647.9 986.4,647.7 987.5,647.9 988.6,646.8 989.7,646.8 990.7,646.5 991.8,645.6 992.9,645.8 994.0,646.7 995.1,647.7 996.1,647.6 997.2,647.2 998.3,646.2 999.4,646.7 1000.4,646.8 1001.5,646.8 1002.6,646.8 1003.7,646.2 1004.8,646.7 1005.8,646.6 1006.9,646.8 1008.0,646.4 1009.1,646.3 1010.2,646.9 1011.2,646.8 1012.3,646.7 1013.4,646.6 1014.5,647.6 1015.6,647.7 1016.6,647.6 1017.7,646.6 1018.8,647.3 1019.9,647.9 1020.9,647.2 1022.0,647.5 1023.1,647.8 1024.2,646.9 1025.3,647.6 1026.3,647.5 1027.4,648.2 1028.5,647.6 1029.6,647.8 1030.7,647.8 1031.7,647.1 1032.8,647.0 1033.9,647.9 1035.0,647.3 1036.1,646.8 1037.1,646.9 1038.2,646.6 1039.3,646.6 1040.4,647.0 1041.4,647.9 1042.5,648.2 1043.6,648.5 1044.7,647.7 1045.8,648.4 1046.8,648.3 1047.9,647.4 1049.0,646.7 1050.1,647.8 1051.2,648.1 1052.2,648.8 1053.3,647.7 1054.4,647.8 1055.5,647.4 1056.6,646.0 1057.6,645.7 1058.7,646.5 1059.8,646.1 1060.9,646.5 1061.9,647.1 1063.0,646.8 1064.1,647.0 1065.2,647.3 1066.3,647.9 1067.3,647.5 1068.4,648.0 1069.5,648.1 1070.6,648.5 1071.7,648.4 1072.7,648.5 1073.8,647.6 1074.9,647.5 1076.0,647.6 1077.1,648.5 1078.1,648.5 1079.2,648.6 1080.3,647.9 1081.4,647.3 1082.4,648.1 1083.5,647.4 1084.6,647.0 1085.7,647.3 1086.8,646.6 1087.8,646.1 1088.9,646.1 1090.0,646.9"/>
<text x="90.0" y="800.0" fill="#475569" font-size="14" font-family="Inter, Arial, sans-serif" text-anchor="start" font-weight="normal">coarse phase estimate from first 64 symbols: -0.084 rad</text>
</svg>
