<svg xmlns="http://www.w3.org/2000/svg" viewBox="0 0 1600 980" width="1600" height="980">
<rect width="100%" height="100%" fill="#f8fafc"/>
<text x="800.0" y="42.0" fill="#111827" font-size="28" font-family="Inter, Arial, sans-serif" text-anchor="middle" font-weight="700">Costas loop gain tradeoff: faster pull-in costs steady-state calm</text>
<text x="800.0" y="68.0" fill="#475569" font-size="16" font-family="Inter, Arial, sans-serif" text-anchor="middle" font-weight="normal"><tspan x="800.0" dy="0">A gentler loop is calmer after lock. A hotter loop gets there faster if the coarse handoff is rough.</tspan><tspan x="800.0" dy="18">The front end stays fixed here. Only the loop gains change.</tspan></text>
<rect x="80.0" y="118.0" width="1440.0" height="352.0" rx="18" fill="#ffffff" stroke="#e2e8f0"/>
<text x="98.0" y="146.0" fill="#334155" font-size="16" font-family="Inter, Arial, sans-serif" text-anchor="start" font-weight="700">Phase-only coarse acquisition under a harder residual ramp</text>
<text x="98.0" y="170.0" fill="#526274" font-size="14" font-family="Inter, Arial, sans-serif" text-anchor="start" font-weight="normal"><tspan x="98.0" dy="0">carrier offset = +0.35 rad/sample, noise std = 0.04</tspan><tspan x="98.0" dy="17">24-symbol moving average of decision error after coarse phase only</tspan></text>
<line x1="136.0" y1="154.0" x2="1496.0" y2="154.0" stroke="#e2e8f0" stroke-width="1.0" stroke-dasharray="4 6"/>
<text x="128.0" y="159.0" fill="#64748b" font-size="13" font-family="Inter, Arial, sans-serif" text-anchor="end" font-weight="normal">0.6</text>
<line x1="136.0" y1="202.3" x2="1496.0" y2="202.3" stroke="#e2e8f0" stroke-width="1.0" stroke-dasharray="4 6"/>
<text x="128.0" y="207.3" fill="#64748b" font-size="13" font-family="Inter, Arial, sans-serif" text-anchor="end" font-weight="normal">0.5</text>
<line x1="136.0" y1="250.7" x2="1496.0" y2="250.7" stroke="#e2e8f0" stroke-width="1.0" stroke-dasharray="4 6"/>
<text x="128.0" y="255.7" fill="#64748b" font-size="13" font-family="Inter, Arial, sans-serif" text-anchor="end" font-weight="normal">0.4</text>
<line x1="136.0" y1="299.0" x2="1496.0" y2="299.0" stroke="#e2e8f0" stroke-width="1.0" stroke-dasharray="4 6"/>
<text x="128.0" y="304.0" fill="#64748b" font-size="13" font-family="Inter, Arial, sans-serif" text-anchor="end" font-weight="normal">0.3</text>
<line x1="136.0" y1="347.3" x2="1496.0" y2="347.3" stroke="#e2e8f0" stroke-width="1.0" stroke-dasharray="4 6"/>
<text x="128.0" y="352.3" fill="#64748b" font-size="13" font-family="Inter, Arial, sans-serif" text-anchor="end" font-weight="normal">0.2</text>
<line x1="136.0" y1="395.7" x2="1496.0" y2="395.7" stroke="#e2e8f0" stroke-width="1.0" stroke-dasharray="4 6"/>
<text x="128.0" y="400.7" fill="#64748b" font-size="13" font-family="Inter, Arial, sans-serif" text-anchor="end" font-weight="normal">0.1</text>
<line x1="136.0" y1="444.0" x2="1496.0" y2="444.0" stroke="#e2e8f0" stroke-width="1.0" stroke-dasharray="4 6"/>
<text x="128.0" y="449.0" fill="#64748b" font-size="13" font-family="Inter, Arial, sans-serif" text-anchor="end" font-weight="normal">0.0</text>
<line x1="136.0" y1="154.0" x2="136.0" y2="444.0" stroke="#eef2f7" stroke-width="1.0" stroke-dasharray="4 6"/>
<text x="136.0" y="494.0" fill="#64748b" font-size="13" font-family="Inter, Arial, sans-serif" text-anchor="middle" font-weight="normal">0</text>
<line x1="306.0" y1="154.0" x2="306.0" y2="444.0" stroke="#eef2f7" stroke-width="1.0" stroke-dasharray="4 6"/>
<text x="306.0" y="494.0" fill="#64748b" font-size="13" font-family="Inter, Arial, sans-serif" text-anchor="middle" font-weight="normal">187</text>
<line x1="476.0" y1="154.0" x2="476.0" y2="444.0" stroke="#eef2f7" stroke-width="1.0" stroke-dasharray="4 6"/>
<text x="476.0" y="494.0" fill="#64748b" font-size="13" font-family="Inter, Arial, sans-serif" text-anchor="middle" font-weight="normal">375</text>
<line x1="646.0" y1="154.0" x2="646.0" y2="444.0" stroke="#eef2f7" stroke-width="1.0" stroke-dasharray="4 6"/>
<text x="646.0" y="494.0" fill="#64748b" font-size="13" font-family="Inter, Arial, sans-serif" text-anchor="middle" font-weight="normal">562</text>
<line x1="816.0" y1="154.0" x2="816.0" y2="444.0" stroke="#eef2f7" stroke-width="1.0" stroke-dasharray="4 6"/>
<text x="816.0" y="494.0" fill="#64748b" font-size="13" font-family="Inter, Arial, sans-serif" text-anchor="middle" font-weight="normal">750</text>
<line x1="986.0" y1="154.0" x2="986.0" y2="444.0" stroke="#eef2f7" stroke-width="1.0" stroke-dasharray="4 6"/>
<text x="986.0" y="494.0" fill="#64748b" font-size="13" font-family="Inter, Arial, sans-serif" text-anchor="middle" font-weight="normal">937</text>
<line x1="1156.0" y1="154.0" x2="1156.0" y2="444.0" stroke="#eef2f7" stroke-width="1.0" stroke-dasharray="4 6"/>
<text x="1156.0" y="494.0" fill="#64748b" font-size="13" font-family="Inter, Arial, sans-serif" text-anchor="middle" font-weight="normal">1124</text>
<line x1="1326.0" y1="154.0" x2="1326.0" y2="444.0" stroke="#eef2f7" stroke-width="1.0" stroke-dasharray="4 6"/>
<text x="1326.0" y="494.0" fill="#64748b" font-size="13" font-family="Inter, Arial, sans-serif" text-anchor="middle" font-weight="normal">1312</text>
<line x1="1496.0" y1="154.0" x2="1496.0" y2="444.0" stroke="#eef2f7" stroke-width="1.0" stroke-dasharray="4 6"/>
<text x="1496.0" y="494.0" fill="#64748b" font-size="13" font-family="Inter, Arial, sans-serif" text-anchor="middle" font-weight="normal">1499</text>
<line x1="136.0" y1="154.0" x2="136.0" y2="444.0" stroke="#334155" stroke-width="2.0"/>
<line x1="136.0" y1="444.0" x2="1496.0" y2="444.0" stroke="#334155" stroke-width="2.0"/>
<polyline fill="none" stroke="#0f766e" stroke-width="3.0" points="136.0,289.8 136.9,230.6 137.8,206.8 138.7,239.3 139.6,263.6 140.5,258.4 141.4,236.3 142.4,241.7 143.3,262.6 144.2,268.2 145.1,256.9 146.0,247.7 146.9,257.4 147.8,263.9 148.7,259.6 149.6,251.4 150.5,252.8 151.4,262.9 152.3,264.7 153.2,260.1 154.1,257.9 155.1,262.0 156.0,267.0 156.9,263.5 157.8,256.7 158.7,259.8 159.6,271.0 160.5,268.4 161.4,258.5 162.3,258.3 163.2,269.7 164.1,272.7 165.0,263.1 165.9,254.2 166.8,259.2 167.8,271.0 168.7,265.9 169.6,256.2 170.5,257.5 171.4,269.5 172.3,271.2 173.2,259.1 174.1,252.5 175.0,259.4 175.9,266.0 176.8,261.4 177.7,249.5 178.6,254.5 179.5,266.6 180.5,268.2 181.4,256.1 182.3,252.3 183.2,262.2 184.1,267.9 185.0,260.7 185.9,250.7 186.8,253.8 187.7,267.5 188.6,267.0 189.5,254.1 190.4,251.0 191.3,261.7 192.3,267.5 193.2,258.7 194.1,250.5 195.0,257.9 195.9,269.3 196.8,266.5 197.7,255.9 198.6,253.6 199.5,265.8 200.4,266.5 201.3,255.6 202.2,248.6 203.1,256.0 204.0,266.4 205.0,262.9 205.9,253.2 206.8,252.3 207.7,262.9 208.6,265.2 209.5,256.7 210.4,250.3 211.3,258.7 212.2,266.9 213.1,262.0 214.0,250.6 214.9,252.9 215.8,264.3 216.7,265.4 217.7,255.1 218.6,250.7 219.5,257.5 220.4,266.3 221.3,260.0 222.2,250.9 223.1,254.0 224.0,264.1 224.9,266.4 225.8,256.4 226.7,249.3 227.6,255.2 228.5,264.8 229.4,258.9 230.4,249.4 231.3,247.5 232.2,259.5 233.1,259.4 234.0,251.4 234.9,247.3 235.8,256.8 236.7,263.1 237.6,258.2 238.5,249.2 239.4,250.0 240.3,259.2 241.2,263.3 242.2,255.6 243.1,250.7 244.0,258.4 244.9,265.6 245.8,261.1 246.7,251.6 247.6,251.1 248.5,262.0 249.4,266.4 250.3,257.5 251.2,253.6 252.1,260.8 253.0,270.8 253.9,267.5 254.9,259.8 255.8,261.1 256.7,270.1 257.6,270.5 258.5,262.3 259.4,256.2 260.3,263.8 261.2,274.0 262.1,269.6 263.0,259.1 263.9,256.9 264.8,267.1 265.7,271.4 266.6,262.7 267.6,258.8 268.5,264.0 269.4,273.9 270.3,271.3 271.2,261.5 272.1,261.2 273.0,270.6 273.9,275.0 274.8,266.4 275.7,259.2 276.6,265.2 277.5,274.5 278.4,269.2 279.3,261.6 280.3,259.9 281.2,269.1 282.1,270.1 283.0,259.8 283.9,252.9 284.8,259.5 285.7,271.2 286.6,268.5 287.5,257.7 288.4,257.3 289.3,265.5 290.2,269.4 291.1,260.2 292.1,252.5 293.0,258.3 293.9,267.3 294.8,263.6 295.7,253.2 296.6,251.1 297.5,259.9 298.4,262.2 299.3,252.7 300.2,246.6 301.1,251.8 302.0,261.9 302.9,259.3 303.8,251.1 304.8,252.3 305.7,263.0 306.6,265.9 307.5,257.3 308.4,250.0 309.3,257.6 310.2,267.1 311.1,263.4 312.0,254.4 312.9,254.2 313.8,263.8 314.7,267.2 315.6,257.3 316.5,249.9 317.5,253.2 318.4,262.4 319.3,261.9 320.2,256.2 321.1,254.5 322.0,262.9 322.9,267.0 323.8,259.2 324.7,252.2 325.6,255.1 326.5,260.3 327.4,259.6 328.3,252.0 329.2,248.2 330.2,255.7 331.1,259.3 332.0,253.0 332.9,246.2 333.8,247.5 334.7,255.1 335.6,254.5 336.5,247.7 337.4,245.9 338.3,254.3 339.2,262.8 340.1,258.8 341.0,250.6 342.0,251.2 342.9,258.7 343.8,262.9 344.7,255.8 345.6,250.6 346.5,255.8 347.4,263.8 348.3,263.2 349.2,256.5 350.1,254.2 351.0,260.2 351.9,265.0 352.8,260.1 353.7,254.3 354.7,257.3 355.6,265.4 356.5,265.9 357.4,261.5 358.3,257.6 359.2,262.5 360.1,267.9 361.0,262.9 361.9,256.6 362.8,257.5 363.7,263.3 364.6,264.1 365.5,255.9 366.4,251.4 367.4,258.9 368.3,266.3 369.2,260.8 370.1,253.6 371.0,254.8 371.9,263.5 372.8,269.3 373.7,262.6 374.6,255.0 375.5,260.3 376.4,270.1 377.3,268.5 378.2,259.9 379.1,256.8 380.1,265.5 381.0,271.9 381.9,264.7 382.8,258.3 383.7,260.3 384.6,268.0 385.5,269.4 386.4,264.8 387.3,260.1 388.2,266.4 389.1,270.9 390.0,268.0 390.9,264.3 391.9,263.3 392.8,266.7 393.7,270.3 394.6,264.3 395.5,258.9 396.4,262.2 397.3,266.2 398.2,264.2 399.1,258.5 400.0,255.8 400.9,261.7 401.8,265.3 402.7,261.2 403.6,256.8 404.6,258.9 405.5,263.7 406.4,264.6 407.3,259.0 408.2,252.3 409.1,257.5 410.0,262.5 410.9,261.1 411.8,254.8 412.7,253.1 413.6,258.4 414.5,263.9 415.4,256.2 416.3,250.1 417.3,252.6 418.2,259.7 419.1,261.5 420.0,256.8 420.9,252.7 421.8,257.3 422.7,260.5 423.6,258.5 424.5,254.2 425.4,254.1 426.3,257.5 427.2,262.2 428.1,258.9 429.0,254.0 430.0,257.2 430.9,260.9 431.8,260.3 432.7,255.3 433.6,251.3 434.5,252.7 435.4,256.2 436.3,252.1 437.2,250.7 438.1,250.0 439.0,252.2 439.9,254.8 440.8,252.2 441.8,249.1 442.7,250.2 443.6,254.7 444.5,256.3 445.4,253.1 446.3,249.5 447.2,248.9 448.1,251.2 449.0,250.8 449.9,249.7 450.8,249.0 451.7,252.5 452.6,256.9 453.5,256.6 454.5,254.2 455.4,255.0 456.3,259.6 457.2,261.0 458.1,258.6 459.0,255.0 459.9,259.0 460.8,263.1 461.7,260.6 462.6,256.7 463.5,254.6 464.4,258.8 465.3,260.9 466.2,258.4 467.2,253.4 468.1,253.2 469.0,259.1 469.9,262.6 470.8,258.6 471.7,254.9 472.6,257.7 473.5,261.4 474.4,260.4 475.3,256.1 476.2,252.7 477.1,256.0 478.0,262.2 478.9,260.7 479.9,258.6 480.8,259.3 481.7,261.4 482.6,264.1 483.5,261.0 484.4,256.4 485.3,259.3 486.2,264.5 487.1,264.5 488.0,259.8 488.9,256.8 489.8,260.4 490.7,264.5 491.7,261.1 492.6,256.6 493.5,254.2 494.4,257.5 495.3,260.1 496.2,256.5 497.1,253.3 498.0,254.4 498.9,260.7 499.8,257.7 500.7,253.1 501.6,249.0 502.5,251.4 503.4,256.8 504.4,254.8 505.3,251.1 506.2,251.2 507.1,254.4 508.0,256.6 508.9,254.0 509.8,251.1 510.7,252.7 511.6,257.3 512.5,259.6 513.4,257.1 514.3,253.1 515.2,256.5 516.1,259.0 517.1,257.5 518.0,252.6 518.9,249.8 519.8,253.4 520.7,253.9 521.6,253.3 522.5,252.5 523.4,252.0 524.3,255.4 525.2,256.0 526.1,253.3 527.0,250.9 527.9,252.6 528.8,254.4 529.8,253.9 530.7,251.6 531.6,251.3 532.5,253.3 533.4,256.2 534.3,254.1 535.2,251.4 536.1,251.3 537.0,251.9 537.9,253.6 538.8,253.0 539.7,254.4 540.6,255.3 541.6,257.5 542.5,259.2 543.4,257.2 544.3,255.3 545.2,256.3 546.1,259.9 547.0,259.8 547.9,258.8 548.8,258.8 549.7,259.7 550.6,261.2 551.5,260.4 552.4,258.8 553.3,256.7 554.3,258.4 555.2,258.7 556.1,259.6 557.0,260.1 557.9,260.7 558.8,262.4 559.7,264.7 560.6,263.6 561.5,262.2 562.4,262.9 563.3,263.3 564.2,263.7 565.1,263.3 566.0,261.9 567.0,263.0 567.9,263.0 568.8,262.6 569.7,262.5 570.6,261.7 571.5,263.3 572.4,263.6 573.3,262.9 574.2,262.5 575.1,262.6 576.0,263.2 576.9,263.2 577.8,262.4 578.7,261.9 579.7,262.3 580.6,264.1 581.5,264.8 582.4,263.7 583.3,262.1 584.2,261.8 585.1,262.9 586.0,263.1 586.9,262.1 587.8,262.3 588.7,263.1 589.6,262.4 590.5,262.1 591.5,262.4 592.4,260.7 593.3,258.6 594.2,258.4 595.1,258.7 596.0,259.4 596.9,258.7 597.8,256.9 598.7,256.2 599.6,255.8 600.5,256.9 601.4,256.9 602.3,253.0 603.2,250.3 604.2,252.7 605.1,255.7 606.0,254.7 606.9,251.0 607.8,249.1 608.7,253.1 609.6,256.7 610.5,253.6 611.4,249.3 612.3,249.1 613.2,252.3 614.1,257.6 615.0,254.3 615.9,248.3 616.9,249.0 617.8,254.9 618.7,261.4 619.6,258.5 620.5,251.4 621.4,251.6 622.3,258.7 623.2,263.7 624.1,260.6 625.0,252.2 625.9,252.6 626.8,259.8 627.7,265.4 628.6,262.2 629.6,253.8 630.5,253.6 631.4,260.1 632.3,265.7 633.2,261.3 634.1,254.4 635.0,254.7 635.9,262.0 636.8,267.9 637.7,263.6 638.6,254.0 639.5,251.5 640.4,258.7 641.4,264.7 642.3,262.9 643.2,254.5 644.1,250.3 645.0,258.1 645.9,264.7 646.8,264.6 647.7,255.7 648.6,252.6 649.5,259.4 650.4,264.9 651.3,262.8 652.2,255.5 653.1,252.4 654.1,258.2 655.0,264.2 655.9,262.1 656.8,254.4 657.7,252.1 658.6,259.4 659.5,267.8 660.4,268.3 661.3,261.0 662.2,256.4 663.1,263.6 664.0,269.9 664.9,268.5 665.8,262.0 666.8,257.2 667.7,262.6 668.6,268.7 669.5,268.6 670.4,260.8 671.3,256.0 672.2,263.1 673.1,269.4 674.0,269.7 674.9,263.7 675.8,260.9 676.7,266.4 677.6,272.3 678.5,270.5 679.5,262.6 680.4,258.3 681.3,263.2 682.2,267.1 683.1,268.4 684.0,261.7 684.9,255.1 685.8,259.5 686.7,267.5 687.6,267.8 688.5,260.7 689.4,255.9 690.3,260.6 691.3,266.4 692.2,268.2 693.1,260.4 694.0,254.5 694.9,260.2 695.8,264.1 696.7,265.2 697.6,258.2 698.5,253.4 699.4,258.1 700.3,265.0 701.2,267.2 702.1,259.5 703.0,256.3 704.0,263.3 704.9,267.5 705.8,267.2 706.7,260.9 707.6,256.7 708.5,260.5 709.4,267.5 710.3,268.7 711.2,262.1 712.1,257.5 713.0,263.2 713.9,268.8 714.8,270.9 715.7,264.4 716.7,260.6 717.6,267.2 718.5,272.3 719.4,272.6 720.3,266.6 721.2,261.3 722.1,266.9 723.0,270.5 723.9,271.7 724.8,264.2 725.7,259.2 726.6,265.7 727.5,271.8 728.4,272.7 729.4,265.9 730.3,260.7 731.2,264.1 732.1,267.8 733.0,268.4 733.9,260.5 734.8,254.8 735.7,259.3 736.6,265.3 737.5,266.3 738.4,258.9 739.3,252.6 740.2,257.7 741.2,262.7 742.1,262.4 743.0,256.6 743.9,251.2 744.8,258.0 745.7,262.7 746.6,262.7 747.5,256.9 748.4,252.4 749.3,258.4 750.2,262.1 751.1,262.0 752.0,253.8 752.9,250.0 753.9,255.1 754.8,259.2 755.7,261.8 756.6,254.2 757.5,248.2 758.4,253.1 759.3,257.8 760.2,259.8 761.1,253.4 762.0,246.9 762.9,252.5 763.8,259.2 764.7,259.8 765.6,252.8 766.6,247.1 767.5,254.2 768.4,259.7 769.3,260.1 770.2,252.4 771.1,246.3 772.0,254.2 772.9,261.6 773.8,264.8 774.7,257.9 775.6,254.3 776.5,262.1 777.4,267.2 778.3,269.8 779.3,264.5 780.2,259.5 781.1,265.2 782.0,269.8 782.9,271.0 783.8,267.5 784.7,264.0 785.6,269.0 786.5,274.5 787.4,275.6 788.3,268.5 789.2,262.8 790.1,267.8 791.1,271.9 792.0,273.9 792.9,267.2 793.8,263.3 794.7,268.3 795.6,272.5 796.5,273.7 797.4,266.8 798.3,260.4 799.2,263.6 800.1,268.8 801.0,269.8 801.9,263.8 802.8,259.1 803.8,264.6 804.7,270.9 805.6,271.1 806.5,264.1 807.4,259.1 808.3,264.2 809.2,269.8 810.1,271.6 811.0,265.5 811.9,260.4 812.8,266.4 813.7,271.1 814.6,272.0 815.5,264.8 816.5,257.9 817.4,263.5 818.3,269.2 819.2,269.7 820.1,263.9 821.0,260.1 821.9,265.4 822.8,271.1 823.7,272.3 824.6,264.4 825.5,258.8 826.4,263.1 827.3,268.3 828.2,268.1 829.2,262.0 830.1,256.5 831.0,262.0 831.9,266.8 832.8,266.4 833.7,261.1 834.6,256.1 835.5,261.4 836.4,267.4 837.3,267.9 838.2,263.2 839.1,257.2 840.0,260.7 840.9,265.1 841.9,263.7 842.8,258.6 843.7,253.5 844.6,259.1 845.5,264.6 846.4,266.1 847.3,259.6 848.2,255.5 849.1,259.7 850.0,265.4 850.9,266.6 851.8,260.0 852.7,255.4 853.7,260.0 854.6,265.6 855.5,265.7 856.4,259.2 857.3,254.2 858.2,259.4 859.1,263.9 860.0,265.1 860.9,259.4 861.8,254.9 862.7,262.4 863.6,269.4 864.5,268.3 865.4,261.1 866.4,257.2 867.3,261.8 868.2,266.1 869.1,266.6 870.0,259.3 870.9,253.2 871.8,258.1 872.7,262.8 873.6,264.9 874.5,256.4 875.4,252.3 876.3,258.9 877.2,264.5 878.1,266.1 879.1,259.5 880.0,253.6 880.9,259.6 881.8,264.5 882.7,265.0 883.6,259.2 884.5,253.3 885.4,258.2 886.3,263.5 887.2,264.3 888.1,257.6 889.0,252.7 889.9,258.9 890.8,265.1 891.8,265.5 892.7,260.9 893.6,255.7 894.5,261.2 895.4,265.5 896.3,269.4 897.2,262.3 898.1,256.5 899.0,261.5 899.9,265.0 900.8,266.5 901.7,260.8 902.6,256.9 903.6,262.6 904.5,269.7 905.4,270.8 906.3,264.6 907.2,260.0 908.1,267.2 909.0,273.2 909.9,272.0 910.8,264.9 911.7,260.2 912.6,265.2 913.5,270.8 914.4,269.4 915.3,263.2 916.3,258.6 917.2,263.5 918.1,268.9 919.0,270.8 919.9,263.2 920.8,257.5 921.7,264.4 922.6,268.8 923.5,267.8 924.4,260.1 925.3,255.6 926.2,260.4 927.1,265.0 928.0,265.3 929.0,258.8 929.9,252.0 930.8,256.2 931.7,262.0 932.6,262.7 933.5,255.3 934.4,249.7 935.3,254.8 936.2,262.1 937.1,263.8 938.0,257.3 938.9,252.4 939.8,255.9 940.7,260.1 941.7,262.5 942.6,257.1 943.5,250.8 944.4,257.3 945.3,262.8 946.2,264.1 947.1,256.2 948.0,251.3 948.9,257.3 949.8,263.3 950.7,264.1 951.6,257.3 952.5,253.6 953.5,258.7 954.4,264.6 955.3,266.0 956.2,260.5 957.1,256.5 958.0,261.9 958.9,267.4 959.8,267.7 960.7,261.5 961.6,256.2 962.5,262.3 963.4,266.6 964.3,266.1 965.2,258.5 966.2,253.2 967.1,260.3 968.0,266.2 968.9,269.4 969.8,260.8 970.7,254.3 971.6,259.9 972.5,265.7 973.4,267.2 974.3,260.4 975.2,257.2 976.1,262.0 977.0,268.1 977.9,267.5 978.9,260.0 979.8,255.9 980.7,260.7 981.6,266.0 982.5,268.2 983.4,261.4 984.3,257.6 985.2,264.2 986.1,270.1 987.0,273.7 987.9,266.7 988.8,261.4 989.7,266.0 990.6,268.6 991.6,270.5 992.5,266.5 993.4,261.9 994.3,267.0 995.2,271.8 996.1,272.1 997.0,264.3 997.9,258.0 998.8,262.3 999.7,269.4 1000.6,270.1 1001.5,262.7 1002.4,258.5 1003.4,263.7 1004.3,268.5 1005.2,270.6 1006.1,263.3 1007.0,257.7 1007.9,263.4 1008.8,266.4 1009.7,267.5 1010.6,261.0 1011.5,256.1 1012.4,261.9 1013.3,266.9 1014.2,266.7 1015.1,258.0 1016.1,252.8 1017.0,259.2 1017.9,266.0 1018.8,266.5 1019.7,261.5 1020.6,258.5 1021.5,262.4 1022.4,268.0 1023.3,269.2 1024.2,261.3 1025.1,256.3 1026.0,261.5 1026.9,266.2 1027.8,266.7 1028.8,260.6 1029.7,256.0 1030.6,262.2 1031.5,267.6 1032.4,267.9 1033.3,260.4 1034.2,255.7 1035.1,262.3 1036.0,267.0 1036.9,268.9 1037.8,262.7 1038.7,256.4 1039.6,261.2 1040.5,267.0 1041.5,268.1 1042.4,258.8 1043.3,253.8 1044.2,259.4 1045.1,264.3 1046.0,266.0 1046.9,259.3 1047.8,254.1 1048.7,259.5 1049.6,264.1 1050.5,264.2 1051.4,258.1 1052.3,253.8 1053.3,259.4 1054.2,265.5 1055.1,268.4 1056.0,261.4 1056.9,255.8 1057.8,262.1 1058.7,266.7 1059.6,266.3 1060.5,260.1 1061.4,255.4 1062.3,260.8 1063.2,265.4 1064.1,267.9 1065.0,262.5 1066.0,256.9 1066.9,262.0 1067.8,266.9 1068.7,268.1 1069.6,262.2 1070.5,259.5 1071.4,265.0 1072.3,270.6 1073.2,269.9 1074.1,264.1 1075.0,258.3 1075.9,264.2 1076.8,269.2 1077.7,271.1 1078.7,264.4 1079.6,258.2 1080.5,265.3 1081.4,271.8 1082.3,273.6 1083.2,265.2 1084.1,259.2 1085.0,265.8 1085.9,270.5 1086.8,270.4 1087.7,265.8 1088.6,260.6 1089.5,266.3 1090.4,272.4 1091.4,271.7 1092.3,263.3 1093.2,258.9 1094.1,263.6 1095.0,270.1 1095.9,268.4 1096.8,262.1 1097.7,257.1 1098.6,261.7 1099.5,266.1 1100.4,267.0 1101.3,259.7 1102.2,254.4 1103.2,259.6 1104.1,264.5 1105.0,268.1 1105.9,262.8 1106.8,258.0 1107.7,262.6 1108.6,268.6 1109.5,269.1 1110.4,263.3 1111.3,257.9 1112.2,262.8 1113.1,268.6 1114.0,268.7 1114.9,262.3 1115.9,257.6 1116.8,260.9 1117.7,266.1 1118.6,266.9 1119.5,259.1 1120.4,253.0 1121.3,258.3 1122.2,264.1 1123.1,266.9 1124.0,259.9 1124.9,254.2 1125.8,259.9 1126.7,264.1 1127.6,264.7 1128.6,257.7 1129.5,254.0 1130.4,259.4 1131.3,264.6 1132.2,264.5 1133.1,258.5 1134.0,252.6 1134.9,258.2 1135.8,264.5 1136.7,265.7 1137.6,260.4 1138.5,256.6 1139.4,263.8 1140.3,269.2 1141.3,271.2 1142.2,265.8 1143.1,261.8 1144.0,267.0 1144.9,272.5 1145.8,272.4 1146.7,265.4 1147.6,260.7 1148.5,266.2 1149.4,271.7 1150.3,272.6 1151.2,265.7 1152.1,260.0 1153.1,263.3 1154.0,269.3 1154.9,270.3 1155.8,264.8 1156.7,259.8 1157.6,265.1 1158.5,268.5 1159.4,267.7 1160.3,260.8 1161.2,256.0 1162.1,261.1 1163.0,266.7 1163.9,267.8 1164.8,261.2 1165.8,256.3 1166.7,260.4 1167.6,265.7 1168.5,267.9 1169.4,260.0 1170.3,255.3 1171.2,259.6 1172.1,264.2 1173.0,265.0 1173.9,259.5 1174.8,256.5 1175.7,262.1 1176.6,266.1 1177.5,266.1 1178.5,260.0 1179.4,253.9 1180.3,259.9 1181.2,265.7 1182.1,268.8 1183.0,262.0 1183.9,258.0 1184.8,262.7 1185.7,267.3 1186.6,267.5 1187.5,260.5 1188.4,257.1 1189.3,263.8 1190.2,267.8 1191.2,269.2 1192.1,261.5 1193.0,255.9 1193.9,261.6 1194.8,267.9 1195.7,267.5 1196.6,260.3 1197.5,254.6 1198.4,261.0 1199.3,265.9 1200.2,267.8 1201.1,262.1 1202.0,256.6 1203.0,263.3 1203.9,267.7 1204.8,267.8 1205.7,260.2 1206.6,254.7 1207.5,259.2 1208.4,265.1 1209.3,267.5 1210.2,260.0 1211.1,255.9 1212.0,262.1 1212.9,266.7 1213.8,267.5 1214.7,261.2 1215.7,256.3 1216.6,260.8 1217.5,267.4 1218.4,268.4 1219.3,262.2 1220.2,256.3 1221.1,261.1 1222.0,265.3 1222.9,266.3 1223.8,261.1 1224.7,254.6 1225.6,259.7 1226.5,265.5 1227.4,265.9 1228.4,258.9 1229.3,253.6 1230.2,258.4 1231.1,263.2 1232.0,264.3 1232.9,256.6 1233.8,252.2 1234.7,259.4 1235.6,265.6 1236.5,266.5 1237.4,261.2 1238.3,254.4 1239.2,258.8 1240.1,263.6 1241.1,265.7 1242.0,259.9 1242.9,257.3 1243.8,262.5 1244.7,266.5 1245.6,267.6 1246.5,260.3 1247.4,254.6 1248.3,259.3 1249.2,264.9 1250.1,267.2 1251.0,261.7 1251.9,257.3 1252.9,262.1 1253.8,267.0 1254.7,268.2 1255.6,262.0 1256.5,257.0 1257.4,262.2 1258.3,268.8 1259.2,269.3 1260.1,264.5 1261.0,260.9 1261.9,265.9 1262.8,270.0 1263.7,270.7 1264.6,262.7 1265.6,256.2 1266.5,262.9 1267.4,267.7 1268.3,271.0 1269.2,264.2 1270.1,260.5 1271.0,266.3 1271.9,269.5 1272.8,271.7 1273.7,264.3 1274.6,260.7 1275.5,265.9 1276.4,270.9 1277.3,271.2 1278.3,264.5 1279.2,258.5 1280.1,262.6 1281.0,267.9 1281.9,268.2 1282.8,260.6 1283.7,254.8 1284.6,260.6 1285.5,264.9 1286.4,264.4 1287.3,259.8 1288.2,256.1 1289.1,260.7 1290.0,264.8 1291.0,265.0 1291.9,256.3 1292.8,252.8 1293.7,259.6 1294.6,263.6 1295.5,263.8 1296.4,257.5 1297.3,253.1 1298.2,259.3 1299.1,264.5 1300.0,263.2 1300.9,258.0 1301.8,253.6 1302.8,258.5 1303.7,266.1 1304.6,266.9 1305.5,262.4 1306.4,256.1 1307.3,263.0 1308.2,269.9 1309.1,268.9 1310.0,259.3 1310.9,255.4 1311.8,260.2 1312.7,267.4 1313.6,270.3 1314.5,262.5 1315.5,256.5 1316.4,262.4 1317.3,269.8 1318.2,269.5 1319.1,263.3 1320.0,258.1 1320.9,264.4 1321.8,271.1 1322.7,271.3 1323.6,265.6 1324.5,261.6 1325.4,265.3 1326.3,270.3 1327.2,271.3 1328.2,263.9 1329.1,259.0 1330.0,264.7 1330.9,271.0 1331.8,272.7 1332.7,263.8 1333.6,260.4 1334.5,265.8 1335.4,269.5 1336.3,270.6 1337.2,265.1 1338.1,258.5 1339.0,263.1 1339.9,268.9 1340.9,268.6 1341.8,262.3 1342.7,256.0 1343.6,261.3 1344.5,267.7 1345.4,268.3 1346.3,259.3 1347.2,255.3 1348.1,261.9 1349.0,266.7 1349.9,268.2 1350.8,261.2 1351.7,256.4 1352.7,262.2 1353.6,267.7 1354.5,269.8 1355.4,261.3 1356.3,255.4 1357.2,261.7 1358.1,267.7 1359.0,268.6 1359.9,263.2 1360.8,258.8 1361.7,264.3 1362.6,270.1 1363.5,269.2 1364.4,262.5 1365.4,258.3 1366.3,262.5 1367.2,267.8 1368.1,269.1 1369.0,262.0 1369.9,254.5 1370.8,258.3 1371.7,265.4 1372.6,265.0 1373.5,256.7 1374.4,251.4 1375.3,256.9 1376.2,261.9 1377.1,263.8 1378.1,256.5 1379.0,250.3 1379.9,254.9 1380.8,259.5 1381.7,259.8 1382.6,251.0 1383.5,246.3 1384.4,252.3 1385.3,257.8 1386.2,259.2 1387.1,252.5 1388.0,247.1 1388.9,252.0 1389.8,258.2 1390.8,259.1 1391.7,254.5 1392.6,250.2 1393.5,254.4 1394.4,261.5 1395.3,262.3 1396.2,256.3 1397.1,251.8 1398.0,258.2 1398.9,263.4 1399.8,263.9 1400.7,259.5 1401.6,254.4 1402.6,260.6 1403.5,266.4 1404.4,268.3 1405.3,260.7 1406.2,255.5 1407.1,261.8 1408.0,267.0 1408.9,267.7 1409.8,259.4 1410.7,253.2 1411.6,257.2 1412.5,265.3 1413.4,267.4 1414.3,260.6 1415.3,255.0 1416.2,259.9 1417.1,270.0 1418.0,272.0 1418.9,264.1 1419.8,257.3 1420.7,262.2 1421.6,269.3 1422.5,270.7 1423.4,262.9 1424.3,256.2 1425.2,260.7 1426.1,266.7 1427.0,269.9 1428.0,262.3 1428.9,256.1 1429.8,262.3 1430.7,267.8 1431.6,271.9 1432.5,265.3 1433.4,262.4 1434.3,265.3 1435.2,270.3 1436.1,271.5 1437.0,264.9 1437.9,260.0 1438.8,262.4 1439.7,267.3 1440.7,268.8 1441.6,263.0 1442.5,259.2 1443.4,264.5 1444.3,268.0 1445.2,267.6 1446.1,262.8 1447.0,260.6 1447.9,264.1 1448.8,267.3 1449.7,268.2 1450.6,263.3 1451.5,257.3 1452.5,262.2 1453.4,265.7 1454.3,267.6 1455.2,261.2 1456.1,256.1 1457.0,260.7 1457.9,266.8 1458.8,268.8 1459.7,260.3 1460.6,255.0 1461.5,260.0 1462.4,266.4 1463.3,267.6 1464.2,260.4 1465.2,255.5 1466.1,261.9 1467.0,270.2 1467.9,270.5 1468.8,261.0 1469.7,257.7 1470.6,261.9 1471.5,267.9 1472.4,266.2 1473.3,259.9 1474.2,255.2 1475.1,262.0 1476.0,267.8 1476.9,267.0 1477.9,259.4 1478.8,254.1 1479.7,259.2 1480.6,263.8 1481.5,266.7 1482.4,260.3 1483.3,255.6 1484.2,260.0 1485.1,266.8 1486.0,267.2 1486.9,259.3 1487.8,253.4 1488.7,257.6 1489.6,263.7 1490.6,265.4 1491.5,257.7 1492.4,254.1 1493.3,259.2 1494.2,267.4 1495.1,267.7 1496.0,260.8"/>
<text x="1220.0" y="244.0" fill="#0f766e" font-size="13" font-family="Inter, Arial, sans-serif" text-anchor="start" font-weight="700">gentle: no clean settle in window</text>
<polyline fill="none" stroke="#2563eb" stroke-width="3.0" points="136.0,289.8 136.9,236.3 137.8,199.8 138.7,232.5 139.6,257.4 140.5,253.9 141.4,229.4 142.4,236.8 143.3,256.4 144.2,260.8 145.1,249.6 146.0,239.6 146.9,250.3 147.8,256.6 148.7,252.6 149.6,243.8 150.5,246.0 151.4,255.5 152.3,256.7 153.2,252.2 154.1,249.5 155.1,254.2 156.0,259.1 156.9,255.8 157.8,248.2 158.7,251.3 159.6,263.1 160.5,259.9 161.4,249.9 162.3,248.7 163.2,260.9 164.1,263.3 165.0,254.6 165.9,245.9 166.8,247.0 167.8,257.6 168.7,255.1 169.6,247.5 170.5,243.8 171.4,247.7 172.3,252.2 173.2,248.0 174.1,245.0 175.0,242.0 175.9,246.8 176.8,249.7 177.7,244.9 178.6,241.9 179.5,244.5 180.5,247.7 181.4,246.4 182.3,246.2 183.2,245.7 184.1,243.9 185.0,243.1 185.9,244.0 186.8,245.8 187.7,247.2 188.6,248.9 189.5,248.1 190.4,250.9 191.3,253.4 192.3,254.7 193.2,252.9 194.1,250.8 195.0,252.1 195.9,253.0 196.8,254.3 197.7,248.1 198.6,244.2 199.5,249.1 200.4,253.5 201.3,250.9 202.2,246.8 203.1,249.2 204.0,252.5 205.0,256.6 205.9,253.8 206.8,246.3 207.7,246.4 208.6,250.0 209.5,255.4 210.4,252.3 211.3,245.2 212.2,244.6 213.1,251.6 214.0,255.4 214.9,252.8 215.8,249.3 216.7,251.8 217.7,254.3 218.6,256.2 219.5,254.4 220.4,249.1 221.3,250.0 222.2,255.7 223.1,259.8 224.0,256.1 224.9,243.0 225.8,242.9 226.7,251.9 227.6,260.0 228.5,258.3 229.4,249.7 230.4,249.4 231.3,255.8 232.2,261.4 233.1,259.0 234.0,248.7 234.9,247.2 235.8,254.2 236.7,261.9 237.6,258.7 238.5,245.5 239.4,241.0 240.3,249.6 241.2,261.3 242.2,263.1 243.1,251.6 244.0,242.4 244.9,247.1 245.8,257.9 246.7,265.6 247.6,259.4 248.5,246.4 249.4,245.1 250.3,257.3 251.2,262.5 252.1,257.3 253.0,244.0 253.9,239.0 254.9,247.5 255.8,257.3 256.7,253.0 257.6,242.4 258.5,234.4 259.4,239.3 260.3,252.3 261.2,257.8 262.1,250.2 263.0,237.7 263.9,233.2 264.8,242.7 265.7,255.0 266.6,251.8 267.6,240.8 268.5,232.2 269.4,233.0 270.3,241.6 271.2,247.5 272.1,240.8 273.0,235.3 273.9,231.2 274.8,234.0 275.7,242.7 276.6,245.4 277.5,242.1 278.4,238.4 279.3,237.4 280.3,239.7 281.2,240.7 282.1,240.3 283.0,238.0 283.9,237.5 284.8,238.2 285.7,238.2 286.6,235.9 287.5,235.9 288.4,239.5 289.3,242.8 290.2,244.0 291.1,242.2 292.1,241.5 293.0,242.9 293.9,244.1 294.8,246.8 295.7,248.4 296.6,245.9 297.5,242.2 298.4,243.1 299.3,245.2 300.2,248.3 301.1,249.8 302.0,248.4 302.9,245.6 303.8,246.1 304.8,248.1 305.7,250.3 306.6,252.1 307.5,250.3 308.4,245.8 309.3,242.7 310.2,245.8 311.1,249.7 312.0,254.2 312.9,253.5 313.8,245.3 314.7,238.0 315.6,243.4 316.5,249.9 317.5,255.8 318.4,259.6 319.3,253.5 320.2,240.7 321.1,240.9 322.0,248.9 322.9,255.8 323.8,259.7 324.7,256.1 325.6,243.8 326.5,239.7 327.4,246.4 328.3,254.3 329.2,260.2 330.2,260.3 331.1,249.5 332.0,238.4 332.9,238.3 333.8,245.0 334.7,253.7 335.6,259.0 336.5,255.3 337.4,242.3 338.3,232.8 339.2,232.1 340.1,240.8 341.0,250.9 342.0,256.0 342.9,249.9 343.8,238.3 344.7,231.2 345.6,233.2 346.5,243.7 347.4,254.4 348.3,256.8 349.2,248.6 350.1,239.3 351.0,233.6 351.9,232.6 352.8,240.0 353.7,250.5 354.7,252.5 355.6,246.5 356.5,241.3 357.4,238.0 358.3,235.4 359.2,239.4 360.1,248.3 361.0,253.9 361.9,249.7 362.8,244.2 363.7,240.6 364.6,237.0 365.5,241.2 366.4,250.2 367.4,255.6 368.3,250.8 369.2,244.7 370.1,240.6 371.0,237.2 371.9,240.6 372.8,249.5 373.7,261.1 374.6,263.1 375.5,255.8 376.4,247.1 377.3,241.3 378.2,236.2 379.1,241.9 380.1,254.2 381.0,261.4 381.9,258.3 382.8,251.7 383.7,245.1 384.6,241.2 385.5,239.3 386.4,244.3 387.3,248.7 388.2,249.4 389.1,246.3 390.0,244.7 390.9,242.6 391.9,240.8 392.8,240.0 393.7,241.1 394.6,242.9 395.5,241.8 396.4,241.8 397.3,243.8 398.2,244.8 399.1,244.7 400.0,245.3 400.9,243.8 401.8,241.3 402.7,243.3 403.6,245.3 404.6,245.0 405.5,248.8 406.4,248.6 407.3,248.9 408.2,244.6 409.1,240.6 410.0,239.6 410.9,244.4 411.8,247.3 412.7,249.2 413.6,253.6 414.5,257.0 415.4,251.7 416.3,245.5 417.3,242.7 418.2,247.6 419.1,251.8 420.0,257.4 420.9,262.3 421.8,264.8 422.7,259.6 423.6,249.8 424.5,236.4 425.4,233.5 426.3,238.1 427.2,245.6 428.1,255.0 429.0,261.6 430.0,266.0 430.9,263.8 431.8,253.3 432.7,240.0 433.6,230.5 434.5,229.4 435.4,232.0 436.3,242.1 437.2,253.1 438.1,258.6 439.0,254.0 439.9,243.4 440.8,234.4 441.8,226.6 442.7,221.2 443.6,220.0 444.5,223.9 445.4,232.4 446.3,244.0 447.2,249.4 448.1,248.9 449.0,243.9 449.9,239.4 450.8,234.6 451.7,231.7 452.6,228.7 453.5,230.4 454.5,229.9 455.4,229.7 456.3,226.0 457.2,219.1 458.1,210.8 459.0,208.6 459.9,211.8 460.8,219.2 461.7,226.1 462.6,232.8 463.5,240.2 464.4,245.5 465.3,248.5 466.2,247.0 467.2,239.6 468.1,231.0 469.0,220.8 469.9,214.0 470.8,208.4 471.7,204.4 472.6,201.6 473.5,200.1 474.4,200.1 475.3,200.2 476.2,201.4 477.1,204.7 478.0,206.6 478.9,208.9 479.9,209.0 480.8,204.3 481.7,197.1 482.6,187.7 483.5,183.0 484.4,178.5 485.3,175.5 486.2,175.6 487.1,177.8 488.0,181.2 488.9,187.0 489.8,192.3 490.7,198.5 491.7,202.9 492.6,208.7 493.5,214.8 494.4,225.1 495.3,233.7 496.2,242.8 497.1,251.8 498.0,261.7 498.9,267.9 499.8,275.5 500.7,281.9 501.6,288.8 502.5,296.4 503.4,301.0 504.4,308.7 505.3,314.4 506.2,321.8 507.1,328.7 508.0,336.8 508.9,343.3 509.8,348.7 510.7,354.7 511.6,359.3 512.5,364.5 513.4,370.5 514.3,374.4 515.2,378.9 516.1,382.7 517.1,386.2 518.0,387.4 518.9,390.4 519.8,391.9 520.7,395.6 521.6,399.6 522.5,402.3 523.4,403.5 524.3,405.2 525.2,406.9 526.1,409.0 527.0,411.1 527.9,413.3 528.8,414.9 529.8,414.8 530.7,415.2 531.6,415.4 532.5,415.4 533.4,415.2 534.3,415.4 535.2,415.3 536.1,417.2 537.0,418.2 537.9,418.2 538.8,418.3 539.7,420.9 540.6,420.2 541.6,421.7 542.5,421.9 543.4,422.1 544.3,423.2 545.2,423.6 546.1,422.5 547.0,423.2 547.9,423.8 548.8,424.3 549.7,424.4 550.6,424.4 551.5,424.7 552.4,424.8 553.3,426.0 554.3,426.4 555.2,427.0 556.1,426.5 557.0,426.6 557.9,425.9 558.8,425.6 559.7,425.3 560.6,425.8 561.5,425.2 562.4,426.3 563.3,425.0 564.2,424.6 565.1,425.3 566.0,425.0 567.0,424.3 567.9,425.1 568.8,426.3 569.7,425.9 570.6,426.3 571.5,425.4 572.4,424.7 573.3,424.7 574.2,424.6 575.1,424.3 576.0,424.0 576.9,424.0 577.8,424.6 578.7,424.9 579.7,424.6 580.6,424.3 581.5,424.4 582.4,424.7 583.3,424.6 584.2,424.0 585.1,424.9 586.0,425.6 586.9,425.3 587.8,424.9 588.7,425.3 589.6,425.4 590.5,425.0 591.5,424.8 592.4,423.4 593.3,423.5 594.2,423.0 595.1,423.2 596.0,422.6 596.9,423.0 597.8,423.5 598.7,422.7 599.6,423.3 600.5,423.2 601.4,423.3 602.3,424.3 603.2,424.6 604.2,424.6 605.1,425.0 606.0,424.9 606.9,424.8 607.8,424.5 608.7,424.1 609.6,424.3 610.5,424.7 611.4,424.3 612.3,424.5 613.2,424.7 614.1,424.6 615.0,425.4 615.9,426.8 616.9,426.3 617.8,425.8 618.7,424.6 619.6,424.1 620.5,424.4 621.4,424.2 622.3,423.5 623.2,423.2 624.1,422.5 625.0,421.9 625.9,420.3 626.8,420.2 627.7,420.4 628.6,420.3 629.6,420.7 630.5,420.6 631.4,420.6 632.3,419.7 633.2,420.5 634.1,419.6 635.0,419.8 635.9,420.8 636.8,420.2 637.7,418.7 638.6,418.7 639.5,419.6 640.4,419.8 641.4,420.9 642.3,420.3 643.2,418.8 644.1,419.2 645.0,419.9 645.9,420.2 646.8,420.5 647.7,422.4 648.6,422.7 649.5,422.8 650.4,422.3 651.3,421.4 652.2,421.4 653.1,421.4 654.1,420.9 655.0,420.7 655.9,421.3 656.8,420.8 657.7,420.5 658.6,420.5 659.5,421.3 660.4,421.8 661.3,421.5 662.2,422.4 663.1,421.9 664.0,422.9 664.9,423.7 665.8,424.6 666.8,425.0 667.7,424.2 668.6,423.7 669.5,423.4 670.4,422.8 671.3,422.8 672.2,423.8 673.1,424.2 674.0,423.6 674.9,423.3 675.8,423.9 676.7,423.1 677.6,423.2 678.5,422.7 679.5,423.1 680.4,423.6 681.3,424.0 682.2,423.3 683.1,423.6 684.0,422.8 684.9,422.6 685.8,420.9 686.7,420.6 687.6,419.9 688.5,419.8 689.4,420.7 690.3,421.2 691.3,421.3 692.2,421.6 693.1,420.3 694.0,420.2 694.9,419.9 695.8,420.6 696.7,420.3 697.6,421.1 698.5,421.9 699.4,421.4 700.3,422.1 701.2,421.8 702.1,421.2 703.0,419.8 704.0,420.8 704.9,420.4 705.8,420.6 706.7,420.4 707.6,422.2 708.5,422.5 709.4,421.4 710.3,420.4 711.2,420.4 712.1,420.5 713.0,420.2 713.9,419.6 714.8,420.4 715.7,420.1 716.7,420.3 717.6,421.0 718.5,421.4 719.4,421.4 720.3,421.7 721.2,422.3 722.1,422.3 723.0,422.3 723.9,421.9 724.8,422.6 725.7,422.2 726.6,422.2 727.5,422.9 728.4,423.7 729.4,423.0 730.3,423.0 731.2,423.4 732.1,423.6 733.0,423.2 733.9,422.0 734.8,422.3 735.7,422.2 736.6,421.7 737.5,422.1 738.4,422.5 739.3,422.1 740.2,422.1 741.2,421.6 742.1,420.5 743.0,420.8 743.9,421.3 744.8,421.9 745.7,421.8 746.6,421.8 747.5,421.0 748.4,421.2 749.3,421.0 750.2,419.4 751.1,419.2 752.0,418.2 752.9,418.7 753.9,418.0 754.8,417.1 755.7,417.5 756.6,416.1 757.5,415.9 758.4,416.2 759.3,415.9 760.2,415.4 761.1,415.6 762.0,415.4 762.9,415.2 763.8,416.5 764.7,416.3 765.6,415.9 766.6,415.3 767.5,416.6 768.4,417.4 769.3,418.1 770.2,417.2 771.1,417.4 772.0,418.9 772.9,418.9 773.8,419.1 774.7,418.2 775.6,419.6 776.5,421.2 777.4,421.4 778.3,422.9 779.3,423.2 780.2,424.3 781.1,423.8 782.0,424.7 782.9,423.6 783.8,422.7 784.7,422.7 785.6,422.2 786.5,422.5 787.4,422.3 788.3,422.4 789.2,422.2 790.1,422.0 791.1,421.5 792.0,422.2 792.9,421.7 793.8,420.4 794.7,420.9 795.6,421.8 796.5,422.6 797.4,422.3 798.3,422.0 799.2,420.3 800.1,419.6 801.0,418.9 801.9,418.1 802.8,418.5 803.8,418.4 804.7,419.1 805.6,419.9 806.5,420.2 807.4,420.3 808.3,419.6 809.2,418.8 810.1,418.5 811.0,418.2 811.9,418.4 812.8,418.7 813.7,418.9 814.6,418.6 815.5,419.1 816.5,418.3 817.4,418.1 818.3,417.2 819.2,417.1 820.1,416.1 821.0,418.5 821.9,418.9 822.8,420.3 823.7,419.4 824.6,418.9 825.5,418.5 826.4,417.8 827.3,418.3 828.2,417.1 829.2,416.9 830.1,417.4 831.0,418.3 831.9,419.1 832.8,418.7 833.7,417.6 834.6,418.1 835.5,418.2 836.4,418.7 837.3,419.4 838.2,420.3 839.1,420.0 840.0,420.2 840.9,419.4 841.9,419.0 842.8,418.3 843.7,418.7 844.6,418.1 845.5,418.8 846.4,419.2 847.3,419.9 848.2,420.4 849.1,419.4 850.0,421.7 850.9,421.2 851.8,420.9 852.7,421.2 853.7,420.0 854.6,419.5 855.5,420.2 856.4,420.4 857.3,420.2 858.2,419.5 859.1,419.7 860.0,419.4 860.9,420.3 861.8,421.4 862.7,422.7 863.6,424.3 864.5,424.3 865.4,424.0 866.4,422.4 867.3,422.9 868.2,422.2 869.1,420.9 870.0,421.7 870.9,421.5 871.8,420.1 872.7,421.1 873.6,421.4 874.5,420.4 875.4,420.6 876.3,422.1 877.2,422.5 878.1,421.8 879.1,421.8 880.0,422.4 880.9,422.3 881.8,422.6 882.7,422.0 883.6,421.8 884.5,421.9 885.4,421.0 886.3,421.0 887.2,421.1 888.1,422.1 889.0,422.6 889.9,423.0 890.8,422.6 891.8,421.8 892.7,423.1 893.6,423.4 894.5,423.2 895.4,423.4 896.3,423.1 897.2,423.4 898.1,423.1 899.0,422.6 899.9,422.6 900.8,422.1 901.7,422.5 902.6,421.7 903.6,421.6 904.5,421.3 905.4,421.5 906.3,421.2 907.2,422.2 908.1,422.6 909.0,422.4 909.9,423.2 910.8,421.6 911.7,421.8 912.6,422.9 913.5,423.1 914.4,422.0 915.3,422.6 916.3,422.2 917.2,421.1 918.1,421.0 919.0,421.0 919.9,420.1 920.8,419.7 921.7,420.1 922.6,421.1 923.5,418.8 924.4,418.5 925.3,417.9 926.2,418.4 927.1,418.8 928.0,418.9 929.0,418.9 929.9,418.3 930.8,417.2 931.7,417.0 932.6,418.4 933.5,418.3 934.4,418.2 935.3,417.3 936.2,418.8 937.1,419.0 938.0,418.6 938.9,419.3 939.8,420.2 940.7,419.7 941.7,420.4 942.6,421.4 943.5,420.8 944.4,420.7 945.3,421.5 946.2,422.5 947.1,423.3 948.0,423.6 948.9,423.1 949.8,423.1 950.7,423.4 951.6,423.4 952.5,424.5 953.5,424.5 954.4,424.2 955.3,424.7 956.2,424.6 957.1,424.8 958.0,424.7 958.9,424.4 959.8,425.2 960.7,425.5 961.6,425.5 962.5,426.2 963.4,426.1 964.3,425.9 965.2,425.3 966.2,424.9 967.1,426.0 968.0,425.5 968.9,423.6 969.8,422.9 970.7,422.9 971.6,422.5 972.5,421.9 973.4,422.2 974.3,422.3 975.2,421.5 976.1,420.9 977.0,421.0 977.9,420.0 978.9,420.7 979.8,419.6 980.7,419.0 981.6,418.3 982.5,417.9 983.4,418.2 984.3,417.7 985.2,418.1 986.1,418.3 987.0,418.9 987.9,419.2 988.8,419.4 989.7,419.5 990.6,420.7 991.6,421.4 992.5,421.0 993.4,420.9 994.3,420.2 995.2,419.7 996.1,419.6 997.0,420.9 997.9,420.2 998.8,419.0 999.7,420.2 1000.6,419.9 1001.5,420.9 1002.4,421.4 1003.4,421.9 1004.3,422.3 1005.2,422.3 1006.1,422.2 1007.0,421.9 1007.9,422.1 1008.8,422.0 1009.7,421.9 1010.6,422.3 1011.5,422.5 1012.4,422.9 1013.3,422.4 1014.2,423.0 1015.1,421.9 1016.1,422.4 1017.0,422.9 1017.9,422.1 1018.8,422.3 1019.7,423.8 1020.6,424.0 1021.5,423.3 1022.4,423.9 1023.3,423.3 1024.2,423.5 1025.1,423.4 1026.0,423.3 1026.9,423.6 1027.8,424.4 1028.8,424.6 1029.7,424.4 1030.6,424.5 1031.5,424.5 1032.4,423.7 1033.3,423.7 1034.2,424.3 1035.1,424.7 1036.0,424.6 1036.9,424.4 1037.8,425.2 1038.7,424.2 1039.6,425.1 1040.5,423.9 1041.5,423.5 1042.4,423.3 1043.3,423.8 1044.2,423.4 1045.1,423.6 1046.0,423.9 1046.9,423.5 1047.8,423.9 1048.7,423.5 1049.6,423.3 1050.5,423.2 1051.4,422.1 1052.3,422.6 1053.3,422.5 1054.2,422.7 1055.1,421.4 1056.0,421.1 1056.9,421.5 1057.8,421.7 1058.7,422.3 1059.6,421.4 1060.5,422.0 1061.4,421.9 1062.3,423.1 1063.2,423.0 1064.1,424.0 1065.0,424.2 1066.0,424.2 1066.9,424.4 1067.8,423.9 1068.7,424.8 1069.6,424.2 1070.5,422.8 1071.4,422.7 1072.3,422.3 1073.2,423.7 1074.1,423.4 1075.0,422.4 1075.9,422.2 1076.8,422.9 1077.7,422.3 1078.7,422.4 1079.6,421.9 1080.5,422.7 1081.4,422.8 1082.3,423.6 1083.2,423.1 1084.1,422.2 1085.0,422.4 1085.9,422.5 1086.8,422.4 1087.7,421.3 1088.6,421.3 1089.5,421.0 1090.4,419.7 1091.4,419.3 1092.3,420.7 1093.2,421.1 1094.1,420.4 1095.0,419.1 1095.9,418.7 1096.8,420.4 1097.7,420.2 1098.6,421.2 1099.5,421.3 1100.4,421.5 1101.3,420.9 1102.2,421.0 1103.2,421.3 1104.1,421.2 1105.0,420.5 1105.9,420.9 1106.8,420.6 1107.7,419.6 1108.6,419.9 1109.5,420.4 1110.4,420.2 1111.3,421.0 1112.2,421.6 1113.1,421.6 1114.0,420.6 1114.9,420.6 1115.9,421.1 1116.8,420.4 1117.7,420.3 1118.6,420.0 1119.5,419.9 1120.4,419.1 1121.3,419.0 1122.2,418.5 1123.1,419.1 1124.0,419.4 1124.9,419.3 1125.8,418.5 1126.7,419.8 1127.6,420.0 1128.6,419.7 1129.5,421.1 1130.4,421.0 1131.3,421.1 1132.2,421.3 1133.1,420.9 1134.0,420.8 1134.9,420.6 1135.8,421.2 1136.7,420.5 1137.6,420.7 1138.5,422.5 1139.4,423.3 1140.3,423.7 1141.3,424.0 1142.2,424.4 1143.1,423.0 1144.0,422.9 1144.9,422.4 1145.8,421.3 1146.7,421.1 1147.6,421.0 1148.5,421.4 1149.4,420.8 1150.3,421.7 1151.2,420.4 1152.1,420.4 1153.1,419.4 1154.0,419.0 1154.9,419.0 1155.8,419.0 1156.7,419.3 1157.6,420.0 1158.5,419.2 1159.4,418.7 1160.3,418.3 1161.2,418.1 1162.1,416.7 1163.0,416.6 1163.9,416.5 1164.8,417.4 1165.8,417.3 1166.7,417.2 1167.6,417.1 1168.5,417.5 1169.4,417.6 1170.3,416.4 1171.2,416.1 1172.1,415.6 1173.0,416.5 1173.9,416.3 1174.8,417.9 1175.7,418.7 1176.6,418.7 1177.5,418.0 1178.5,418.7 1179.4,417.6 1180.3,418.3 1181.2,419.0 1182.1,418.1 1183.0,418.4 1183.9,418.7 1184.8,418.7 1185.7,419.3 1186.6,420.3 1187.5,420.6 1188.4,420.8 1189.3,421.5 1190.2,421.2 1191.2,420.8 1192.1,419.9 1193.0,420.2 1193.9,419.6 1194.8,419.3 1195.7,419.3 1196.6,419.1 1197.5,418.9 1198.4,418.8 1199.3,419.2 1200.2,418.1 1201.1,419.4 1202.0,419.0 1203.0,419.1 1203.9,420.5 1204.8,420.5 1205.7,420.0 1206.6,420.6 1207.5,419.6 1208.4,419.2 1209.3,419.1 1210.2,419.9 1211.1,419.8 1212.0,419.7 1212.9,420.0 1213.8,421.3 1214.7,421.5 1215.7,421.3 1216.6,421.4 1217.5,420.6 1218.4,420.5 1219.3,419.9 1220.2,420.1 1221.1,419.4 1222.0,420.1 1222.9,419.4 1223.8,420.6 1224.7,420.3 1225.6,420.2 1226.5,420.4 1227.4,421.4 1228.4,420.7 1229.3,421.2 1230.2,421.2 1231.1,421.7 1232.0,421.4 1232.9,421.2 1233.8,421.4 1234.7,422.1 1235.6,422.6 1236.5,422.7 1237.4,422.9 1238.3,421.8 1239.2,421.9 1240.1,422.3 1241.1,421.8 1242.0,421.4 1242.9,422.2 1243.8,422.3 1244.7,422.4 1245.6,422.3 1246.5,421.4 1247.4,421.4 1248.3,420.1 1249.2,420.2 1250.1,419.9 1251.0,420.4 1251.9,420.2 1252.9,419.2 1253.8,419.9 1254.7,420.2 1255.6,420.1 1256.5,420.3 1257.4,420.0 1258.3,419.1 1259.2,419.5 1260.1,420.8 1261.0,421.3 1261.9,420.8 1262.8,421.3 1263.7,421.0 1264.6,420.7 1265.6,419.8 1266.5,419.9 1267.4,419.7 1268.3,420.2 1269.2,420.3 1270.1,419.9 1271.0,419.4 1271.9,418.6 1272.8,416.8 1273.7,417.3 1274.6,417.2 1275.5,416.3 1276.4,417.0 1277.3,417.5 1278.3,415.8 1279.2,415.7 1280.1,416.3 1281.0,416.6 1281.9,416.6 1282.8,416.8 1283.7,416.1 1284.6,416.7 1285.5,416.3 1286.4,415.9 1287.3,415.7 1288.2,415.0 1289.1,414.2 1290.0,414.5 1291.0,414.0 1291.9,413.9 1292.8,413.9 1293.7,415.0 1294.6,416.7 1295.5,416.5 1296.4,416.5 1297.3,417.4 1298.2,416.4 1299.1,414.0 1300.0,414.8 1300.9,414.1 1301.8,414.5 1302.8,415.2 1303.7,414.1 1304.6,414.2 1305.5,414.9 1306.4,414.5 1307.3,415.3 1308.2,416.0 1309.1,416.1 1310.0,415.4 1310.9,416.3 1311.8,415.7 1312.7,415.4 1313.6,416.8 1314.5,417.4 1315.5,417.3 1316.4,417.5 1317.3,416.5 1318.2,417.6 1319.1,416.0 1320.0,416.6 1320.9,419.2 1321.8,419.8 1322.7,421.2 1323.6,420.6 1324.5,419.5 1325.4,420.6 1326.3,419.5 1327.2,419.5 1328.2,418.7 1329.1,418.0 1330.0,418.0 1330.9,418.8 1331.8,420.2 1332.7,418.4 1333.6,419.0 1334.5,419.6 1335.4,419.2 1336.3,418.9 1337.2,417.7 1338.1,416.9 1339.0,418.1 1339.9,417.8 1340.9,418.5 1341.8,418.6 1342.7,418.4 1343.6,417.8 1344.5,416.7 1345.4,417.6 1346.3,417.8 1347.2,417.5 1348.1,419.0 1349.0,419.5 1349.9,420.1 1350.8,421.2 1351.7,422.0 1352.7,421.3 1353.6,421.3 1354.5,422.4 1355.4,422.2 1356.3,421.8 1357.2,421.8 1358.1,421.2 1359.0,422.1 1359.9,423.2 1360.8,422.2 1361.7,422.4 1362.6,423.3 1363.5,422.5 1364.4,422.4 1365.4,422.8 1366.3,423.3 1367.2,423.2 1368.1,423.5 1369.0,423.4 1369.9,421.9 1370.8,420.5 1371.7,420.2 1372.6,419.4 1373.5,418.8 1374.4,419.5 1375.3,419.2 1376.2,419.0 1377.1,419.4 1378.1,419.7 1379.0,419.2 1379.9,420.2 1380.8,419.9 1381.7,419.3 1382.6,419.4 1383.5,418.2 1384.4,418.0 1385.3,418.5 1386.2,418.1 1387.1,418.9 1388.0,418.7 1388.9,417.9 1389.8,418.6 1390.8,419.1 1391.7,419.2 1392.6,420.4 1393.5,420.6 1394.4,421.1 1395.3,420.7 1396.2,420.7 1397.1,420.3 1398.0,420.7 1398.9,420.5 1399.8,419.1 1400.7,420.2 1401.6,419.1 1402.6,419.9 1403.5,420.5 1404.4,421.1 1405.3,421.7 1406.2,421.4 1407.1,421.5 1408.0,422.2 1408.9,421.9 1409.8,419.9 1410.7,420.0 1411.6,419.3 1412.5,418.7 1413.4,419.0 1414.3,419.0 1415.3,419.3 1416.2,419.5 1417.1,418.8 1418.0,417.5 1418.9,418.7 1419.8,419.0 1420.7,419.0 1421.6,420.3 1422.5,420.2 1423.4,420.9 1424.3,421.0 1425.2,419.4 1426.1,419.8 1427.0,418.9 1428.0,418.8 1428.9,419.2 1429.8,419.2 1430.7,419.1 1431.6,420.8 1432.5,421.4 1433.4,420.6 1434.3,421.3 1435.2,420.8 1436.1,420.6 1437.0,420.9 1437.9,420.4 1438.8,422.4 1439.7,423.4 1440.7,423.0 1441.6,422.4 1442.5,422.3 1443.4,422.9 1444.3,422.9 1445.2,421.8 1446.1,421.9 1447.0,421.9 1447.9,420.8 1448.8,421.7 1449.7,422.3 1450.6,422.5 1451.5,422.2 1452.5,421.9 1453.4,422.2 1454.3,422.1 1455.2,423.0 1456.1,423.3 1457.0,424.3 1457.9,424.7 1458.8,423.1 1459.7,421.7 1460.6,421.9 1461.5,422.1 1462.4,422.2 1463.3,422.7 1464.2,423.4 1465.2,422.6 1466.1,422.4 1467.0,423.4 1467.9,423.0 1468.8,423.6 1469.7,424.4 1470.6,423.5 1471.5,423.5 1472.4,421.6 1473.3,421.6 1474.2,421.7 1475.1,421.9 1476.0,422.3 1476.9,420.5 1477.9,419.8 1478.8,420.3 1479.7,420.1 1480.6,421.5 1481.5,423.3 1482.4,423.1 1483.3,423.0 1484.2,422.9 1485.1,423.3 1486.0,422.7 1486.9,423.0 1487.8,422.3 1488.7,422.4 1489.6,422.1 1490.6,422.1 1491.5,422.1 1492.4,422.9 1493.3,421.4 1494.2,422.8 1495.1,423.0 1496.0,422.5"/>
<line x1="518.9" y1="154.0" x2="518.9" y2="444.0" stroke="#2563eb" stroke-width="2.0" stroke-dasharray="8 6"/>
<text x="524.9" y="240.0" fill="#2563eb" font-size="13" font-family="Inter, Arial, sans-serif" text-anchor="start" font-weight="700">default: settles ~422</text>
<polyline fill="none" stroke="#dc2626" stroke-width="3.0" points="136.0,289.8 136.9,245.0 137.8,195.5 138.7,181.4 139.6,221.8 140.5,244.1 141.4,237.1 142.4,225.7 143.3,211.9 144.2,221.1 145.1,234.5 146.0,238.6 146.9,229.9 147.8,222.9 148.7,230.1 149.6,238.2 150.5,238.7 151.4,234.7 152.3,229.0 153.2,223.0 154.1,230.3 155.1,237.7 156.0,239.1 156.9,235.3 157.8,228.3 158.7,224.3 159.6,225.9 160.5,234.3 161.4,233.9 162.3,228.7 163.2,228.4 164.1,228.9 165.0,229.7 165.9,221.5 166.8,211.3 167.8,203.7 168.7,211.3 169.6,222.2 170.5,223.4 171.4,219.3 172.3,218.2 173.2,217.9 174.1,219.6 175.0,220.7 175.9,210.9 176.8,200.8 177.7,195.2 178.6,194.5 179.5,196.0 180.5,199.7 181.4,202.7 182.3,198.0 183.2,191.3 184.1,191.7 185.0,194.3 185.9,199.2 186.8,206.6 187.7,215.1 188.6,221.4 189.5,229.7 190.4,231.2 191.3,228.1 192.3,228.0 193.2,231.6 194.1,237.6 195.0,244.8 195.9,253.0 196.8,263.3 197.7,273.4 198.6,283.4 199.5,293.5 200.4,303.5 201.3,311.6 202.2,321.5 203.1,329.4 204.0,338.0 205.0,347.3 205.9,355.0 206.8,362.4 207.7,366.8 208.6,370.9 209.5,375.8 210.4,382.3 211.3,385.8 212.2,387.1 213.1,391.8 214.0,394.0 214.9,395.2 215.8,397.7 216.7,401.4 217.7,403.2 218.6,404.6 219.5,406.0 220.4,407.1 221.3,409.0 222.2,411.8 223.1,414.6 224.0,413.9 224.9,414.3 225.8,414.0 226.7,413.7 227.6,413.1 228.5,412.9 229.4,413.5 230.4,414.7 231.3,414.4 232.2,414.2 233.1,415.3 234.0,417.3 234.9,415.9 235.8,416.9 236.7,418.5 237.6,418.1 238.5,417.1 239.4,416.7 240.3,416.9 241.2,416.8 242.2,417.5 243.1,416.9 244.0,416.4 244.9,416.0 245.8,416.6 246.7,417.0 247.6,417.0 248.5,417.4 249.4,417.8 250.3,418.1 251.2,419.3 252.1,419.4 253.0,419.8 253.9,419.3 254.9,420.5 255.8,419.9 256.7,420.9 257.6,420.0 258.5,420.0 259.4,419.4 260.3,419.9 261.2,420.6 262.1,421.2 263.0,422.4 263.9,421.3 264.8,422.0 265.7,421.7 266.6,421.1 267.6,419.7 268.5,419.7 269.4,419.7 270.3,418.4 271.2,418.9 272.1,418.6 273.0,418.4 273.9,418.3 274.8,418.1 275.7,417.9 276.6,417.6 277.5,418.9 278.4,418.0 279.3,418.0 280.3,418.5 281.2,420.0 282.1,420.4 283.0,419.7 283.9,419.2 284.8,419.0 285.7,419.7 286.6,419.1 287.5,419.3 288.4,420.2 289.3,421.8 290.2,422.3 291.1,422.1 292.1,423.0 293.0,423.1 293.9,422.9 294.8,423.4 295.7,423.3 296.6,423.2 297.5,424.1 298.4,423.0 299.3,421.9 300.2,423.2 301.1,423.8 302.0,423.6 302.9,422.9 303.8,423.4 304.8,423.7 305.7,423.7 306.6,423.1 307.5,422.7 308.4,423.5 309.3,422.9 310.2,423.0 311.1,423.3 312.0,422.9 312.9,423.6 313.8,423.7 314.7,423.3 315.6,422.5 316.5,421.2 317.5,420.6 318.4,420.3 319.3,419.5 320.2,419.5 321.1,418.1 322.0,417.9 322.9,416.3 323.8,414.9 324.7,415.0 325.6,415.2 326.5,414.9 327.4,415.3 328.3,414.7 329.2,414.4 330.2,414.8 331.1,415.2 332.0,415.8 332.9,415.0 333.8,414.9 334.7,414.4 335.6,414.1 336.5,414.3 337.4,415.2 338.3,415.8 339.2,415.8 340.1,416.0 341.0,416.6 342.0,416.5 342.9,417.6 343.8,416.0 344.7,417.1 345.6,418.7 346.5,418.6 347.4,418.7 348.3,419.3 349.2,419.3 350.1,419.7 351.0,420.1 351.9,419.8 352.8,419.7 353.7,418.5 354.7,418.2 355.6,418.5 356.5,418.1 357.4,418.1 358.3,417.3 359.2,416.4 360.1,416.9 361.0,417.5 361.9,418.1 362.8,418.5 363.7,419.3 364.6,419.8 365.5,421.2 366.4,422.3 367.4,422.1 368.3,422.2 369.2,421.7 370.1,421.6 371.0,420.4 371.9,420.3 372.8,419.4 373.7,418.8 374.6,418.9 375.5,419.4 376.4,419.8 377.3,420.3 378.2,419.6 379.1,419.3 380.1,419.7 381.0,419.5 381.9,419.8 382.8,419.6 383.7,418.7 384.6,417.8 385.5,417.3 386.4,416.8 387.3,416.9 388.2,415.6 389.1,416.1 390.0,416.1 390.9,416.2 391.9,417.4 392.8,418.9 393.7,419.1 394.6,420.7 395.5,421.3 396.4,421.9 397.3,422.5 398.2,422.4 399.1,421.8 400.0,422.9 400.9,423.1 401.8,422.5 402.7,423.9 403.6,423.7 404.6,423.6 405.5,423.4 406.4,423.4 407.3,423.9 408.2,425.1 409.1,425.5 410.0,425.7 410.9,425.6 411.8,426.4 412.7,424.9 413.6,423.2 414.5,422.5 415.4,421.3 416.3,421.2 417.3,420.8 418.2,420.9 419.1,420.9 420.0,420.8 420.9,421.2 421.8,421.1 422.7,421.3 423.6,422.1 424.5,422.0 425.4,420.9 426.3,421.6 427.2,422.3 428.1,422.6 429.0,420.6 430.0,420.8 430.9,420.2 431.8,419.4 432.7,419.8 433.6,419.5 434.5,420.2 435.4,420.8 436.3,420.0 437.2,421.5 438.1,420.6 439.0,420.2 439.9,419.1 440.8,419.2 441.8,419.5 442.7,419.8 443.6,418.9 444.5,419.3 445.4,419.1 446.3,417.9 447.2,417.0 448.1,416.7 449.0,417.2 449.9,417.3 450.8,418.1 451.7,418.0 452.6,418.1 453.5,418.7 454.5,417.7 455.4,417.7 456.3,418.5 457.2,417.3 458.1,417.4 459.0,417.1 459.9,417.3 460.8,416.8 461.7,417.2 462.6,416.7 463.5,416.0 464.4,415.9 465.3,417.2 466.2,416.5 467.2,415.3 468.1,416.0 469.0,417.6 469.9,417.0 470.8,416.6 471.7,416.9 472.6,416.7 473.5,416.5 474.4,417.3 475.3,418.3 476.2,418.5 477.1,416.7 478.0,416.3 478.9,417.9 479.9,417.5 480.8,417.7 481.7,417.3 482.6,417.2 483.5,416.9 484.4,416.6 485.3,417.3 486.2,417.0 487.1,416.8 488.0,417.2 488.9,419.0 489.8,418.8 490.7,419.2 491.7,419.0 492.6,419.5 493.5,418.9 494.4,419.8 495.3,418.8 496.2,418.4 497.1,417.7 498.0,417.5 498.9,418.1 499.8,417.4 500.7,417.5 501.6,418.0 502.5,418.2 503.4,418.6 504.4,418.4 505.3,418.9 506.2,419.3 507.1,419.5 508.0,419.0 508.9,418.6 509.8,418.5 510.7,418.0 511.6,418.9 512.5,418.8 513.4,419.8 514.3,419.2 515.2,419.6 516.1,419.1 517.1,420.2 518.0,418.9 518.9,419.3 519.8,418.8 520.7,419.4 521.6,420.6 522.5,419.9 523.4,420.9 524.3,420.8 525.2,420.2 526.1,421.6 527.0,421.6 527.9,422.1 528.8,421.8 529.8,422.4 530.7,422.7 531.6,421.6 532.5,421.0 533.4,420.9 534.3,420.8 535.2,420.3 536.1,421.1 537.0,421.0 537.9,421.9 538.8,421.1 539.7,422.9 540.6,422.3 541.6,423.7 542.5,423.6 543.4,423.2 544.3,424.4 545.2,424.2 546.1,423.1 547.0,423.3 547.9,423.4 548.8,423.4 549.7,423.4 550.6,423.7 551.5,423.9 552.4,424.2 553.3,425.6 554.3,426.0 555.2,426.5 556.1,425.7 557.0,425.6 557.9,425.1 558.8,424.8 559.7,424.7 560.6,425.2 561.5,424.8 562.4,425.7 563.3,424.6 564.2,424.4 565.1,425.3 566.0,424.7 567.0,424.0 567.9,424.6 568.8,426.0 569.7,425.6 570.6,426.1 571.5,425.2 572.4,424.5 573.3,424.5 574.2,424.5 575.1,424.1 576.0,423.8 576.9,423.7 577.8,424.3 578.7,424.6 579.7,424.4 580.6,424.4 581.5,424.7 582.4,425.1 583.3,425.3 584.2,424.4 585.1,425.1 586.0,425.7 586.9,425.2 587.8,425.2 588.7,425.5 589.6,425.7 590.5,425.3 591.5,425.0 592.4,423.6 593.3,423.7 594.2,423.2 595.1,423.2 596.0,422.5 596.9,423.0 597.8,423.4 598.7,422.7 599.6,423.3 600.5,423.3 601.4,423.4 602.3,424.3 603.2,424.3 604.2,424.2 605.1,424.2 606.0,424.5 606.9,424.5 607.8,424.2 608.7,423.8 609.6,423.9 610.5,424.2 611.4,423.9 612.3,424.1 613.2,424.5 614.1,424.6 615.0,425.2 615.9,426.5 616.9,426.0 617.8,425.4 618.7,424.4 619.6,423.8 620.5,424.3 621.4,423.9 622.3,423.3 623.2,422.9 624.1,422.3 625.0,422.0 625.9,420.3 626.8,420.3 627.7,420.4 628.6,420.4 629.6,420.9 630.5,420.7 631.4,420.7 632.3,419.8 633.2,420.6 634.1,419.6 635.0,419.9 635.9,421.1 636.8,420.9 637.7,419.6 638.6,419.2 639.5,420.2 640.4,420.4 641.4,421.4 642.3,420.7 643.2,419.3 644.1,419.6 645.0,420.4 645.9,420.7 646.8,420.9 647.7,422.8 648.6,422.9 649.5,422.9 650.4,422.3 651.3,421.5 652.2,421.7 653.1,421.5 654.1,421.0 655.0,420.9 655.9,421.4 656.8,420.7 657.7,420.2 658.6,419.9 659.5,420.6 660.4,421.4 661.3,421.1 662.2,422.0 663.1,421.5 664.0,422.6 664.9,423.4 665.8,424.2 666.8,424.5 667.7,423.5 668.6,422.9 669.5,422.6 670.4,422.3 671.3,422.5 672.2,423.6 673.1,423.9 674.0,423.2 674.9,423.1 675.8,423.6 676.7,422.9 677.6,422.9 678.5,422.4 679.5,422.6 680.4,423.2 681.3,423.8 682.2,423.3 683.1,423.4 684.0,422.7 684.9,422.3 685.8,420.5 686.7,420.5 687.6,419.5 688.5,419.3 689.4,420.2 690.3,420.6 691.3,421.0 692.2,421.1 693.1,419.8 694.0,419.3 694.9,419.0 695.8,419.7 696.7,419.4 697.6,420.2 698.5,421.0 699.4,420.6 700.3,421.2 701.2,421.1 702.1,420.5 703.0,418.9 704.0,419.7 704.9,419.5 705.8,420.0 706.7,419.9 707.6,421.5 708.5,421.7 709.4,420.8 710.3,419.8 711.2,419.7 712.1,419.8 713.0,419.5 713.9,419.0 714.8,419.7 715.7,419.6 716.7,419.8 717.6,420.6 718.5,421.0 719.4,420.9 720.3,421.2 721.2,421.7 722.1,421.8 723.0,421.8 723.9,421.3 724.8,422.2 725.7,421.9 726.6,421.6 727.5,422.1 728.4,422.9 729.4,422.4 730.3,422.5 731.2,422.9 732.1,423.2 733.0,422.8 733.9,421.6 734.8,421.9 735.7,421.8 736.6,421.3 737.5,421.8 738.4,422.1 739.3,421.8 740.2,422.0 741.2,421.4 742.1,420.3 743.0,420.6 743.9,421.1 744.8,421.7 745.7,421.6 746.6,421.4 747.5,420.7 748.4,421.3 749.3,420.8 750.2,419.4 751.1,419.6 752.0,418.2 752.9,418.8 753.9,418.0 754.8,417.4 755.7,417.5 756.6,415.9 757.5,415.9 758.4,416.2 759.3,415.7 760.2,415.3 761.1,415.7 762.0,415.7 762.9,415.6 763.8,416.7 764.7,416.4 765.6,416.1 766.6,415.5 767.5,416.7 768.4,417.5 769.3,418.2 770.2,417.1 771.1,417.5 772.0,418.7 772.9,418.3 773.8,419.0 774.7,418.1 775.6,419.3 776.5,420.7 777.4,421.3 778.3,422.8 779.3,422.9 780.2,424.1 781.1,423.8 782.0,424.5 782.9,423.1 783.8,422.0 784.7,422.3 785.6,422.2 786.5,422.4 787.4,422.2 788.3,422.1 789.2,421.9 790.1,421.8 791.1,421.4 792.0,421.8 792.9,421.4 793.8,420.2 794.7,420.6 795.6,421.4 796.5,422.2 797.4,422.1 798.3,421.9 799.2,420.4 800.1,419.6 801.0,419.0 801.9,417.9 802.8,418.1 803.8,418.0 804.7,418.9 805.6,419.7 806.5,419.5 807.4,419.3 808.3,418.9 809.2,418.0 810.1,417.9 811.0,417.6 811.9,417.7 812.8,418.0 813.7,418.3 814.6,418.1 815.5,418.6 816.5,417.7 817.4,417.5 818.3,416.6 819.2,416.5 820.1,415.4 821.0,417.6 821.9,418.0 822.8,419.3 823.7,418.7 824.6,418.4 825.5,418.0 826.4,417.3 827.3,417.9 828.2,416.7 829.2,416.6 830.1,417.0 831.0,417.9 831.9,418.8 832.8,418.4 833.7,417.4 834.6,417.7 835.5,417.7 836.4,418.2 837.3,418.7 838.2,419.8 839.1,419.5 840.0,419.5 840.9,418.8 841.9,418.5 842.8,418.0 843.7,418.1 844.6,417.3 845.5,418.0 846.4,418.3 847.3,419.0 848.2,419.4 849.1,418.2 850.0,420.5 850.9,420.3 851.8,419.9 852.7,420.1 853.7,418.8 854.6,418.2 855.5,418.9 856.4,419.2 857.3,419.2 858.2,418.5 859.1,418.7 860.0,418.4 860.9,419.6 861.8,420.9 862.7,422.1 863.6,423.4 864.5,423.2 865.4,423.3 866.4,421.9 867.3,422.5 868.2,422.0 869.1,420.6 870.0,421.1 870.9,420.9 871.8,419.6 872.7,420.5 873.6,420.9 874.5,420.1 875.4,420.3 876.3,421.8 877.2,422.3 878.1,421.7 879.1,421.7 880.0,422.4 880.9,422.2 881.8,422.5 882.7,421.6 883.6,421.4 884.5,421.3 885.4,420.6 886.3,420.9 887.2,421.2 888.1,422.4 889.0,422.5 889.9,422.9 890.8,422.4 891.8,421.9 892.7,423.4 893.6,423.5 894.5,423.3 895.4,423.4 896.3,423.0 897.2,423.4 898.1,423.3 899.0,422.8 899.9,422.5 900.8,422.1 901.7,422.3 902.6,421.6 903.6,421.5 904.5,421.2 905.4,421.4 906.3,421.2 907.2,422.1 908.1,422.5 909.0,422.1 909.9,422.6 910.8,421.2 911.7,421.3 912.6,422.7 913.5,422.8 914.4,421.6 915.3,422.2 916.3,421.9 917.2,420.8 918.1,420.6 919.0,420.6 919.9,419.7 920.8,419.2 921.7,420.0 922.6,420.7 923.5,418.4 924.4,418.2 925.3,417.9 926.2,418.2 927.1,418.5 928.0,418.9 929.0,418.7 929.9,417.9 930.8,416.8 931.7,416.6 932.6,418.1 933.5,417.8 934.4,417.8 935.3,417.0 936.2,418.6 937.1,419.1 938.0,418.5 938.9,419.2 939.8,420.2 940.7,419.7 941.7,420.2 942.6,421.3 943.5,420.4 944.4,420.6 945.3,421.3 946.2,422.2 947.1,422.8 948.0,423.3 948.9,422.6 949.8,422.6 950.7,423.0 951.6,423.1 952.5,424.1 953.5,424.1 954.4,423.7 955.3,424.4 956.2,424.3 957.1,424.5 958.0,424.2 958.9,423.5 959.8,424.6 960.7,424.8 961.6,424.9 962.5,425.6 963.4,425.6 964.3,425.3 965.2,424.7 966.2,424.1 967.1,425.3 968.0,425.0 968.9,423.2 969.8,422.9 970.7,423.3 971.6,422.7 972.5,422.0 973.4,422.0 974.3,422.1 975.2,421.4 976.1,421.0 977.0,420.8 977.9,419.8 978.9,420.3 979.8,419.3 980.7,418.5 981.6,417.8 982.5,417.4 983.4,417.7 984.3,417.1 985.2,417.5 986.1,417.7 987.0,418.5 987.9,418.8 988.8,419.0 989.7,419.1 990.6,420.0 991.6,420.4 992.5,419.6 993.4,419.9 994.3,419.1 995.2,418.8 996.1,418.9 997.0,420.2 997.9,419.2 998.8,418.3 999.7,419.5 1000.6,419.2 1001.5,420.1 1002.4,420.9 1003.4,421.6 1004.3,421.8 1005.2,421.7 1006.1,421.7 1007.0,421.4 1007.9,421.6 1008.8,421.7 1009.7,421.4 1010.6,421.6 1011.5,421.9 1012.4,422.5 1013.3,422.0 1014.2,422.3 1015.1,421.1 1016.1,421.8 1017.0,422.3 1017.9,421.5 1018.8,421.7 1019.7,423.4 1020.6,423.4 1021.5,422.6 1022.4,423.4 1023.3,422.7 1024.2,422.9 1025.1,422.6 1026.0,422.8 1026.9,423.1 1027.8,423.9 1028.8,424.2 1029.7,424.0 1030.6,424.0 1031.5,424.1 1032.4,423.4 1033.3,423.4 1034.2,423.9 1035.1,424.2 1036.0,424.3 1036.9,424.1 1037.8,425.1 1038.7,423.9 1039.6,424.7 1040.5,423.7 1041.5,423.1 1042.4,423.1 1043.3,423.7 1044.2,423.1 1045.1,423.4 1046.0,423.8 1046.9,423.3 1047.8,423.7 1048.7,423.3 1049.6,423.1 1050.5,423.2 1051.4,422.1 1052.3,422.6 1053.3,422.4 1054.2,422.5 1055.1,421.2 1056.0,421.1 1056.9,421.7 1057.8,422.1 1058.7,422.4 1059.6,421.5 1060.5,422.2 1061.4,422.0 1062.3,423.1 1063.2,423.2 1064.1,424.0 1065.0,424.1 1066.0,424.2 1066.9,424.4 1067.8,423.8 1068.7,424.7 1069.6,424.1 1070.5,422.8 1071.4,423.0 1072.3,422.3 1073.2,423.7 1074.1,423.5 1075.0,422.6 1075.9,422.4 1076.8,423.1 1077.7,422.5 1078.7,422.6 1079.6,421.9 1080.5,423.1 1081.4,423.1 1082.3,424.0 1083.2,423.7 1084.1,422.7 1085.0,422.9 1085.9,423.0 1086.8,422.8 1087.7,421.9 1088.6,421.7 1089.5,421.3 1090.4,419.9 1091.4,419.5 1092.3,420.8 1093.2,420.8 1094.1,420.4 1095.0,418.9 1095.9,418.3 1096.8,419.9 1097.7,420.1 1098.6,420.8 1099.5,420.9 1100.4,420.9 1101.3,420.2 1102.2,420.1 1103.2,420.4 1104.1,420.3 1105.0,419.5 1105.9,419.7 1106.8,419.3 1107.7,418.5 1108.6,418.7 1109.5,419.0 1110.4,419.0 1111.3,419.9 1112.2,420.5 1113.1,420.5 1114.0,419.6 1114.9,419.5 1115.9,419.9 1116.8,419.3 1117.7,419.3 1118.6,419.0 1119.5,418.6 1120.4,418.0 1121.3,417.8 1122.2,417.1 1123.1,417.8 1124.0,418.3 1124.9,418.2 1125.8,417.6 1126.7,419.1 1127.6,419.4 1128.6,419.0 1129.5,420.4 1130.4,420.5 1131.3,420.7 1132.2,420.9 1133.1,420.4 1134.0,420.3 1134.9,420.1 1135.8,420.7 1136.7,420.1 1137.6,420.2 1138.5,422.1 1139.4,422.8 1140.3,423.3 1141.3,423.8 1142.2,424.1 1143.1,422.8 1144.0,422.8 1144.9,422.2 1145.8,420.9 1146.7,420.5 1147.6,420.3 1148.5,420.7 1149.4,420.0 1150.3,421.1 1151.2,419.7 1152.1,419.8 1153.1,418.9 1154.0,418.5 1154.9,418.7 1155.8,418.5 1156.7,418.8 1157.6,419.5 1158.5,418.6 1159.4,418.4 1160.3,417.7 1161.2,417.6 1162.1,416.1 1163.0,416.0 1163.9,416.0 1164.8,416.8 1165.8,416.6 1166.7,416.7 1167.6,416.3 1168.5,416.9 1169.4,416.9 1170.3,415.6 1171.2,415.3 1172.1,414.7 1173.0,415.6 1173.9,415.5 1174.8,417.2 1175.7,417.8 1176.6,417.9 1177.5,417.5 1178.5,418.1 1179.4,416.8 1180.3,417.5 1181.2,418.3 1182.1,417.5 1183.0,417.6 1183.9,418.0 1184.8,418.0 1185.7,418.5 1186.6,419.7 1187.5,420.1 1188.4,420.2 1189.3,421.1 1190.2,420.8 1191.2,420.5 1192.1,419.6 1193.0,419.9 1193.9,419.4 1194.8,419.3 1195.7,418.9 1196.6,418.5 1197.5,418.5 1198.4,418.3 1199.3,418.6 1200.2,417.6 1201.1,418.8 1202.0,418.5 1203.0,418.6 1203.9,420.2 1204.8,420.2 1205.7,419.8 1206.6,420.3 1207.5,419.2 1208.4,418.7 1209.3,418.5 1210.2,419.4 1211.1,419.2 1212.0,419.3 1212.9,419.8 1213.8,421.2 1214.7,421.2 1215.7,420.9 1216.6,420.8 1217.5,420.3 1218.4,420.2 1219.3,419.5 1220.2,419.7 1221.1,419.0 1222.0,419.5 1222.9,419.1 1223.8,420.2 1224.7,419.7 1225.6,419.5 1226.5,419.9 1227.4,420.7 1228.4,420.1 1229.3,420.8 1230.2,420.8 1231.1,421.4 1232.0,421.3 1232.9,421.1 1233.8,421.0 1234.7,421.5 1235.6,422.0 1236.5,422.3 1237.4,422.5 1238.3,421.2 1239.2,421.4 1240.1,421.7 1241.1,421.3 1242.0,420.7 1242.9,421.6 1243.8,421.9 1244.7,422.2 1245.6,421.9 1246.5,420.8 1247.4,420.9 1248.3,419.6 1249.2,419.6 1250.1,419.4 1251.0,419.8 1251.9,419.6 1252.9,418.5 1253.8,419.2 1254.7,419.4 1255.6,419.5 1256.5,419.9 1257.4,419.4 1258.3,418.6 1259.2,419.0 1260.1,420.4 1261.0,420.8 1261.9,420.4 1262.8,420.8 1263.7,420.7 1264.6,420.3 1265.6,419.4 1266.5,419.5 1267.4,419.4 1268.3,420.1 1269.2,420.3 1270.1,419.8 1271.0,419.3 1271.9,418.4 1272.8,416.5 1273.7,417.0 1274.6,416.8 1275.5,415.9 1276.4,416.6 1277.3,417.0 1278.3,415.1 1279.2,414.9 1280.1,415.7 1281.0,415.8 1281.9,415.8 1282.8,416.2 1283.7,415.3 1284.6,416.1 1285.5,415.6 1286.4,415.2 1287.3,415.1 1288.2,414.4 1289.1,413.8 1290.0,413.9 1291.0,413.3 1291.9,413.1 1292.8,413.0 1293.7,414.2 1294.6,416.0 1295.5,415.9 1296.4,416.0 1297.3,416.8 1298.2,415.6 1299.1,413.3 1300.0,413.9 1300.9,413.4 1301.8,413.8 1302.8,414.6 1303.7,413.4 1304.6,413.5 1305.5,414.2 1306.4,413.9 1307.3,414.9 1308.2,415.6 1309.1,415.4 1310.0,414.4 1310.9,415.2 1311.8,414.7 1312.7,414.2 1313.6,415.8 1314.5,416.5 1315.5,416.4 1316.4,416.6 1317.3,415.7 1318.2,416.8 1319.1,415.3 1320.0,416.0 1320.9,418.5 1321.8,419.2 1322.7,420.6 1323.6,420.1 1324.5,419.3 1325.4,420.7 1326.3,419.7 1327.2,419.5 1328.2,418.4 1329.1,417.5 1330.0,417.4 1330.9,418.4 1331.8,419.7 1332.7,418.0 1333.6,418.5 1334.5,419.3 1335.4,418.7 1336.3,418.5 1337.2,417.3 1338.1,416.6 1339.0,417.7 1339.9,417.6 1340.9,418.2 1341.8,418.2 1342.7,418.1 1343.6,417.4 1344.5,416.4 1345.4,417.4 1346.3,417.5 1347.2,416.7 1348.1,418.2 1349.0,418.9 1349.9,419.6 1350.8,420.8 1351.7,421.7 1352.7,420.9 1353.6,420.9 1354.5,422.1 1355.4,422.0 1356.3,421.4 1357.2,421.6 1358.1,421.0 1359.0,421.9 1359.9,422.9 1360.8,421.8 1361.7,421.8 1362.6,422.9 1363.5,422.1 1364.4,421.9 1365.4,422.4 1366.3,423.0 1367.2,422.5 1368.1,422.7 1369.0,422.8 1369.9,421.2 1370.8,419.7 1371.7,419.4 1372.6,418.5 1373.5,417.7 1374.4,418.6 1375.3,418.3 1376.2,418.0 1377.1,418.5 1378.1,418.8 1379.0,418.3 1379.9,419.4 1380.8,418.9 1381.7,418.3 1382.6,418.4 1383.5,417.3 1384.4,416.9 1385.3,417.5 1386.2,417.0 1387.1,417.8 1388.0,417.6 1388.9,416.9 1389.8,417.3 1390.8,417.9 1391.7,418.0 1392.6,419.5 1393.5,419.6 1394.4,420.2 1395.3,419.9 1396.2,419.8 1397.1,419.5 1398.0,420.0 1398.9,419.8 1399.8,418.4 1400.7,419.8 1401.6,418.7 1402.6,419.5 1403.5,420.2 1404.4,420.9 1405.3,421.6 1406.2,421.4 1407.1,421.4 1408.0,422.1 1408.9,421.7 1409.8,419.8 1410.7,419.7 1411.6,419.3 1412.5,419.0 1413.4,419.1 1414.3,418.9 1415.3,419.3 1416.2,419.5 1417.1,418.8 1418.0,417.4 1418.9,418.5 1419.8,418.9 1420.7,419.0 1421.6,420.0 1422.5,419.8 1423.4,420.4 1424.3,420.6 1425.2,419.0 1426.1,419.2 1427.0,418.3 1428.0,417.9 1428.9,418.4 1429.8,418.4 1430.7,418.2 1431.6,420.0 1432.5,420.7 1433.4,419.6 1434.3,419.9 1435.2,419.6 1436.1,419.5 1437.0,419.7 1437.9,419.2 1438.8,421.4 1439.7,422.4 1440.7,422.2 1441.6,421.5 1442.5,421.3 1443.4,422.0 1444.3,422.1 1445.2,421.2 1446.1,421.6 1447.0,421.7 1447.9,421.1 1448.8,421.5 1449.7,422.1 1450.6,422.1 1451.5,421.7 1452.5,421.6 1453.4,421.9 1454.3,421.7 1455.2,422.7 1456.1,423.1 1457.0,424.1 1457.9,424.6 1458.8,423.1 1459.7,421.7 1460.6,421.5 1461.5,421.9 1462.4,422.1 1463.3,422.5 1464.2,423.2 1465.2,422.4 1466.1,422.1 1467.0,423.0 1467.9,422.3 1468.8,422.8 1469.7,423.1 1470.6,422.6 1471.5,422.9 1472.4,421.0 1473.3,421.2 1474.2,421.3 1475.1,421.3 1476.0,421.7 1476.9,419.9 1477.9,419.2 1478.8,419.7 1479.7,419.5 1480.6,420.8 1481.5,422.5 1482.4,422.5 1483.3,422.4 1484.2,422.2 1485.1,422.7 1486.0,422.1 1486.9,422.3 1487.8,421.6 1488.7,421.6 1489.6,421.3 1490.6,421.2 1491.5,421.3 1492.4,422.1 1493.3,420.6 1494.2,422.3 1495.1,422.1 1496.0,421.7"/>
<line x1="215.8" y1="154.0" x2="215.8" y2="444.0" stroke="#dc2626" stroke-width="2.0" stroke-dasharray="8 6"/>
<text x="221.8" y="262.0" fill="#dc2626" font-size="13" font-family="Inter, Arial, sans-serif" text-anchor="start" font-weight="700">aggressive: settles ~88</text>
<text x="800.0" y="524.0" fill="#374151" font-size="16" font-family="Inter, Arial, sans-serif" text-anchor="middle" font-weight="normal">symbol index</text>
<text x="28.0" y="294.0" fill="#374151" font-size="16" font-family="Inter, Arial, sans-serif" text-anchor="middle" font-weight="normal" transform="rotate(-90 28 294.0)">decision error</text>
<rect x="1238.0" y="146.0" width="250" height="92" rx="14" fill="#ffffff" stroke="#e2e8f0"/>
<line x1="1254.0" y1="165.0" x2="1282.0" y2="165.0" stroke="#0f766e" stroke-width="4.0"/>
<text x="1294.0" y="170.0" fill="#334155" font-size="13" font-family="Inter, Arial, sans-serif" text-anchor="start" font-weight="700">gentle  α=0.05 β=0.0015</text>
<line x1="1254.0" y1="187.0" x2="1282.0" y2="187.0" stroke="#2563eb" stroke-width="4.0"/>
<text x="1294.0" y="192.0" fill="#334155" font-size="13" font-family="Inter, Arial, sans-serif" text-anchor="start" font-weight="700">default  α=0.11 β=0.0045</text>
<line x1="1254.0" y1="209.0" x2="1282.0" y2="209.0" stroke="#dc2626" stroke-width="4.0"/>
<text x="1294.0" y="214.0" fill="#334155" font-size="13" font-family="Inter, Arial, sans-serif" text-anchor="start" font-weight="700">aggressive  α=0.20 β=0.0120</text>
<rect x="80.0" y="560.0" width="700.0" height="340.0" rx="18" fill="#ffffff" stroke="#e2e8f0"/>
<text x="98.0" y="588.0" fill="#334155" font-size="16" font-family="Inter, Arial, sans-serif" text-anchor="start" font-weight="700">Tracking-mode frequency jitter after coarse frequency help</text>
<text x="98.0" y="612.0" fill="#526274" font-size="14" font-family="Inter, Arial, sans-serif" text-anchor="start" font-weight="normal"><tspan x="98.0" dy="0">carrier offset = +0.35 rad/sample, noise std = 0.08</tspan><tspan x="98.0" dy="17">the coarse front end already landed near lock; now the loop just has to stay quiet</tspan></text>
<line x1="136.0" y1="596.0" x2="756.0" y2="596.0" stroke="#e2e8f0" stroke-width="1.0" stroke-dasharray="4 6"/>
<text x="128.0" y="601.0" fill="#64748b" font-size="13" font-family="Inter, Arial, sans-serif" text-anchor="end" font-weight="normal">+10.1</text>
<line x1="136.0" y1="642.3" x2="756.0" y2="642.3" stroke="#e2e8f0" stroke-width="1.0" stroke-dasharray="4 6"/>
<text x="128.0" y="647.3" fill="#64748b" font-size="13" font-family="Inter, Arial, sans-serif" text-anchor="end" font-weight="normal">+6.7</text>
<line x1="136.0" y1="688.7" x2="756.0" y2="688.7" stroke="#e2e8f0" stroke-width="1.0" stroke-dasharray="4 6"/>
<text x="128.0" y="693.7" fill="#64748b" font-size="13" font-family="Inter, Arial, sans-serif" text-anchor="end" font-weight="normal">+3.4</text>
<line x1="136.0" y1="735.0" x2="756.0" y2="735.0" stroke="#e2e8f0" stroke-width="1.0" stroke-dasharray="4 6"/>
<text x="128.0" y="740.0" fill="#64748b" font-size="13" font-family="Inter, Arial, sans-serif" text-anchor="end" font-weight="normal">+0.0</text>
<line x1="136.0" y1="781.3" x2="756.0" y2="781.3" stroke="#e2e8f0" stroke-width="1.0" stroke-dasharray="4 6"/>
<text x="128.0" y="786.3" fill="#64748b" font-size="13" font-family="Inter, Arial, sans-serif" text-anchor="end" font-weight="normal">-3.4</text>
<line x1="136.0" y1="827.7" x2="756.0" y2="827.7" stroke="#e2e8f0" stroke-width="1.0" stroke-dasharray="4 6"/>
<text x="128.0" y="832.7" fill="#64748b" font-size="13" font-family="Inter, Arial, sans-serif" text-anchor="end" font-weight="normal">-6.7</text>
<line x1="136.0" y1="874.0" x2="756.0" y2="874.0" stroke="#e2e8f0" stroke-width="1.0" stroke-dasharray="4 6"/>
<text x="128.0" y="879.0" fill="#64748b" font-size="13" font-family="Inter, Arial, sans-serif" text-anchor="end" font-weight="normal">-10.1</text>
<line x1="136.0" y1="596.0" x2="136.0" y2="874.0" stroke="#eef2f7" stroke-width="1.0" stroke-dasharray="4 6"/>
<text x="136.0" y="924.0" fill="#64748b" font-size="13" font-family="Inter, Arial, sans-serif" text-anchor="middle" font-weight="normal">0</text>
<line x1="260.0" y1="596.0" x2="260.0" y2="874.0" stroke="#eef2f7" stroke-width="1.0" stroke-dasharray="4 6"/>
<text x="260.0" y="924.0" fill="#64748b" font-size="13" font-family="Inter, Arial, sans-serif" text-anchor="middle" font-weight="normal">52</text>
<line x1="384.0" y1="596.0" x2="384.0" y2="874.0" stroke="#eef2f7" stroke-width="1.0" stroke-dasharray="4 6"/>
<text x="384.0" y="924.0" fill="#64748b" font-size="13" font-family="Inter, Arial, sans-serif" text-anchor="middle" font-weight="normal">104</text>
<line x1="508.0" y1="596.0" x2="508.0" y2="874.0" stroke="#eef2f7" stroke-width="1.0" stroke-dasharray="4 6"/>
<text x="508.0" y="924.0" fill="#64748b" font-size="13" font-family="Inter, Arial, sans-serif" text-anchor="middle" font-weight="normal">155</text>
<line x1="632.0" y1="596.0" x2="632.0" y2="874.0" stroke="#eef2f7" stroke-width="1.0" stroke-dasharray="4 6"/>
<text x="632.0" y="924.0" fill="#64748b" font-size="13" font-family="Inter, Arial, sans-serif" text-anchor="middle" font-weight="normal">207</text>
<line x1="756.0" y1="596.0" x2="756.0" y2="874.0" stroke="#eef2f7" stroke-width="1.0" stroke-dasharray="4 6"/>
<text x="756.0" y="924.0" fill="#64748b" font-size="13" font-family="Inter, Arial, sans-serif" text-anchor="middle" font-weight="normal">259</text>
<line x1="136.0" y1="596.0" x2="136.0" y2="874.0" stroke="#334155" stroke-width="2.0"/>
<line x1="136.0" y1="874.0" x2="756.0" y2="874.0" stroke="#334155" stroke-width="2.0"/>
<line x1="136.0" y1="735.0" x2="756.0" y2="735.0" stroke="#94a3b8" stroke-width="1.8" stroke-dasharray="8 8"/>
<polyline fill="none" stroke="#0f766e" stroke-width="2.6" points="136.0,816.6 138.4,813.7 140.8,815.2 143.2,818.3 145.6,816.0 148.0,813.9 150.4,808.9 152.8,808.4 155.2,807.6 157.5,807.0 159.9,803.3 162.3,803.3 164.7,804.3 167.1,806.2 169.5,808.3 171.9,809.6 174.3,806.4 176.7,806.9 179.1,807.1 181.5,809.6 183.9,809.6 186.3,811.0 188.7,809.7 191.1,807.0 193.5,811.9 195.8,809.0 198.2,811.1 200.6,803.7 203.0,802.5 205.4,803.3 207.8,805.1 210.2,803.7 212.6,806.1 215.0,807.9 217.4,806.6 219.8,806.3 222.2,803.9 224.6,803.1 227.0,802.7 229.4,804.6 231.8,804.1 234.1,803.9 236.5,802.5 238.9,803.3 241.3,801.3 243.7,799.9 246.1,801.9 248.5,801.5 250.9,801.4 253.3,801.5 255.7,799.8 258.1,799.8 260.5,802.8 262.9,810.2 265.3,811.3 267.7,811.3 270.1,807.5 272.4,807.7 274.8,810.8 277.2,808.3 279.6,806.6 282.0,808.6 284.4,812.3 286.8,810.9 289.2,812.1 291.6,810.8 294.0,810.7 296.4,813.0 298.8,816.1 301.2,819.5 303.6,818.5 306.0,815.7 308.4,811.7 310.7,809.6 313.1,808.0 315.5,809.9 317.9,805.6 320.3,800.9 322.7,799.6 325.1,800.3 327.5,796.8 329.9,794.2 332.3,793.0 334.7,794.5 337.1,793.2 339.5,793.2 341.9,791.8 344.3,791.4 346.7,790.1 349.1,795.6 351.4,798.1 353.8,799.4 356.2,802.1 358.6,803.0 361.0,802.7 363.4,806.5 365.8,805.4 368.2,805.7 370.6,806.6 373.0,807.2 375.4,806.8 377.8,808.7 380.2,806.3 382.6,806.5 385.0,806.2 387.4,806.3 389.7,805.4 392.1,807.7 394.5,807.6 396.9,805.6 399.3,806.9 401.7,806.7 404.1,807.3 406.5,805.7 408.9,806.8 411.3,809.6 413.7,812.6 416.1,814.8 418.5,814.9 420.9,810.9 423.3,810.5 425.7,813.6 428.0,813.9 430.4,808.9 432.8,811.7 435.2,810.1 437.6,807.0 440.0,809.6 442.4,806.8 444.8,809.2 447.2,809.2 449.6,806.9 452.0,803.2 454.4,802.6 456.8,800.8 459.2,801.0 461.6,803.3 464.0,803.8 466.3,800.1 468.7,795.4 471.1,797.1 473.5,794.2 475.9,796.8 478.3,800.3 480.7,797.7 483.1,799.6 485.5,799.4 487.9,802.3 490.3,802.1 492.7,805.8 495.1,809.5 497.5,810.9 499.9,806.7 502.3,802.0 504.6,802.6 507.0,799.5 509.4,801.7 511.8,802.9 514.2,801.2 516.6,803.3 519.0,805.3 521.4,801.9 523.8,801.0 526.2,803.8 528.6,805.5 531.0,804.0 533.4,803.1 535.8,804.8 538.2,808.0 540.6,809.4 542.9,813.1 545.3,809.9 547.7,807.5 550.1,803.0 552.5,803.9 554.9,806.5 557.3,807.2 559.7,809.6 562.1,811.7 564.5,809.2 566.9,807.8 569.3,808.5 571.7,810.8 574.1,810.5 576.5,808.9 578.9,810.8 581.3,809.3 583.6,805.7 586.0,804.0 588.4,803.7 590.8,803.3 593.2,805.1 595.6,806.0 598.0,810.2 600.4,804.5 602.8,804.0 605.2,798.7 607.6,797.5 610.0,793.7 612.4,796.0 614.8,802.5 617.2,798.9 619.6,799.4 621.9,797.3 624.3,797.1 626.7,798.4 629.1,797.5 631.5,796.9 633.9,796.9 636.3,797.6 638.7,794.1 641.1,797.9 643.5,796.0 645.9,794.0 648.3,793.9 650.7,791.1 653.1,793.3 655.5,790.5 657.9,791.8 660.2,790.1 662.6,793.6 665.0,797.0 667.4,798.2 669.8,800.1 672.2,796.1 674.6,798.7 677.0,797.7 679.4,800.1 681.8,800.2 684.2,801.5 686.6,804.0 689.0,803.3 691.4,804.6 693.8,802.2 696.2,803.8 698.5,806.1 700.9,808.6 703.3,809.4 705.7,811.5 708.1,810.8 710.5,811.8 712.9,813.7 715.3,815.2 717.7,817.0 720.1,817.9 722.5,817.5 724.9,817.2 727.3,817.4 729.7,817.7 732.1,815.3 734.5,817.3 736.8,814.4 739.2,814.8 741.6,814.3 744.0,812.3 746.4,816.8 748.8,816.9 751.2,813.6 753.6,814.7 756.0,812.0"/>
<polyline fill="none" stroke="#2563eb" stroke-width="2.6" points="136.0,827.3 138.4,816.9 140.8,821.0 143.2,829.3 145.6,820.6 148.0,813.7 150.4,798.6 152.8,798.1 155.2,796.9 157.5,796.4 159.9,786.7 162.3,788.5 164.7,793.7 167.1,801.1 169.5,807.9 171.9,812.0 174.3,802.0 176.7,804.4 179.1,805.2 181.5,813.0 183.9,812.6 186.3,816.5 188.7,812.1 191.1,803.5 193.5,818.9 195.8,809.3 198.2,815.5 200.6,792.8 203.0,790.7 205.4,794.6 207.8,801.4 210.2,797.6 212.6,805.7 215.0,811.4 217.4,807.0 219.8,806.3 222.2,799.0 224.6,797.5 227.0,797.3 229.4,803.9 231.8,802.5 234.1,802.1 236.5,798.1 238.9,801.4 241.3,795.6 243.7,792.4 246.1,799.2 248.5,798.5 250.9,798.8 253.3,799.7 255.7,794.8 258.1,795.7 260.5,805.3 262.9,827.3 265.3,828.4 267.7,826.1 270.1,812.6 272.4,812.5 274.8,821.3 277.2,812.5 279.6,806.9 282.0,812.7 284.4,823.3 286.8,817.7 289.2,820.3 291.6,815.2 294.0,814.1 296.4,820.3 298.8,828.7 301.2,837.1 303.6,831.5 306.0,821.3 308.4,808.5 310.7,802.2 313.1,798.1 315.5,804.8 317.9,792.7 320.3,779.8 322.7,778.8 325.1,783.6 327.5,775.2 329.9,770.5 332.3,770.4 334.7,777.8 337.1,776.4 339.5,779.0 341.9,776.9 344.3,778.4 346.7,776.5 349.1,795.2 351.4,803.0 353.8,806.7 356.2,814.3 358.6,815.5 361.0,813.5 363.4,823.4 365.8,818.4 368.2,817.6 370.6,818.9 373.0,819.0 375.4,816.2 377.8,820.4 380.2,811.8 382.6,811.4 385.0,810.1 387.4,809.8 389.7,806.4 392.1,813.3 394.5,811.9 396.9,805.2 399.3,809.1 401.7,808.2 404.1,809.7 406.5,804.5 408.9,807.9 411.3,816.0 413.7,823.9 416.1,829.1 418.5,827.2 420.9,813.4 423.3,811.7 425.7,820.8 428.0,820.4 430.4,804.2 432.8,813.2 435.2,807.9 437.6,798.6 440.0,807.5 442.4,799.3 444.8,807.3 447.2,807.4 449.6,800.7 452.0,790.4 454.4,790.1 456.8,786.1 459.2,788.8 461.6,797.2 464.0,799.5 466.3,789.2 468.7,776.6 471.1,784.2 473.5,777.2 475.9,787.3 478.3,799.4 480.7,791.9 483.1,798.7 485.5,798.6 487.9,807.6 490.3,806.5 492.7,817.4 495.1,826.9 497.5,829.2 499.9,814.2 502.3,799.2 504.6,801.4 507.0,792.5 509.4,800.0 511.8,803.8 514.2,798.6 516.6,805.3 519.0,811.3 521.4,800.1 523.8,797.7 526.2,806.6 528.6,811.5 531.0,806.1 533.4,803.0 535.8,808.1 538.2,817.2 540.6,820.3 542.9,829.9 545.3,818.1 547.7,809.9 550.1,795.8 552.5,799.6 554.9,807.8 557.3,809.6 559.7,816.6 562.1,822.0 564.5,812.9 566.9,808.2 569.3,810.2 571.7,816.8 574.1,814.8 576.5,809.4 578.9,814.7 581.3,809.7 583.6,798.6 586.0,794.4 588.4,794.6 590.8,794.5 593.2,801.0 595.6,804.1 598.0,817.0 600.4,799.2 602.8,798.1 605.2,783.1 607.6,781.6 610.0,772.3 612.4,781.6 614.8,803.4 617.2,792.5 619.6,795.1 621.9,789.5 624.3,790.3 626.7,795.2 629.1,793.2 631.5,791.9 633.9,792.8 636.3,795.7 638.7,785.5 641.1,798.4 643.5,792.9 645.9,787.5 648.3,788.5 650.7,781.1 653.1,789.4 655.5,781.6 657.9,787.1 660.2,782.8 662.6,794.4 665.0,804.9 667.4,807.7 669.8,812.3 672.2,798.7 674.6,806.6 677.0,802.6 679.4,809.4 681.8,808.5 684.2,811.6 686.6,817.7 689.0,813.9 691.4,816.2 693.8,807.4 696.2,811.5 698.5,817.2 700.9,823.4 703.3,824.3 705.7,828.4 708.1,824.1 710.5,825.0 712.9,828.6 715.3,830.7 717.7,833.8 720.1,833.9 722.5,830.2 724.9,827.4 727.3,826.2 729.7,825.5 732.1,816.5 734.5,822.0 736.8,812.2 739.2,813.4 741.6,811.7 744.0,805.5 746.4,819.6 748.8,819.2 751.2,808.6 753.6,812.3 756.0,804.3"/>
<polyline fill="none" stroke="#dc2626" stroke-width="2.6" points="136.0,846.1 138.4,814.6 140.8,825.9 143.2,846.8 145.6,819.9 148.0,801.8 150.4,764.1 152.8,769.9 155.2,772.8 157.5,776.6 159.9,755.8 162.3,765.9 164.7,785.7 167.1,807.2 169.5,823.8 171.9,831.2 174.3,800.0 176.7,806.7 179.1,808.5 181.5,828.4 183.9,823.8 186.3,831.9 188.7,817.0 191.1,793.0 193.5,836.4 195.8,806.8 198.2,824.1 200.6,761.7 203.0,762.9 205.4,779.6 207.8,801.3 210.2,791.0 212.6,814.2 215.0,827.8 217.4,812.7 219.8,809.4 222.2,789.1 224.6,787.4 227.0,789.3 229.4,808.8 231.8,803.8 234.1,802.4 236.5,791.8 238.9,801.7 241.3,786.2 243.7,779.5 246.1,800.3 248.5,798.0 250.9,798.9 253.3,801.4 255.7,787.8 258.1,791.6 260.5,818.1 262.9,874.0 265.3,866.2 267.7,850.6 270.1,809.3 272.4,810.1 274.8,834.3 277.2,808.2 279.6,794.2 282.0,813.1 284.4,841.2 286.8,822.6 289.2,828.3 291.6,813.0 294.0,810.5 296.4,828.1 298.8,848.7 301.2,866.4 303.6,845.6 306.0,815.4 308.4,782.4 310.7,770.7 313.1,766.6 315.5,790.8 317.9,761.9 320.3,733.8 322.7,741.6 325.1,762.4 327.5,744.9 329.9,739.5 332.3,746.1 334.7,770.8 337.1,768.8 339.5,777.4 341.9,772.1 344.3,777.3 346.7,772.5 349.1,823.1 351.4,838.1 353.8,840.5 356.2,853.6 358.6,847.6 361.0,835.5 363.4,857.0 365.8,837.0 368.2,830.7 370.6,831.2 373.0,828.7 375.4,818.9 377.8,829.4 380.2,804.4 382.6,805.2 385.0,802.7 387.4,803.5 389.7,796.0 392.1,816.5 394.5,811.9 396.9,794.3 399.3,806.9 401.7,805.0 404.1,809.7 406.5,796.0 408.9,806.6 411.3,828.4 413.7,847.0 416.1,856.0 418.5,844.7 420.9,804.1 423.3,801.8 425.7,828.1 428.0,825.4 430.4,781.2 432.8,810.1 435.2,796.8 437.6,774.4 440.0,804.0 442.4,782.8 444.8,808.4 447.2,808.2 449.6,790.0 452.0,765.0 454.4,768.8 456.8,762.9 459.2,775.3 461.6,800.8 464.0,806.2 466.3,777.1 468.7,746.2 471.1,772.6 473.5,756.3 475.9,787.7 478.3,819.8 480.7,795.0 483.1,812.5 485.5,809.4 487.9,830.9 490.3,823.4 492.7,848.9 495.1,866.6 497.5,864.8 499.9,817.3 502.3,776.8 504.6,788.0 507.0,767.7 509.4,792.4 511.8,804.2 514.2,790.2 516.6,809.8 519.0,824.9 521.4,792.0 523.8,787.5 526.2,813.5 528.6,824.8 531.0,807.1 533.4,798.6 535.8,813.1 538.2,836.3 540.6,840.2 542.9,861.2 545.3,823.4 547.7,800.4 550.1,765.0 552.5,781.7 554.9,808.7 557.3,813.2 559.7,830.9 562.1,842.5 564.5,813.9 566.9,801.1 569.3,808.1 571.7,826.0 574.1,818.4 576.5,803.1 578.9,818.5 581.3,804.4 583.6,775.8 586.0,769.7 588.4,775.3 590.8,779.8 593.2,799.9 595.6,808.5 598.0,841.8 600.4,788.9 602.8,788.0 605.2,750.2 607.6,753.2 610.0,734.9 612.4,766.9 614.8,828.3 617.2,793.7 619.6,800.3 621.9,784.2 624.3,787.6 626.7,801.3 629.1,794.7 631.5,791.0 633.9,793.5 636.3,801.1 638.7,772.7 641.1,810.0 643.5,793.0 645.9,778.5 648.3,783.4 650.7,764.9 653.1,790.4 655.5,769.3 657.9,786.7 660.2,775.3 662.6,807.8 665.0,832.7 667.4,833.6 669.8,839.4 672.2,797.3 674.6,818.7 677.0,805.6 679.4,823.2 681.8,818.0 684.2,824.0 686.6,837.4 689.0,823.3 691.4,827.5 693.8,801.4 696.2,814.0 698.5,828.6 700.9,843.0 703.3,842.0 705.7,849.1 708.1,833.2 710.5,833.5 712.9,841.4 715.3,844.0 717.7,849.3 720.1,846.4 722.5,833.9 724.9,825.5 727.3,822.7 729.7,821.7 732.1,798.6 734.5,817.3 736.8,792.0 739.2,799.3 741.6,798.0 744.0,784.3 746.4,827.2 748.8,824.5 751.2,795.1 753.6,807.4 756.0,787.2"/>
<text x="430.0" y="954.0" fill="#374151" font-size="16" font-family="Inter, Arial, sans-serif" text-anchor="middle" font-weight="normal">symbol index within the last 260-symbol window</text>
<text x="28.0" y="730.0" fill="#374151" font-size="16" font-family="Inter, Arial, sans-serif" text-anchor="middle" font-weight="normal" transform="rotate(-90 28 730.0)">freq estimate residual (mrad/sample)</text>
<rect x="860.0" y="560.0" width="660.0" height="340.0" rx="18" fill="#ffffff" stroke="#e2e8f0"/>
<text x="878.0" y="588.0" fill="#334155" font-size="16" font-family="Inter, Arial, sans-serif" text-anchor="start" font-weight="700">Speed versus calm, side by side</text>
<text x="878.0" y="612.0" fill="#526274" font-size="14" font-family="Inter, Arial, sans-serif" text-anchor="start" font-weight="normal"><tspan x="878.0" dy="0">left bars: phase-only settle time in the harder case</tspan><tspan x="878.0" dy="17">right bars: tracking jitter after freq+phase acquisition</tspan></text>
<text x="878.0" y="680.0" fill="#0f766e" font-size="14" font-family="Inter, Arial, sans-serif" text-anchor="start" font-weight="700">gentle</text>
<rect x="980.0" y="662.0" width="152.0" height="18" rx="9" fill="#e2e8f0"/>
<rect x="980.0" y="662.0" width="152.0" height="18" rx="9" fill="#0f766e" fill-opacity="0.85"/>
<text x="1142.0" y="676.0" fill="#334155" font-size="13" font-family="Inter, Arial, sans-serif" text-anchor="start" font-weight="700">no settle</text>
<rect x="1206.0" y="662.0" width="148.0" height="18" rx="9" fill="#e2e8f0"/>
<rect x="1206.0" y="662.0" width="30.7" height="18" rx="9" fill="#0f766e" fill-opacity="0.55"/>
<text x="1418.0" y="676.0" fill="#334155" font-size="12" font-family="Inter, Arial, sans-serif" text-anchor="end" font-weight="700">0.47 mrad/sample</text>
<text x="1206.0" y="698.0" fill="#64748b" font-size="12" font-family="Inter, Arial, sans-serif" text-anchor="start" font-weight="normal">tail RMS 0.113 · |Costas err| 0.093</text>
<text x="878.0" y="752.0" fill="#2563eb" font-size="14" font-family="Inter, Arial, sans-serif" text-anchor="start" font-weight="700">default</text>
<rect x="980.0" y="734.0" width="152.0" height="18" rx="9" fill="#e2e8f0"/>
<rect x="980.0" y="734.0" width="42.8" height="18" rx="9" fill="#2563eb" fill-opacity="0.85"/>
<text x="1142.0" y="748.0" fill="#334155" font-size="13" font-family="Inter, Arial, sans-serif" text-anchor="start" font-weight="700">422 sym</text>
<rect x="1206.0" y="734.0" width="148.0" height="18" rx="9" fill="#e2e8f0"/>
<rect x="1206.0" y="734.0" width="64.7" height="18" rx="9" fill="#2563eb" fill-opacity="0.55"/>
<text x="1418.0" y="748.0" fill="#334155" font-size="12" font-family="Inter, Arial, sans-serif" text-anchor="end" font-weight="700">0.98 mrad/sample</text>
<text x="1206.0" y="770.0" fill="#64748b" font-size="12" font-family="Inter, Arial, sans-serif" text-anchor="start" font-weight="normal">tail RMS 0.114 · |Costas err| 0.095</text>
<text x="878.0" y="824.0" fill="#dc2626" font-size="14" font-family="Inter, Arial, sans-serif" text-anchor="start" font-weight="700">aggressive</text>
<rect x="980.0" y="806.0" width="152.0" height="18" rx="9" fill="#e2e8f0"/>
<rect x="980.0" y="806.0" width="8.9" height="18" rx="9" fill="#dc2626" fill-opacity="0.85"/>
<text x="1142.0" y="820.0" fill="#334155" font-size="13" font-family="Inter, Arial, sans-serif" text-anchor="start" font-weight="700">88 sym</text>
<rect x="1206.0" y="806.0" width="148.0" height="18" rx="9" fill="#e2e8f0"/>
<rect x="1206.0" y="806.0" width="134.5" height="18" rx="9" fill="#dc2626" fill-opacity="0.55"/>
<text x="1418.0" y="820.0" fill="#334155" font-size="12" font-family="Inter, Arial, sans-serif" text-anchor="end" font-weight="700">2.04 mrad/sample</text>
<text x="1206.0" y="842.0" fill="#64748b" font-size="12" font-family="Inter, Arial, sans-serif" text-anchor="start" font-weight="normal">tail RMS 0.117 · |Costas err| 0.099</text>
<text x="1056.0" y="870.0" fill="#374151" font-size="14" font-family="Inter, Arial, sans-serif" text-anchor="middle" font-weight="700">settle time</text>
<text x="1280.0" y="870.0" fill="#374151" font-size="14" font-family="Inter, Arial, sans-serif" text-anchor="middle" font-weight="700">frequency jitter</text>
<text x="878.0" y="814.0" fill="#475569" font-size="12" font-family="Inter, Arial, sans-serif" text-anchor="start" font-weight="normal"><tspan x="878.0" dy="0">No single loop gain wins everywhere.</tspan><tspan x="878.0" dy="15">Rough handoffs reward aggression.</tspan><tspan x="878.0" dy="15">Good handoffs reward calm.</tspan></text>
</svg>
