<svg xmlns="http://www.w3.org/2000/svg" viewBox="0 0 1100 680" width="1100" height="680">
<rect width="100%" height="100%" fill="#f8fafc"/>
<text x="550.0" y="42.0" fill="#111827" font-size="28" font-family="Inter, Arial, sans-serif" text-anchor="middle" font-weight="700">Costas loop offset sweep</text>
<text x="550.0" y="70.0" fill="#475569" font-size="16" font-family="Inter, Arial, sans-serif" text-anchor="middle" font-weight="normal">Same QPSK setup, same loop gains. Only the carrier offset changes.</text>
<line x1="90.0" y1="90.0" x2="90.0" y2="590.0" stroke="#334155" stroke-width="2.0"/>
<line x1="90.0" y1="590.0" x2="1060.0" y2="590.0" stroke="#334155" stroke-width="2.0"/>
<line x1="90.0" y1="90.0" x2="1060.0" y2="90.0" stroke="#e2e8f0" stroke-width="1.0" stroke-dasharray="4 6"/>
<text x="76.0" y="95.0" fill="#64748b" font-size="13" font-family="Inter, Arial, sans-serif" text-anchor="end" font-weight="normal">0.78</text>
<line x1="90.0" y1="190.0" x2="1060.0" y2="190.0" stroke="#e2e8f0" stroke-width="1.0" stroke-dasharray="4 6"/>
<text x="76.0" y="195.0" fill="#64748b" font-size="13" font-family="Inter, Arial, sans-serif" text-anchor="end" font-weight="normal">0.62</text>
<line x1="90.0" y1="290.0" x2="1060.0" y2="290.0" stroke="#e2e8f0" stroke-width="1.0" stroke-dasharray="4 6"/>
<text x="76.0" y="295.0" fill="#64748b" font-size="13" font-family="Inter, Arial, sans-serif" text-anchor="end" font-weight="normal">0.47</text>
<line x1="90.0" y1="390.0" x2="1060.0" y2="390.0" stroke="#e2e8f0" stroke-width="1.0" stroke-dasharray="4 6"/>
<text x="76.0" y="395.0" fill="#64748b" font-size="13" font-family="Inter, Arial, sans-serif" text-anchor="end" font-weight="normal">0.31</text>
<line x1="90.0" y1="490.0" x2="1060.0" y2="490.0" stroke="#e2e8f0" stroke-width="1.0" stroke-dasharray="4 6"/>
<text x="76.0" y="495.0" fill="#64748b" font-size="13" font-family="Inter, Arial, sans-serif" text-anchor="end" font-weight="normal">0.16</text>
<line x1="90.0" y1="590.0" x2="1060.0" y2="590.0" stroke="#e2e8f0" stroke-width="1.0" stroke-dasharray="4 6"/>
<text x="76.0" y="595.0" fill="#64748b" font-size="13" font-family="Inter, Arial, sans-serif" text-anchor="end" font-weight="normal">0.00</text>
<line x1="90.0" y1="90.0" x2="90.0" y2="590.0" stroke="#eef2f7" stroke-width="1.0" stroke-dasharray="4 6"/>
<text x="90.0" y="616.0" fill="#64748b" font-size="13" font-family="Inter, Arial, sans-serif" text-anchor="middle" font-weight="normal">-0.500</text>
<line x1="211.2" y1="90.0" x2="211.2" y2="590.0" stroke="#eef2f7" stroke-width="1.0" stroke-dasharray="4 6"/>
<text x="211.2" y="616.0" fill="#64748b" font-size="13" font-family="Inter, Arial, sans-serif" text-anchor="middle" font-weight="normal">-0.375</text>
<line x1="332.5" y1="90.0" x2="332.5" y2="590.0" stroke="#eef2f7" stroke-width="1.0" stroke-dasharray="4 6"/>
<text x="332.5" y="616.0" fill="#64748b" font-size="13" font-family="Inter, Arial, sans-serif" text-anchor="middle" font-weight="normal">-0.250</text>
<line x1="453.8" y1="90.0" x2="453.8" y2="590.0" stroke="#eef2f7" stroke-width="1.0" stroke-dasharray="4 6"/>
<text x="453.8" y="616.0" fill="#64748b" font-size="13" font-family="Inter, Arial, sans-serif" text-anchor="middle" font-weight="normal">-0.125</text>
<line x1="575.0" y1="90.0" x2="575.0" y2="590.0" stroke="#eef2f7" stroke-width="1.0" stroke-dasharray="4 6"/>
<text x="575.0" y="616.0" fill="#64748b" font-size="13" font-family="Inter, Arial, sans-serif" text-anchor="middle" font-weight="normal">+0.000</text>
<line x1="696.2" y1="90.0" x2="696.2" y2="590.0" stroke="#eef2f7" stroke-width="1.0" stroke-dasharray="4 6"/>
<text x="696.2" y="616.0" fill="#64748b" font-size="13" font-family="Inter, Arial, sans-serif" text-anchor="middle" font-weight="normal">+0.125</text>
<line x1="817.5" y1="90.0" x2="817.5" y2="590.0" stroke="#eef2f7" stroke-width="1.0" stroke-dasharray="4 6"/>
<text x="817.5" y="616.0" fill="#64748b" font-size="13" font-family="Inter, Arial, sans-serif" text-anchor="middle" font-weight="normal">+0.250</text>
<line x1="938.8" y1="90.0" x2="938.8" y2="590.0" stroke="#eef2f7" stroke-width="1.0" stroke-dasharray="4 6"/>
<text x="938.8" y="616.0" fill="#64748b" font-size="13" font-family="Inter, Arial, sans-serif" text-anchor="middle" font-weight="normal">+0.375</text>
<line x1="1060.0" y1="90.0" x2="1060.0" y2="590.0" stroke="#eef2f7" stroke-width="1.0" stroke-dasharray="4 6"/>
<text x="1060.0" y="616.0" fill="#64748b" font-size="13" font-family="Inter, Arial, sans-serif" text-anchor="middle" font-weight="normal">+0.500</text>
<polyline fill="none" stroke="#ef4444" stroke-width="3" points="90.0,300.1 138.5,301.9 187.0,301.1 235.5,303.1 284.0,300.3 332.5,301.0 381.0,302.3 429.5,302.0 478.0,301.7 526.5,298.9 575.0,135.5 623.5,300.6 672.0,302.6 720.5,301.2 769.0,302.7 817.5,301.7 866.0,303.0 914.5,300.8 963.0,302.7 1011.5,301.5 1060.0,300.7"/>
<polyline fill="none" stroke="#f59e0b" stroke-width="3" points="90.0,301.0 138.5,300.7 187.0,302.3 235.5,299.4 284.0,300.8 332.5,302.1 381.0,300.7 429.5,301.8 478.0,300.2 526.5,304.4 575.0,554.0 623.5,301.0 672.0,301.2 720.5,302.3 769.0,302.6 817.5,302.8 866.0,300.6 914.5,301.0 963.0,304.3 1011.5,302.2 1060.0,302.3"/>
<polyline fill="none" stroke="#2563eb" stroke-width="3" points="90.0,293.5 138.5,286.5 187.0,287.6 235.5,399.2 284.0,447.9 332.5,552.0 381.0,553.0 429.5,553.0 478.0,552.9 526.5,552.9 575.0,553.0 623.5,552.9 672.0,553.0 720.5,553.2 769.0,553.0 817.5,535.1 866.0,428.0 914.5,397.9 963.0,289.6 1011.5,285.7 1060.0,294.9"/>
<text x="880.0" y="114.0" fill="#ef4444" font-size="14" font-family="Inter, Arial, sans-serif" text-anchor="start" font-weight="700">raw</text>
<text x="880.0" y="136.0" fill="#f59e0b" font-size="14" font-family="Inter, Arial, sans-serif" text-anchor="start" font-weight="700">after coarse phase</text>
<text x="880.0" y="158.0" fill="#2563eb" font-size="14" font-family="Inter, Arial, sans-serif" text-anchor="start" font-weight="700">after Costas tracking</text>
<text x="575.0" y="654.0" fill="#374151" font-size="16" font-family="Inter, Arial, sans-serif" text-anchor="middle" font-weight="normal">carrier offset (rad/sample)</text>
<text x="24.0" y="340.0" fill="#374151" font-size="16" font-family="Inter, Arial, sans-serif" text-anchor="middle" font-weight="normal">RMS distance to nearest QPSK corner</text>
</svg>
