<svg xmlns="http://www.w3.org/2000/svg" viewBox="0 0 1280 980" width="1280" height="980">
<rect width="100%" height="100%" fill="#f8fafc"/>
<text x="640.0" y="42.0" fill="#111827" font-size="28" font-family="Inter, Arial, sans-serif" text-anchor="middle" font-weight="700">QPSK carrier acquisition: phase-only versus 4th-power frequency help</text>
<text x="640.0" y="68.0" fill="#475569" font-size="16" font-family="Inter, Arial, sans-serif" text-anchor="middle" font-weight="normal"><tspan x="640.0" dy="0">The Costas loop can only clean up what the front end hands it.</tspan><tspan x="640.0" dy="18">A 4th-power frequency estimate widens that handoff range.</tspan></text>
<rect x="90.0" y="120.0" width="1140.0" height="320.0" rx="18" fill="#ffffff" stroke="#e2e8f0"/>
<text x="108.0" y="148.0" fill="#334155" font-size="16" font-family="Inter, Arial, sans-serif" text-anchor="start" font-weight="700">Tracked RMS error across carrier offset</text>
<line x1="138.0" y1="120.0" x2="1206.0" y2="120.0" stroke="#e2e8f0" stroke-width="1.0" stroke-dasharray="4 6"/>
<text x="130.0" y="125.0" fill="#64748b" font-size="13" font-family="Inter, Arial, sans-serif" text-anchor="end" font-weight="normal">0.76</text>
<line x1="138.0" y1="173.3" x2="1206.0" y2="173.3" stroke="#e2e8f0" stroke-width="1.0" stroke-dasharray="4 6"/>
<text x="130.0" y="178.3" fill="#64748b" font-size="13" font-family="Inter, Arial, sans-serif" text-anchor="end" font-weight="normal">0.64</text>
<line x1="138.0" y1="226.7" x2="1206.0" y2="226.7" stroke="#e2e8f0" stroke-width="1.0" stroke-dasharray="4 6"/>
<text x="130.0" y="231.7" fill="#64748b" font-size="13" font-family="Inter, Arial, sans-serif" text-anchor="end" font-weight="normal">0.51</text>
<line x1="138.0" y1="280.0" x2="1206.0" y2="280.0" stroke="#e2e8f0" stroke-width="1.0" stroke-dasharray="4 6"/>
<text x="130.0" y="285.0" fill="#64748b" font-size="13" font-family="Inter, Arial, sans-serif" text-anchor="end" font-weight="normal">0.38</text>
<line x1="138.0" y1="333.3" x2="1206.0" y2="333.3" stroke="#e2e8f0" stroke-width="1.0" stroke-dasharray="4 6"/>
<text x="130.0" y="338.3" fill="#64748b" font-size="13" font-family="Inter, Arial, sans-serif" text-anchor="end" font-weight="normal">0.25</text>
<line x1="138.0" y1="386.7" x2="1206.0" y2="386.7" stroke="#e2e8f0" stroke-width="1.0" stroke-dasharray="4 6"/>
<text x="130.0" y="391.7" fill="#64748b" font-size="13" font-family="Inter, Arial, sans-serif" text-anchor="end" font-weight="normal">0.13</text>
<line x1="138.0" y1="440.0" x2="1206.0" y2="440.0" stroke="#e2e8f0" stroke-width="1.0" stroke-dasharray="4 6"/>
<text x="130.0" y="445.0" fill="#64748b" font-size="13" font-family="Inter, Arial, sans-serif" text-anchor="end" font-weight="normal">0.00</text>
<line x1="138.0" y1="152.0" x2="138.0" y2="440.0" stroke="#eef2f7" stroke-width="1.0" stroke-dasharray="4 6"/>
<text x="138.0" y="464.0" fill="#64748b" font-size="13" font-family="Inter, Arial, sans-serif" text-anchor="middle" font-weight="normal">-0.75</text>
<line x1="271.5" y1="152.0" x2="271.5" y2="440.0" stroke="#eef2f7" stroke-width="1.0" stroke-dasharray="4 6"/>
<text x="271.5" y="464.0" fill="#64748b" font-size="13" font-family="Inter, Arial, sans-serif" text-anchor="middle" font-weight="normal">-0.56</text>
<line x1="405.0" y1="152.0" x2="405.0" y2="440.0" stroke="#eef2f7" stroke-width="1.0" stroke-dasharray="4 6"/>
<text x="405.0" y="464.0" fill="#64748b" font-size="13" font-family="Inter, Arial, sans-serif" text-anchor="middle" font-weight="normal">-0.38</text>
<line x1="538.5" y1="152.0" x2="538.5" y2="440.0" stroke="#eef2f7" stroke-width="1.0" stroke-dasharray="4 6"/>
<text x="538.5" y="464.0" fill="#64748b" font-size="13" font-family="Inter, Arial, sans-serif" text-anchor="middle" font-weight="normal">-0.19</text>
<line x1="672.0" y1="152.0" x2="672.0" y2="440.0" stroke="#eef2f7" stroke-width="1.0" stroke-dasharray="4 6"/>
<text x="672.0" y="464.0" fill="#64748b" font-size="13" font-family="Inter, Arial, sans-serif" text-anchor="middle" font-weight="normal">+0.00</text>
<line x1="805.5" y1="152.0" x2="805.5" y2="440.0" stroke="#eef2f7" stroke-width="1.0" stroke-dasharray="4 6"/>
<text x="805.5" y="464.0" fill="#64748b" font-size="13" font-family="Inter, Arial, sans-serif" text-anchor="middle" font-weight="normal">+0.19</text>
<line x1="939.0" y1="152.0" x2="939.0" y2="440.0" stroke="#eef2f7" stroke-width="1.0" stroke-dasharray="4 6"/>
<text x="939.0" y="464.0" fill="#64748b" font-size="13" font-family="Inter, Arial, sans-serif" text-anchor="middle" font-weight="normal">+0.38</text>
<line x1="1072.5" y1="152.0" x2="1072.5" y2="440.0" stroke="#eef2f7" stroke-width="1.0" stroke-dasharray="4 6"/>
<text x="1072.5" y="464.0" fill="#64748b" font-size="13" font-family="Inter, Arial, sans-serif" text-anchor="middle" font-weight="normal">+0.56</text>
<line x1="1206.0" y1="152.0" x2="1206.0" y2="440.0" stroke="#eef2f7" stroke-width="1.0" stroke-dasharray="4 6"/>
<text x="1206.0" y="464.0" fill="#64748b" font-size="13" font-family="Inter, Arial, sans-serif" text-anchor="middle" font-weight="normal">+0.75</text>
<line x1="138.0" y1="152.0" x2="138.0" y2="440.0" stroke="#334155" stroke-width="2.0"/>
<line x1="138.0" y1="440.0" x2="1206.0" y2="440.0" stroke="#334155" stroke-width="2.0"/>
<polyline fill="none" stroke="#cbd5e1" stroke-width="2.5" points="138.0,252.1 173.6,251.1 209.2,252.6 244.8,251.8 280.4,252.0 316.0,251.1 351.6,252.2 387.2,251.7 422.8,253.0 458.4,251.2 494.0,251.6 529.6,252.4 565.2,252.3 600.8,252.1 636.4,250.3 672.0,143.7 707.6,251.4 743.2,252.7 778.8,251.7 814.4,252.7 850.0,252.1 885.6,252.9 921.2,251.5 956.8,252.7 992.4,251.9 1028.0,251.4 1063.6,251.8 1099.2,252.6 1134.8,252.5 1170.4,252.4 1206.0,252.6"/>
<polyline fill="none" stroke="#ef4444" stroke-width="3.2" points="138.0,261.8 173.6,261.3 209.2,249.9 244.8,244.8 280.4,247.7 316.0,246.7 351.6,242.1 387.2,242.9 422.8,315.6 458.4,347.4 494.0,415.2 529.6,415.9 565.2,415.9 600.8,415.8 636.4,415.8 672.0,415.9 707.6,415.8 743.2,415.9 778.8,416.0 814.4,415.9 850.0,404.2 885.6,334.4 921.2,314.8 956.8,244.2 992.4,241.6 1028.0,247.6 1063.6,247.3 1099.2,242.6 1134.8,240.3 1170.4,261.5 1206.0,260.4"/>
<polyline fill="none" stroke="#1d4ed8" stroke-width="3.6" points="138.0,415.9 173.6,415.9 209.2,415.9 244.8,415.9 280.4,415.8 316.0,415.8 351.6,415.8 387.2,415.8 422.8,415.8 458.4,415.9 494.0,415.8 529.6,415.9 565.2,415.9 600.8,415.8 636.4,415.8 672.0,415.9 707.6,415.8 743.2,415.9 778.8,416.0 814.4,415.9 850.0,416.0 885.6,415.9 921.2,416.1 956.8,416.0 992.4,415.9 1028.0,415.9 1063.6,416.0 1099.2,416.0 1134.8,415.9 1170.4,415.9 1206.0,415.8"/>
<rect x="810.0" y="468.0" width="340" height="82" rx="14" fill="#ffffff" stroke="#e2e8f0"/>
<text x="826.0" y="492.0" fill="#94a3b8" font-size="14" font-family="Inter, Arial, sans-serif" text-anchor="start" font-weight="700">raw received cloud</text>
<text x="826.0" y="514.0" fill="#ef4444" font-size="14" font-family="Inter, Arial, sans-serif" text-anchor="start" font-weight="700">phase-only coarse + Costas</text>
<text x="826.0" y="536.0" fill="#1d4ed8" font-size="14" font-family="Inter, Arial, sans-serif" text-anchor="start" font-weight="700">freq + phase coarse + Costas</text>
<text x="660.0" y="494.0" fill="#374151" font-size="16" font-family="Inter, Arial, sans-serif" text-anchor="middle" font-weight="normal">carrier offset (rad/sample)</text>
<text x="30.0" y="280.0" fill="#374151" font-size="16" font-family="Inter, Arial, sans-serif" text-anchor="middle" font-weight="normal" transform="rotate(-90 30 280.0)">RMS distance to nearest QPSK corner</text>
<rect x="90.0" y="560.0" width="550.0" height="340.0" rx="18" fill="#ffffff" stroke="#e2e8f0"/>
<text x="108.0" y="588.0" fill="#334155" font-size="16" font-family="Inter, Arial, sans-serif" text-anchor="start" font-weight="700">4th-power coarse frequency estimate</text>
<line x1="138.0" y1="592.0" x2="616.0" y2="592.0" stroke="#e2e8f0" stroke-width="1.0" stroke-dasharray="4 6"/>
<text x="130.0" y="597.0" fill="#64748b" font-size="13" font-family="Inter, Arial, sans-serif" text-anchor="end" font-weight="normal">+0.75</text>
<line x1="138.0" y1="639.3" x2="616.0" y2="639.3" stroke="#e2e8f0" stroke-width="1.0" stroke-dasharray="4 6"/>
<text x="130.0" y="644.3" fill="#64748b" font-size="13" font-family="Inter, Arial, sans-serif" text-anchor="end" font-weight="normal">+0.50</text>
<line x1="138.0" y1="686.7" x2="616.0" y2="686.7" stroke="#e2e8f0" stroke-width="1.0" stroke-dasharray="4 6"/>
<text x="130.0" y="691.7" fill="#64748b" font-size="13" font-family="Inter, Arial, sans-serif" text-anchor="end" font-weight="normal">+0.25</text>
<line x1="138.0" y1="734.0" x2="616.0" y2="734.0" stroke="#e2e8f0" stroke-width="1.0" stroke-dasharray="4 6"/>
<text x="130.0" y="739.0" fill="#64748b" font-size="13" font-family="Inter, Arial, sans-serif" text-anchor="end" font-weight="normal">+0.00</text>
<line x1="138.0" y1="781.3" x2="616.0" y2="781.3" stroke="#e2e8f0" stroke-width="1.0" stroke-dasharray="4 6"/>
<text x="130.0" y="786.3" fill="#64748b" font-size="13" font-family="Inter, Arial, sans-serif" text-anchor="end" font-weight="normal">-0.25</text>
<line x1="138.0" y1="828.7" x2="616.0" y2="828.7" stroke="#e2e8f0" stroke-width="1.0" stroke-dasharray="4 6"/>
<text x="130.0" y="833.7" fill="#64748b" font-size="13" font-family="Inter, Arial, sans-serif" text-anchor="end" font-weight="normal">-0.50</text>
<line x1="138.0" y1="876.0" x2="616.0" y2="876.0" stroke="#e2e8f0" stroke-width="1.0" stroke-dasharray="4 6"/>
<text x="130.0" y="881.0" fill="#64748b" font-size="13" font-family="Inter, Arial, sans-serif" text-anchor="end" font-weight="normal">-0.75</text>
<line x1="138.0" y1="592.0" x2="138.0" y2="876.0" stroke="#eef2f7" stroke-width="1.0" stroke-dasharray="4 6"/>
<text x="138.0" y="924.0" fill="#64748b" font-size="13" font-family="Inter, Arial, sans-serif" text-anchor="middle" font-weight="normal">-0.75</text>
<line x1="217.7" y1="592.0" x2="217.7" y2="876.0" stroke="#eef2f7" stroke-width="1.0" stroke-dasharray="4 6"/>
<text x="217.7" y="924.0" fill="#64748b" font-size="13" font-family="Inter, Arial, sans-serif" text-anchor="middle" font-weight="normal">-0.50</text>
<line x1="297.3" y1="592.0" x2="297.3" y2="876.0" stroke="#eef2f7" stroke-width="1.0" stroke-dasharray="4 6"/>
<text x="297.3" y="924.0" fill="#64748b" font-size="13" font-family="Inter, Arial, sans-serif" text-anchor="middle" font-weight="normal">-0.25</text>
<line x1="377.0" y1="592.0" x2="377.0" y2="876.0" stroke="#eef2f7" stroke-width="1.0" stroke-dasharray="4 6"/>
<text x="377.0" y="924.0" fill="#64748b" font-size="13" font-family="Inter, Arial, sans-serif" text-anchor="middle" font-weight="normal">+0.00</text>
<line x1="456.7" y1="592.0" x2="456.7" y2="876.0" stroke="#eef2f7" stroke-width="1.0" stroke-dasharray="4 6"/>
<text x="456.7" y="924.0" fill="#64748b" font-size="13" font-family="Inter, Arial, sans-serif" text-anchor="middle" font-weight="normal">+0.25</text>
<line x1="536.3" y1="592.0" x2="536.3" y2="876.0" stroke="#eef2f7" stroke-width="1.0" stroke-dasharray="4 6"/>
<text x="536.3" y="924.0" fill="#64748b" font-size="13" font-family="Inter, Arial, sans-serif" text-anchor="middle" font-weight="normal">+0.50</text>
<line x1="616.0" y1="592.0" x2="616.0" y2="876.0" stroke="#eef2f7" stroke-width="1.0" stroke-dasharray="4 6"/>
<text x="616.0" y="924.0" fill="#64748b" font-size="13" font-family="Inter, Arial, sans-serif" text-anchor="middle" font-weight="normal">+0.75</text>
<line x1="138.0" y1="592.0" x2="138.0" y2="876.0" stroke="#334155" stroke-width="2.0"/>
<line x1="138.0" y1="876.0" x2="616.0" y2="876.0" stroke="#334155" stroke-width="2.0"/>
<polyline fill="none" stroke="#94a3b8" stroke-width="2.0" stroke-dasharray="8 8" points="138.0,900.0 616.0,560.0"/>
<circle cx="138.0" cy="900.1" r="4.0" fill="#2563eb" fill-opacity="0.700"/>
<circle cx="153.9" cy="888.6" r="4.0" fill="#2563eb" fill-opacity="0.700"/>
<circle cx="169.9" cy="877.3" r="4.0" fill="#2563eb" fill-opacity="0.700"/>
<circle cx="185.8" cy="865.9" r="4.0" fill="#2563eb" fill-opacity="0.700"/>
<circle cx="201.7" cy="854.7" r="4.0" fill="#2563eb" fill-opacity="0.700"/>
<circle cx="217.7" cy="843.3" r="4.0" fill="#2563eb" fill-opacity="0.700"/>
<circle cx="233.6" cy="832.1" r="4.0" fill="#2563eb" fill-opacity="0.700"/>
<circle cx="249.5" cy="820.6" r="4.0" fill="#2563eb" fill-opacity="0.700"/>
<circle cx="265.5" cy="809.4" r="4.0" fill="#2563eb" fill-opacity="0.700"/>
<circle cx="281.4" cy="797.9" r="4.0" fill="#2563eb" fill-opacity="0.700"/>
<circle cx="297.3" cy="786.7" r="4.0" fill="#2563eb" fill-opacity="0.700"/>
<circle cx="313.3" cy="775.3" r="4.0" fill="#2563eb" fill-opacity="0.700"/>
<circle cx="329.2" cy="764.0" r="4.0" fill="#2563eb" fill-opacity="0.700"/>
<circle cx="345.1" cy="752.6" r="4.0" fill="#2563eb" fill-opacity="0.700"/>
<circle cx="361.1" cy="741.4" r="4.0" fill="#2563eb" fill-opacity="0.700"/>
<circle cx="377.0" cy="730.0" r="4.0" fill="#2563eb" fill-opacity="0.700"/>
<circle cx="392.9" cy="718.8" r="4.0" fill="#2563eb" fill-opacity="0.700"/>
<circle cx="408.9" cy="707.3" r="4.0" fill="#2563eb" fill-opacity="0.700"/>
<circle cx="424.8" cy="696.2" r="4.0" fill="#2563eb" fill-opacity="0.700"/>
<circle cx="440.7" cy="684.6" r="4.0" fill="#2563eb" fill-opacity="0.700"/>
<circle cx="456.7" cy="673.4" r="4.0" fill="#2563eb" fill-opacity="0.700"/>
<circle cx="472.6" cy="662.0" r="4.0" fill="#2563eb" fill-opacity="0.700"/>
<circle cx="488.5" cy="650.8" r="4.0" fill="#2563eb" fill-opacity="0.700"/>
<circle cx="504.5" cy="639.3" r="4.0" fill="#2563eb" fill-opacity="0.700"/>
<circle cx="520.4" cy="628.1" r="4.0" fill="#2563eb" fill-opacity="0.700"/>
<circle cx="536.3" cy="616.6" r="4.0" fill="#2563eb" fill-opacity="0.700"/>
<circle cx="552.3" cy="605.4" r="4.0" fill="#2563eb" fill-opacity="0.700"/>
<circle cx="568.2" cy="594.1" r="4.0" fill="#2563eb" fill-opacity="0.700"/>
<circle cx="584.1" cy="582.9" r="4.0" fill="#2563eb" fill-opacity="0.700"/>
<circle cx="600.1" cy="571.4" r="4.0" fill="#2563eb" fill-opacity="0.700"/>
<circle cx="616.0" cy="560.1" r="4.0" fill="#2563eb" fill-opacity="0.700"/>
<text x="365.0" y="954.0" fill="#374151" font-size="16" font-family="Inter, Arial, sans-serif" text-anchor="middle" font-weight="normal">true carrier offset (rad/sample)</text>
<text x="34.0" y="730.0" fill="#374151" font-size="16" font-family="Inter, Arial, sans-serif" text-anchor="middle" font-weight="normal" transform="rotate(-90 34 730.0)">estimated offset</text>
<text x="160.0" y="896.0" fill="#475569" font-size="14" font-family="Inter, Arial, sans-serif" text-anchor="start" font-weight="normal"><tspan x="160.0" dy="0">dashed line = perfect estimate</tspan><tspan x="160.0" dy="17">scatter = what the 4th-power front end hands the loop</tspan></text>
<rect x="710.0" y="560.0" width="520.0" height="340.0" rx="18" fill="#ffffff" stroke="#e2e8f0"/>
<text x="728.0" y="588.0" fill="#334155" font-size="16" font-family="Inter, Arial, sans-serif" text-anchor="start" font-weight="700">Acquisition regime map</text>
<text x="728.0" y="612.0" fill="#64748b" font-size="13" font-family="Inter, Arial, sans-serif" text-anchor="start" font-weight="normal"><tspan x="728.0" dy="0">clean &lt; 0.10 RMS</tspan><tspan x="728.0" dy="16">marginal &lt; 0.24 RMS</tspan><tspan x="728.0" dy="16">failed otherwise</tspan></text>
<text x="728.0" y="662.0" fill="#334155" font-size="14" font-family="Inter, Arial, sans-serif" text-anchor="start" font-weight="700">phase-only + Costas</text>
<rect x="734.0" y="680.0" width="15.7" height="74.0" fill="#ef4444" fill-opacity="0.82"/>
<rect x="749.7" y="680.0" width="15.7" height="74.0" fill="#ef4444" fill-opacity="0.82"/>
<rect x="765.5" y="680.0" width="15.7" height="74.0" fill="#ef4444" fill-opacity="0.82"/>
<rect x="781.2" y="680.0" width="15.7" height="74.0" fill="#ef4444" fill-opacity="0.82"/>
<rect x="796.9" y="680.0" width="15.7" height="74.0" fill="#ef4444" fill-opacity="0.82"/>
<rect x="812.7" y="680.0" width="15.7" height="74.0" fill="#ef4444" fill-opacity="0.82"/>
<rect x="828.4" y="680.0" width="15.7" height="74.0" fill="#ef4444" fill-opacity="0.82"/>
<rect x="844.1" y="680.0" width="15.7" height="74.0" fill="#ef4444" fill-opacity="0.82"/>
<rect x="859.9" y="680.0" width="15.7" height="74.0" fill="#ef4444" fill-opacity="0.82"/>
<rect x="875.6" y="680.0" width="15.7" height="74.0" fill="#f59e0b" fill-opacity="0.82"/>
<rect x="891.3" y="680.0" width="15.7" height="74.0" fill="#10b981" fill-opacity="0.82"/>
<rect x="907.1" y="680.0" width="15.7" height="74.0" fill="#10b981" fill-opacity="0.82"/>
<rect x="922.8" y="680.0" width="15.7" height="74.0" fill="#10b981" fill-opacity="0.82"/>
<rect x="938.5" y="680.0" width="15.7" height="74.0" fill="#10b981" fill-opacity="0.82"/>
<rect x="954.3" y="680.0" width="15.7" height="74.0" fill="#10b981" fill-opacity="0.82"/>
<rect x="970.0" y="680.0" width="15.7" height="74.0" fill="#10b981" fill-opacity="0.82"/>
<rect x="985.7" y="680.0" width="15.7" height="74.0" fill="#10b981" fill-opacity="0.82"/>
<rect x="1001.5" y="680.0" width="15.7" height="74.0" fill="#10b981" fill-opacity="0.82"/>
<rect x="1017.2" y="680.0" width="15.7" height="74.0" fill="#10b981" fill-opacity="0.82"/>
<rect x="1032.9" y="680.0" width="15.7" height="74.0" fill="#10b981" fill-opacity="0.82"/>
<rect x="1048.7" y="680.0" width="15.7" height="74.0" fill="#10b981" fill-opacity="0.82"/>
<rect x="1064.4" y="680.0" width="15.7" height="74.0" fill="#ef4444" fill-opacity="0.82"/>
<rect x="1080.1" y="680.0" width="15.7" height="74.0" fill="#ef4444" fill-opacity="0.82"/>
<rect x="1095.9" y="680.0" width="15.7" height="74.0" fill="#ef4444" fill-opacity="0.82"/>
<rect x="1111.6" y="680.0" width="15.7" height="74.0" fill="#ef4444" fill-opacity="0.82"/>
<rect x="1127.3" y="680.0" width="15.7" height="74.0" fill="#ef4444" fill-opacity="0.82"/>
<rect x="1143.1" y="680.0" width="15.7" height="74.0" fill="#ef4444" fill-opacity="0.82"/>
<rect x="1158.8" y="680.0" width="15.7" height="74.0" fill="#ef4444" fill-opacity="0.82"/>
<rect x="1174.5" y="680.0" width="15.7" height="74.0" fill="#ef4444" fill-opacity="0.82"/>
<rect x="1190.3" y="680.0" width="15.7" height="74.0" fill="#ef4444" fill-opacity="0.82"/>
<rect x="1206.0" y="680.0" width="4.0" height="74.0" fill="#ef4444" fill-opacity="0.82"/>
<rect x="734.0" y="680.0" width="472.0" height="74.0" fill="none" stroke="#cbd5e1"/>
<text x="728.0" y="784.0" fill="#334155" font-size="14" font-family="Inter, Arial, sans-serif" text-anchor="start" font-weight="700">freq + phase + Costas</text>
<rect x="734.0" y="802.0" width="15.7" height="74.0" fill="#10b981" fill-opacity="0.82"/>
<rect x="749.7" y="802.0" width="15.7" height="74.0" fill="#10b981" fill-opacity="0.82"/>
<rect x="765.5" y="802.0" width="15.7" height="74.0" fill="#10b981" fill-opacity="0.82"/>
<rect x="781.2" y="802.0" width="15.7" height="74.0" fill="#10b981" fill-opacity="0.82"/>
<rect x="796.9" y="802.0" width="15.7" height="74.0" fill="#10b981" fill-opacity="0.82"/>
<rect x="812.7" y="802.0" width="15.7" height="74.0" fill="#10b981" fill-opacity="0.82"/>
<rect x="828.4" y="802.0" width="15.7" height="74.0" fill="#10b981" fill-opacity="0.82"/>
<rect x="844.1" y="802.0" width="15.7" height="74.0" fill="#10b981" fill-opacity="0.82"/>
<rect x="859.9" y="802.0" width="15.7" height="74.0" fill="#10b981" fill-opacity="0.82"/>
<rect x="875.6" y="802.0" width="15.7" height="74.0" fill="#10b981" fill-opacity="0.82"/>
<rect x="891.3" y="802.0" width="15.7" height="74.0" fill="#10b981" fill-opacity="0.82"/>
<rect x="907.1" y="802.0" width="15.7" height="74.0" fill="#10b981" fill-opacity="0.82"/>
<rect x="922.8" y="802.0" width="15.7" height="74.0" fill="#10b981" fill-opacity="0.82"/>
<rect x="938.5" y="802.0" width="15.7" height="74.0" fill="#10b981" fill-opacity="0.82"/>
<rect x="954.3" y="802.0" width="15.7" height="74.0" fill="#10b981" fill-opacity="0.82"/>
<rect x="970.0" y="802.0" width="15.7" height="74.0" fill="#10b981" fill-opacity="0.82"/>
<rect x="985.7" y="802.0" width="15.7" height="74.0" fill="#10b981" fill-opacity="0.82"/>
<rect x="1001.5" y="802.0" width="15.7" height="74.0" fill="#10b981" fill-opacity="0.82"/>
<rect x="1017.2" y="802.0" width="15.7" height="74.0" fill="#10b981" fill-opacity="0.82"/>
<rect x="1032.9" y="802.0" width="15.7" height="74.0" fill="#10b981" fill-opacity="0.82"/>
<rect x="1048.7" y="802.0" width="15.7" height="74.0" fill="#10b981" fill-opacity="0.82"/>
<rect x="1064.4" y="802.0" width="15.7" height="74.0" fill="#10b981" fill-opacity="0.82"/>
<rect x="1080.1" y="802.0" width="15.7" height="74.0" fill="#10b981" fill-opacity="0.82"/>
<rect x="1095.9" y="802.0" width="15.7" height="74.0" fill="#10b981" fill-opacity="0.82"/>
<rect x="1111.6" y="802.0" width="15.7" height="74.0" fill="#10b981" fill-opacity="0.82"/>
<rect x="1127.3" y="802.0" width="15.7" height="74.0" fill="#10b981" fill-opacity="0.82"/>
<rect x="1143.1" y="802.0" width="15.7" height="74.0" fill="#10b981" fill-opacity="0.82"/>
<rect x="1158.8" y="802.0" width="15.7" height="74.0" fill="#10b981" fill-opacity="0.82"/>
<rect x="1174.5" y="802.0" width="15.7" height="74.0" fill="#10b981" fill-opacity="0.82"/>
<rect x="1190.3" y="802.0" width="15.7" height="74.0" fill="#10b981" fill-opacity="0.82"/>
<rect x="1206.0" y="802.0" width="4.0" height="74.0" fill="#10b981" fill-opacity="0.82"/>
<rect x="734.0" y="802.0" width="472.0" height="74.0" fill="none" stroke="#cbd5e1"/>
<line x1="734.0" y1="668.0" x2="734.0" y2="866.0" stroke="#eef2f7" stroke-width="1.0" stroke-dasharray="4 6"/>
<text x="734.0" y="892.0" fill="#64748b" font-size="13" font-family="Inter, Arial, sans-serif" text-anchor="middle" font-weight="normal">-0.75</text>
<line x1="812.7" y1="668.0" x2="812.7" y2="866.0" stroke="#eef2f7" stroke-width="1.0" stroke-dasharray="4 6"/>
<text x="812.7" y="892.0" fill="#64748b" font-size="13" font-family="Inter, Arial, sans-serif" text-anchor="middle" font-weight="normal">-0.50</text>
<line x1="891.3" y1="668.0" x2="891.3" y2="866.0" stroke="#eef2f7" stroke-width="1.0" stroke-dasharray="4 6"/>
<text x="891.3" y="892.0" fill="#64748b" font-size="13" font-family="Inter, Arial, sans-serif" text-anchor="middle" font-weight="normal">-0.25</text>
<line x1="970.0" y1="668.0" x2="970.0" y2="866.0" stroke="#eef2f7" stroke-width="1.0" stroke-dasharray="4 6"/>
<text x="970.0" y="892.0" fill="#64748b" font-size="13" font-family="Inter, Arial, sans-serif" text-anchor="middle" font-weight="normal">+0.00</text>
<line x1="1048.7" y1="668.0" x2="1048.7" y2="866.0" stroke="#eef2f7" stroke-width="1.0" stroke-dasharray="4 6"/>
<text x="1048.7" y="892.0" fill="#64748b" font-size="13" font-family="Inter, Arial, sans-serif" text-anchor="middle" font-weight="normal">+0.25</text>
<line x1="1127.3" y1="668.0" x2="1127.3" y2="866.0" stroke="#eef2f7" stroke-width="1.0" stroke-dasharray="4 6"/>
<text x="1127.3" y="892.0" fill="#64748b" font-size="13" font-family="Inter, Arial, sans-serif" text-anchor="middle" font-weight="normal">+0.50</text>
<line x1="1206.0" y1="668.0" x2="1206.0" y2="866.0" stroke="#eef2f7" stroke-width="1.0" stroke-dasharray="4 6"/>
<text x="1206.0" y="892.0" fill="#64748b" font-size="13" font-family="Inter, Arial, sans-serif" text-anchor="middle" font-weight="normal">+0.75</text>
<text x="970.0" y="910.0" fill="#374151" font-size="15" font-family="Inter, Arial, sans-serif" text-anchor="middle" font-weight="normal">offset</text>
<text x="734.0" y="852.0" fill="#10b981" font-size="13" font-family="Inter, Arial, sans-serif" text-anchor="start" font-weight="700">green = clean</text>
<text x="856.0" y="852.0" fill="#f59e0b" font-size="13" font-family="Inter, Arial, sans-serif" text-anchor="start" font-weight="700">amber = marginal</text>
<text x="1014.0" y="852.0" fill="#ef4444" font-size="13" font-family="Inter, Arial, sans-serif" text-anchor="start" font-weight="700">red = failed</text>
</svg>
