<svg xmlns="http://www.w3.org/2000/svg" viewBox="0 0 1100 720" width="1100" height="720">
<rect width="100%" height="100%" fill="#f8fafc"/>
<text x="550.0" y="42.0" fill="#111827" font-size="28" font-family="Inter, Arial, sans-serif" text-anchor="middle" font-weight="700">Costas loop offset sweep</text>
<text x="550.0" y="70.0" fill="#475569" font-size="16" font-family="Inter, Arial, sans-serif" text-anchor="middle" font-weight="normal">Same QPSK setup, same loop gains. Only the carrier offset changes.</text>
<line x1="90.0" y1="90.0" x2="90.0" y2="604.0" stroke="#334155" stroke-width="2.0"/>
<line x1="90.0" y1="604.0" x2="1060.0" y2="604.0" stroke="#334155" stroke-width="2.0"/>
<line x1="90.0" y1="90.0" x2="1060.0" y2="90.0" stroke="#e2e8f0" stroke-width="1.0" stroke-dasharray="4 6"/>
<text x="76.0" y="95.0" fill="#64748b" font-size="13" font-family="Inter, Arial, sans-serif" text-anchor="end" font-weight="normal">0.78</text>
<line x1="90.0" y1="192.8" x2="1060.0" y2="192.8" stroke="#e2e8f0" stroke-width="1.0" stroke-dasharray="4 6"/>
<text x="76.0" y="197.8" fill="#64748b" font-size="13" font-family="Inter, Arial, sans-serif" text-anchor="end" font-weight="normal">0.62</text>
<line x1="90.0" y1="295.6" x2="1060.0" y2="295.6" stroke="#e2e8f0" stroke-width="1.0" stroke-dasharray="4 6"/>
<text x="76.0" y="300.6" fill="#64748b" font-size="13" font-family="Inter, Arial, sans-serif" text-anchor="end" font-weight="normal">0.47</text>
<line x1="90.0" y1="398.4" x2="1060.0" y2="398.4" stroke="#e2e8f0" stroke-width="1.0" stroke-dasharray="4 6"/>
<text x="76.0" y="403.4" fill="#64748b" font-size="13" font-family="Inter, Arial, sans-serif" text-anchor="end" font-weight="normal">0.31</text>
<line x1="90.0" y1="501.2" x2="1060.0" y2="501.2" stroke="#e2e8f0" stroke-width="1.0" stroke-dasharray="4 6"/>
<text x="76.0" y="506.2" fill="#64748b" font-size="13" font-family="Inter, Arial, sans-serif" text-anchor="end" font-weight="normal">0.16</text>
<line x1="90.0" y1="604.0" x2="1060.0" y2="604.0" stroke="#e2e8f0" stroke-width="1.0" stroke-dasharray="4 6"/>
<text x="76.0" y="609.0" fill="#64748b" font-size="13" font-family="Inter, Arial, sans-serif" text-anchor="end" font-weight="normal">0.00</text>
<line x1="90.0" y1="90.0" x2="90.0" y2="604.0" stroke="#eef2f7" stroke-width="1.0" stroke-dasharray="4 6"/>
<text x="90.0" y="630.0" fill="#64748b" font-size="13" font-family="Inter, Arial, sans-serif" text-anchor="middle" font-weight="normal">-0.500</text>
<line x1="211.2" y1="90.0" x2="211.2" y2="604.0" stroke="#eef2f7" stroke-width="1.0" stroke-dasharray="4 6"/>
<text x="211.2" y="630.0" fill="#64748b" font-size="13" font-family="Inter, Arial, sans-serif" text-anchor="middle" font-weight="normal">-0.375</text>
<line x1="332.5" y1="90.0" x2="332.5" y2="604.0" stroke="#eef2f7" stroke-width="1.0" stroke-dasharray="4 6"/>
<text x="332.5" y="630.0" fill="#64748b" font-size="13" font-family="Inter, Arial, sans-serif" text-anchor="middle" font-weight="normal">-0.250</text>
<line x1="453.8" y1="90.0" x2="453.8" y2="604.0" stroke="#eef2f7" stroke-width="1.0" stroke-dasharray="4 6"/>
<text x="453.8" y="630.0" fill="#64748b" font-size="13" font-family="Inter, Arial, sans-serif" text-anchor="middle" font-weight="normal">-0.125</text>
<line x1="575.0" y1="90.0" x2="575.0" y2="604.0" stroke="#eef2f7" stroke-width="1.0" stroke-dasharray="4 6"/>
<text x="575.0" y="630.0" fill="#64748b" font-size="13" font-family="Inter, Arial, sans-serif" text-anchor="middle" font-weight="normal">+0.000</text>
<line x1="696.2" y1="90.0" x2="696.2" y2="604.0" stroke="#eef2f7" stroke-width="1.0" stroke-dasharray="4 6"/>
<text x="696.2" y="630.0" fill="#64748b" font-size="13" font-family="Inter, Arial, sans-serif" text-anchor="middle" font-weight="normal">+0.125</text>
<line x1="817.5" y1="90.0" x2="817.5" y2="604.0" stroke="#eef2f7" stroke-width="1.0" stroke-dasharray="4 6"/>
<text x="817.5" y="630.0" fill="#64748b" font-size="13" font-family="Inter, Arial, sans-serif" text-anchor="middle" font-weight="normal">+0.250</text>
<line x1="938.8" y1="90.0" x2="938.8" y2="604.0" stroke="#eef2f7" stroke-width="1.0" stroke-dasharray="4 6"/>
<text x="938.8" y="630.0" fill="#64748b" font-size="13" font-family="Inter, Arial, sans-serif" text-anchor="middle" font-weight="normal">+0.375</text>
<line x1="1060.0" y1="90.0" x2="1060.0" y2="604.0" stroke="#eef2f7" stroke-width="1.0" stroke-dasharray="4 6"/>
<text x="1060.0" y="630.0" fill="#64748b" font-size="13" font-family="Inter, Arial, sans-serif" text-anchor="middle" font-weight="normal">+0.500</text>
<polyline fill="none" stroke="#ef4444" stroke-width="3" points="90.0,306.0 138.5,307.8 187.0,307.0 235.5,309.1 284.0,306.2 332.5,306.9 381.0,308.2 429.5,308.0 478.0,307.7 526.5,304.8 575.0,136.7 623.5,306.5 672.0,308.6 720.5,307.1 769.0,308.7 817.5,307.6 866.0,309.0 914.5,306.7 963.0,308.6 1011.5,307.4 1060.0,306.6"/>
<polyline fill="none" stroke="#f59e0b" stroke-width="3" points="90.0,306.9 138.5,306.6 187.0,308.2 235.5,305.3 284.0,306.7 332.5,308.0 381.0,306.6 429.5,307.8 478.0,306.1 526.5,310.4 575.0,567.0 623.5,306.9 672.0,307.1 720.5,308.3 769.0,308.6 817.5,308.8 866.0,306.5 914.5,306.9 963.0,310.4 1011.5,308.2 1060.0,308.2"/>
<polyline fill="none" stroke="#2563eb" stroke-width="3" points="90.0,299.2 138.5,292.0 187.0,293.2 235.5,407.9 284.0,458.0 332.5,564.9 381.0,566.0 429.5,566.0 478.0,565.8 526.5,565.9 575.0,565.9 623.5,565.9 672.0,566.0 720.5,566.2 769.0,566.0 817.5,547.6 866.0,437.4 914.5,406.5 963.0,295.2 1011.5,291.1 1060.0,300.6"/>
<rect x="852.0" y="108.0" width="190" height="76" rx="14" fill="#ffffff" stroke="#e2e8f0"/>
<text x="870.0" y="132.0" fill="#ef4444" font-size="14" font-family="Inter, Arial, sans-serif" text-anchor="start" font-weight="700">raw</text>
<text x="870.0" y="154.0" fill="#f59e0b" font-size="14" font-family="Inter, Arial, sans-serif" text-anchor="start" font-weight="700">after coarse phase</text>
<text x="870.0" y="176.0" fill="#2563eb" font-size="14" font-family="Inter, Arial, sans-serif" text-anchor="start" font-weight="700">after Costas tracking</text>
<text x="575.0" y="686.0" fill="#374151" font-size="16" font-family="Inter, Arial, sans-serif" text-anchor="middle" font-weight="normal">carrier offset (rad/sample)</text>
<text x="34.0" y="347.0" fill="#374151" font-size="16" font-family="Inter, Arial, sans-serif" text-anchor="middle" font-weight="500" transform="rotate(-90 34 347.0)">RMS distance to nearest QPSK corner</text>
</svg>
