<svg xmlns="http://www.w3.org/2000/svg" viewBox="0 0 1600 1600" width="1600" height="1600">
<rect width="100%" height="100%" fill="#f8fafc"/>
<text x="800.0" y="42.0" fill="#111827" font-size="26" font-family="Inter, Arial, sans-serif" text-anchor="middle" font-weight="700">QPSK 4th-power alias limit: wrapped estimate versus symbol error</text>
<text x="800.0" y="68.0" fill="#475569" font-size="14" font-family="Inter, Arial, sans-serif" text-anchor="middle" font-weight="normal"><tspan x="800.0" dy="0">The 4th-power front end is only unique while |ω| &lt; π/4.</tspan><tspan x="800.0" dy="18">Past that point, a clean-looking corner cloud can still hide wrong symbols.</tspan></text>
<rect x="80.0" y="118.0" width="1440.0" height="392.0" rx="18" fill="#ffffff" stroke="#e2e8f0"/>
<text x="98.0" y="146.0" fill="#334155" font-size="16" font-family="Inter, Arial, sans-serif" text-anchor="start" font-weight="700">Coarse estimate and wrapped residual</text>
<text x="98.0" y="170.0" fill="#526274" font-size="13" font-family="Inter, Arial, sans-serif" text-anchor="start" font-weight="normal"><tspan x="98.0" dy="0">Blue = 4th-power estimate.</tspan><tspan x="98.0" dy="16">Amber = true offset minus that estimate, wrapped back to (-π, π].</tspan></text>
<line x1="138.0" y1="214.0" x2="1494.0" y2="214.0" stroke="#e2e8f0" stroke-width="1.0" stroke-dasharray="4 6"/>
<text x="130.0" y="219.0" fill="#64748b" font-size="13" font-family="Inter, Arial, sans-serif" text-anchor="end" font-weight="normal">+1.73</text>
<line x1="138.0" y1="247.2" x2="1494.0" y2="247.2" stroke="#e2e8f0" stroke-width="1.0" stroke-dasharray="4 6"/>
<text x="130.0" y="252.2" fill="#64748b" font-size="13" font-family="Inter, Arial, sans-serif" text-anchor="end" font-weight="normal">+1.30</text>
<line x1="138.0" y1="280.5" x2="1494.0" y2="280.5" stroke="#e2e8f0" stroke-width="1.0" stroke-dasharray="4 6"/>
<text x="130.0" y="285.5" fill="#64748b" font-size="13" font-family="Inter, Arial, sans-serif" text-anchor="end" font-weight="normal">+0.87</text>
<line x1="138.0" y1="313.8" x2="1494.0" y2="313.8" stroke="#e2e8f0" stroke-width="1.0" stroke-dasharray="4 6"/>
<text x="130.0" y="318.8" fill="#64748b" font-size="13" font-family="Inter, Arial, sans-serif" text-anchor="end" font-weight="normal">+0.43</text>
<line x1="138.0" y1="347.0" x2="1494.0" y2="347.0" stroke="#e2e8f0" stroke-width="1.0" stroke-dasharray="4 6"/>
<text x="130.0" y="352.0" fill="#64748b" font-size="13" font-family="Inter, Arial, sans-serif" text-anchor="end" font-weight="normal">+0.00</text>
<line x1="138.0" y1="380.2" x2="1494.0" y2="380.2" stroke="#e2e8f0" stroke-width="1.0" stroke-dasharray="4 6"/>
<text x="130.0" y="385.2" fill="#64748b" font-size="13" font-family="Inter, Arial, sans-serif" text-anchor="end" font-weight="normal">-0.43</text>
<line x1="138.0" y1="413.5" x2="1494.0" y2="413.5" stroke="#e2e8f0" stroke-width="1.0" stroke-dasharray="4 6"/>
<text x="130.0" y="418.5" fill="#64748b" font-size="13" font-family="Inter, Arial, sans-serif" text-anchor="end" font-weight="normal">-0.87</text>
<line x1="138.0" y1="446.8" x2="1494.0" y2="446.8" stroke="#e2e8f0" stroke-width="1.0" stroke-dasharray="4 6"/>
<text x="130.0" y="451.8" fill="#64748b" font-size="13" font-family="Inter, Arial, sans-serif" text-anchor="end" font-weight="normal">-1.30</text>
<line x1="138.0" y1="480.0" x2="1494.0" y2="480.0" stroke="#e2e8f0" stroke-width="1.0" stroke-dasharray="4 6"/>
<text x="130.0" y="485.0" fill="#64748b" font-size="13" font-family="Inter, Arial, sans-serif" text-anchor="end" font-weight="normal">-1.73</text>
<line x1="138.0" y1="214.0" x2="138.0" y2="480.0" stroke="#eef2f7" stroke-width="1.0" stroke-dasharray="4 6"/>
<text x="138.0" y="534.0" fill="#64748b" font-size="13" font-family="Inter, Arial, sans-serif" text-anchor="middle" font-weight="normal">-1.00</text>
<line x1="307.5" y1="214.0" x2="307.5" y2="480.0" stroke="#eef2f7" stroke-width="1.0" stroke-dasharray="4 6"/>
<text x="307.5" y="534.0" fill="#64748b" font-size="13" font-family="Inter, Arial, sans-serif" text-anchor="middle" font-weight="normal">-0.75</text>
<line x1="477.0" y1="214.0" x2="477.0" y2="480.0" stroke="#eef2f7" stroke-width="1.0" stroke-dasharray="4 6"/>
<text x="477.0" y="534.0" fill="#64748b" font-size="13" font-family="Inter, Arial, sans-serif" text-anchor="middle" font-weight="normal">-0.50</text>
<line x1="646.5" y1="214.0" x2="646.5" y2="480.0" stroke="#eef2f7" stroke-width="1.0" stroke-dasharray="4 6"/>
<text x="646.5" y="534.0" fill="#64748b" font-size="13" font-family="Inter, Arial, sans-serif" text-anchor="middle" font-weight="normal">-0.25</text>
<line x1="816.0" y1="214.0" x2="816.0" y2="480.0" stroke="#eef2f7" stroke-width="1.0" stroke-dasharray="4 6"/>
<text x="816.0" y="534.0" fill="#64748b" font-size="13" font-family="Inter, Arial, sans-serif" text-anchor="middle" font-weight="normal">+0.00</text>
<line x1="985.5" y1="214.0" x2="985.5" y2="480.0" stroke="#eef2f7" stroke-width="1.0" stroke-dasharray="4 6"/>
<text x="985.5" y="534.0" fill="#64748b" font-size="13" font-family="Inter, Arial, sans-serif" text-anchor="middle" font-weight="normal">+0.25</text>
<line x1="1155.0" y1="214.0" x2="1155.0" y2="480.0" stroke="#eef2f7" stroke-width="1.0" stroke-dasharray="4 6"/>
<text x="1155.0" y="534.0" fill="#64748b" font-size="13" font-family="Inter, Arial, sans-serif" text-anchor="middle" font-weight="normal">+0.50</text>
<line x1="1324.5" y1="214.0" x2="1324.5" y2="480.0" stroke="#eef2f7" stroke-width="1.0" stroke-dasharray="4 6"/>
<text x="1324.5" y="534.0" fill="#64748b" font-size="13" font-family="Inter, Arial, sans-serif" text-anchor="middle" font-weight="normal">+0.75</text>
<line x1="1494.0" y1="214.0" x2="1494.0" y2="480.0" stroke="#eef2f7" stroke-width="1.0" stroke-dasharray="4 6"/>
<text x="1494.0" y="534.0" fill="#64748b" font-size="13" font-family="Inter, Arial, sans-serif" text-anchor="middle" font-weight="normal">+1.00</text>
<line x1="138.0" y1="214.0" x2="138.0" y2="480.0" stroke="#334155" stroke-width="2.0"/>
<line x1="138.0" y1="480.0" x2="1494.0" y2="480.0" stroke="#334155" stroke-width="2.0"/>
<line x1="283.5" y1="214.0" x2="283.5" y2="480.0" stroke="#f59e0b" stroke-width="2.0" stroke-dasharray="10 8"/>
<text x="283.5" y="206.0" fill="#b45309" font-size="13" font-family="Inter, Arial, sans-serif" text-anchor="middle" font-weight="700">-π/4</text>
<line x1="1348.5" y1="214.0" x2="1348.5" y2="480.0" stroke="#f59e0b" stroke-width="2.0" stroke-dasharray="10 8"/>
<text x="1348.5" y="206.0" fill="#b45309" font-size="13" font-family="Inter, Arial, sans-serif" text-anchor="middle" font-weight="700">+π/4</text>
<line x1="138.0" y1="467.6" x2="1494.0" y2="467.6" stroke="#cbd5e1" stroke-width="1.6" stroke-dasharray="8 8"/>
<line x1="138.0" y1="347.0" x2="1494.0" y2="347.0" stroke="#cbd5e1" stroke-width="1.6" stroke-dasharray="8 8"/>
<line x1="138.0" y1="226.4" x2="1494.0" y2="226.4" stroke="#cbd5e1" stroke-width="1.6" stroke-dasharray="8 8"/>
<polyline fill="none" stroke="#94a3b8" stroke-width="2.2" stroke-dasharray="8 8" points="138.0,423.8 171.9,419.9 205.8,416.1 239.7,412.3 273.6,408.4 307.5,404.6 341.4,400.7 375.3,396.9 409.2,393.1 443.1,389.2 477.0,385.4 510.9,381.5 544.8,377.7 578.7,373.9 612.6,370.0 646.5,366.2 680.4,362.4 714.3,358.5 748.2,354.7 782.1,350.8 816.0,347.0 849.9,343.2 883.8,339.3 917.7,335.5 951.6,331.6 985.5,327.8 1019.4,324.0 1053.3,320.1 1087.2,316.3 1121.1,312.5 1155.0,308.6 1188.9,304.8 1222.8,300.9 1256.7,297.1 1290.6,293.3 1324.5,289.4 1358.4,285.6 1392.3,281.7 1426.2,277.9 1460.1,274.1 1494.0,270.2"/>
<polyline fill="none" stroke="#2563eb" stroke-width="3.2" points="138.0,303.1 171.9,299.3 205.8,295.5 239.7,291.7 273.6,287.8 307.5,404.6 341.4,400.7 375.3,396.9 409.2,393.0 443.1,389.2 477.0,385.4 510.9,381.6 544.8,377.7 578.7,373.9 612.6,370.0 646.5,366.2 680.4,362.3 714.3,358.5 748.2,354.6 782.1,350.9 816.0,347.0 849.9,343.2 883.8,339.3 917.7,335.5 951.6,331.6 985.5,327.8 1019.4,324.0 1053.3,320.2 1087.2,316.3 1121.1,312.5 1155.0,308.6 1188.9,304.8 1222.8,301.0 1256.7,297.2 1290.6,293.3 1324.5,289.4 1358.4,406.2 1392.3,402.4 1426.2,398.5 1460.1,394.7 1494.0,390.9"/>
<polyline fill="none" stroke="#f59e0b" stroke-width="3.2" points="138.0,467.6 171.9,467.6 205.8,467.6 239.7,467.6 273.6,467.6 307.5,347.0 341.4,347.0 375.3,347.0 409.2,347.0 443.1,347.0 477.0,347.0 510.9,347.0 544.8,347.0 578.7,347.0 612.6,347.0 646.5,347.0 680.4,347.0 714.3,347.0 748.2,347.0 782.1,347.0 816.0,347.0 849.9,347.0 883.8,347.0 917.7,346.9 951.6,347.0 985.5,347.0 1019.4,347.0 1053.3,346.9 1087.2,347.0 1121.1,347.0 1155.0,347.0 1188.9,347.0 1222.8,347.0 1256.7,346.9 1290.6,347.0 1324.5,347.0 1358.4,226.4 1392.3,226.4 1426.2,226.4 1460.1,226.4 1494.0,226.4"/>
<text x="800.0" y="564.0" fill="#374151" font-size="16" font-family="Inter, Arial, sans-serif" text-anchor="middle" font-weight="normal">true carrier offset (rad/sample)</text>
<text x="28.0" y="314.0" fill="#374151" font-size="16" font-family="Inter, Arial, sans-serif" text-anchor="middle" font-weight="normal" transform="rotate(-90 28 314.0)">estimate / wrapped residual</text>
<rect x="1256.0" y="140.0" width="224" height="90" rx="14" fill="#ffffff" stroke="#e2e8f0"/>
<line x1="1274.0" y1="162.0" x2="1302.0" y2="162.0" stroke="#94a3b8" stroke-width="2.2" stroke-dasharray="8 8"/>
<text x="1314.0" y="166.0" fill="#64748b" font-size="13" font-family="Inter, Arial, sans-serif" text-anchor="start" font-weight="700">true offset</text>
<line x1="1274.0" y1="185.0" x2="1302.0" y2="185.0" stroke="#2563eb" stroke-width="3.2"/>
<text x="1314.0" y="189.0" fill="#2563eb" font-size="13" font-family="Inter, Arial, sans-serif" text-anchor="start" font-weight="700">4th-power estimate</text>
<line x1="1274.0" y1="208.0" x2="1302.0" y2="208.0" stroke="#f59e0b" stroke-width="3.2"/>
<text x="1314.0" y="212.0" fill="#b45309" font-size="13" font-family="Inter, Arial, sans-serif" text-anchor="start" font-weight="700">wrapped residual</text>
<rect x="80.0" y="560.0" width="1440.0" height="460.0" rx="18" fill="#ffffff" stroke="#e2e8f0"/>
<text x="98.0" y="588.0" fill="#334155" font-size="16" font-family="Inter, Arial, sans-serif" text-anchor="start" font-weight="700">Nearest-corner RMS after tracking</text>
<text x="98.0" y="612.0" fill="#526274" font-size="13" font-family="Inter, Arial, sans-serif" text-anchor="start" font-weight="normal"><tspan x="98.0" dy="0">This is the old metric.</tspan><tspan x="98.0" dy="16">It still looks calm even after the alias fold.</tspan></text>
<line x1="138.0" y1="658.0" x2="1494.0" y2="658.0" stroke="#e2e8f0" stroke-width="1.0" stroke-dasharray="4 6"/>
<text x="130.0" y="663.0" fill="#64748b" font-size="13" font-family="Inter, Arial, sans-serif" text-anchor="end" font-weight="normal">0.51</text>
<line x1="138.0" y1="712.7" x2="1494.0" y2="712.7" stroke="#e2e8f0" stroke-width="1.0" stroke-dasharray="4 6"/>
<text x="130.0" y="717.7" fill="#64748b" font-size="13" font-family="Inter, Arial, sans-serif" text-anchor="end" font-weight="normal">0.43</text>
<line x1="138.0" y1="767.3" x2="1494.0" y2="767.3" stroke="#e2e8f0" stroke-width="1.0" stroke-dasharray="4 6"/>
<text x="130.0" y="772.3" fill="#64748b" font-size="13" font-family="Inter, Arial, sans-serif" text-anchor="end" font-weight="normal">0.34</text>
<line x1="138.0" y1="822.0" x2="1494.0" y2="822.0" stroke="#e2e8f0" stroke-width="1.0" stroke-dasharray="4 6"/>
<text x="130.0" y="827.0" fill="#64748b" font-size="13" font-family="Inter, Arial, sans-serif" text-anchor="end" font-weight="normal">0.26</text>
<line x1="138.0" y1="876.7" x2="1494.0" y2="876.7" stroke="#e2e8f0" stroke-width="1.0" stroke-dasharray="4 6"/>
<text x="130.0" y="881.7" fill="#64748b" font-size="13" font-family="Inter, Arial, sans-serif" text-anchor="end" font-weight="normal">0.17</text>
<line x1="138.0" y1="931.3" x2="1494.0" y2="931.3" stroke="#e2e8f0" stroke-width="1.0" stroke-dasharray="4 6"/>
<text x="130.0" y="936.3" fill="#64748b" font-size="13" font-family="Inter, Arial, sans-serif" text-anchor="end" font-weight="normal">0.09</text>
<line x1="138.0" y1="986.0" x2="1494.0" y2="986.0" stroke="#e2e8f0" stroke-width="1.0" stroke-dasharray="4 6"/>
<text x="130.0" y="991.0" fill="#64748b" font-size="13" font-family="Inter, Arial, sans-serif" text-anchor="end" font-weight="normal">0.00</text>
<line x1="138.0" y1="658.0" x2="138.0" y2="986.0" stroke="#eef2f7" stroke-width="1.0" stroke-dasharray="4 6"/>
<text x="138.0" y="1044.0" fill="#64748b" font-size="13" font-family="Inter, Arial, sans-serif" text-anchor="middle" font-weight="normal">-1.00</text>
<line x1="364.0" y1="658.0" x2="364.0" y2="986.0" stroke="#eef2f7" stroke-width="1.0" stroke-dasharray="4 6"/>
<text x="364.0" y="1044.0" fill="#64748b" font-size="13" font-family="Inter, Arial, sans-serif" text-anchor="middle" font-weight="normal">-0.67</text>
<line x1="590.0" y1="658.0" x2="590.0" y2="986.0" stroke="#eef2f7" stroke-width="1.0" stroke-dasharray="4 6"/>
<text x="590.0" y="1044.0" fill="#64748b" font-size="13" font-family="Inter, Arial, sans-serif" text-anchor="middle" font-weight="normal">-0.33</text>
<line x1="816.0" y1="658.0" x2="816.0" y2="986.0" stroke="#eef2f7" stroke-width="1.0" stroke-dasharray="4 6"/>
<text x="816.0" y="1044.0" fill="#64748b" font-size="13" font-family="Inter, Arial, sans-serif" text-anchor="middle" font-weight="normal">+0.00</text>
<line x1="1042.0" y1="658.0" x2="1042.0" y2="986.0" stroke="#eef2f7" stroke-width="1.0" stroke-dasharray="4 6"/>
<text x="1042.0" y="1044.0" fill="#64748b" font-size="13" font-family="Inter, Arial, sans-serif" text-anchor="middle" font-weight="normal">+0.33</text>
<line x1="1268.0" y1="658.0" x2="1268.0" y2="986.0" stroke="#eef2f7" stroke-width="1.0" stroke-dasharray="4 6"/>
<text x="1268.0" y="1044.0" fill="#64748b" font-size="13" font-family="Inter, Arial, sans-serif" text-anchor="middle" font-weight="normal">+0.67</text>
<line x1="1494.0" y1="658.0" x2="1494.0" y2="986.0" stroke="#eef2f7" stroke-width="1.0" stroke-dasharray="4 6"/>
<text x="1494.0" y="1044.0" fill="#64748b" font-size="13" font-family="Inter, Arial, sans-serif" text-anchor="middle" font-weight="normal">+1.00</text>
<line x1="138.0" y1="658.0" x2="138.0" y2="986.0" stroke="#334155" stroke-width="2.0"/>
<line x1="138.0" y1="986.0" x2="1494.0" y2="986.0" stroke="#334155" stroke-width="2.0"/>
<line x1="283.5" y1="658.0" x2="283.5" y2="986.0" stroke="#f59e0b" stroke-width="2.0" stroke-dasharray="10 8"/>
<line x1="1348.5" y1="658.0" x2="1348.5" y2="986.0" stroke="#f59e0b" stroke-width="2.0" stroke-dasharray="10 8"/>
<polyline fill="none" stroke="#ef4444" stroke-width="3.0" points="138.0,692.4 171.9,683.0 205.8,709.5 239.7,713.7 273.6,714.5 307.5,714.9 341.4,713.6 375.3,699.2 409.2,689.6 443.1,693.4 477.0,691.9 510.9,685.5 544.8,686.4 578.7,809.8 612.6,854.4 646.5,948.6 680.4,949.4 714.3,949.4 748.2,949.3 782.1,949.4 816.0,949.4 849.9,949.3 883.8,949.5 917.7,949.6 951.6,949.4 985.5,933.7 1019.4,836.2 1053.3,808.5 1087.2,686.8 1121.1,683.7 1155.0,693.0 1188.9,693.1 1222.8,686.7 1256.7,682.3 1290.6,714.1 1324.5,712.4 1358.4,714.4 1392.3,713.1 1426.2,691.2 1460.1,683.3 1494.0,692.8"/>
<polyline fill="none" stroke="#2563eb" stroke-width="3.3" points="138.0,949.6 171.9,949.5 205.8,949.4 239.7,949.3 273.6,949.5 307.5,949.4 341.4,949.5 375.3,949.3 409.2,949.5 443.1,949.4 477.0,949.4 510.9,949.3 544.8,949.3 578.7,949.3 612.6,949.3 646.5,949.3 680.4,949.4 714.3,949.4 748.2,949.3 782.1,949.4 816.0,949.4 849.9,949.3 883.8,949.5 917.7,949.6 951.6,949.4 985.5,949.5 1019.4,949.4 1053.3,949.6 1087.2,949.5 1121.1,949.5 1155.0,949.5 1188.9,949.6 1222.8,949.7 1256.7,949.5 1290.6,949.5 1324.5,949.4 1358.4,949.5 1392.3,949.5 1426.2,949.6 1460.1,949.6 1494.0,949.6"/>
<text x="800.0" y="1074.0" fill="#374151" font-size="16" font-family="Inter, Arial, sans-serif" text-anchor="middle" font-weight="normal">true carrier offset (rad/sample)</text>
<text x="28.0" y="790.0" fill="#374151" font-size="16" font-family="Inter, Arial, sans-serif" text-anchor="middle" font-weight="normal" transform="rotate(-90 28 790.0)">tracked RMS to nearest corner</text>
<rect x="1284.0" y="584.0" width="196" height="64" rx="14" fill="#ffffff" stroke="#e2e8f0"/>
<line x1="1302.0" y1="606.0" x2="1330.0" y2="606.0" stroke="#ef4444" stroke-width="3.0"/>
<text x="1342.0" y="610.0" fill="#ef4444" font-size="13" font-family="Inter, Arial, sans-serif" text-anchor="start" font-weight="700">phase-only</text>
<line x1="1302.0" y1="628.0" x2="1330.0" y2="628.0" stroke="#2563eb" stroke-width="3.2"/>
<text x="1342.0" y="632.0" fill="#2563eb" font-size="13" font-family="Inter, Arial, sans-serif" text-anchor="start" font-weight="700">freq-acquired</text>
<rect x="80.0" y="1070.0" width="1440.0" height="460.0" rx="18" fill="#ffffff" stroke="#e2e8f0"/>
<text x="98.0" y="1098.0" fill="#334155" font-size="16" font-family="Inter, Arial, sans-serif" text-anchor="start" font-weight="700">Best static-quadrant SER</text>
<text x="98.0" y="1122.0" fill="#526274" font-size="13" font-family="Inter, Arial, sans-serif" text-anchor="start" font-weight="normal"><tspan x="98.0" dy="0">This forgives one constant 90° ambiguity.</tspan><tspan x="98.0" dy="16">It does not forgive a quarter-turn ramp from symbol to symbol.</tspan></text>
<line x1="138.0" y1="1168.0" x2="1494.0" y2="1168.0" stroke="#e2e8f0" stroke-width="1.0" stroke-dasharray="4 6"/>
<text x="130.0" y="1173.0" fill="#64748b" font-size="13" font-family="Inter, Arial, sans-serif" text-anchor="end" font-weight="normal">1.0</text>
<line x1="138.0" y1="1228.4" x2="1494.0" y2="1228.4" stroke="#e2e8f0" stroke-width="1.0" stroke-dasharray="4 6"/>
<text x="130.0" y="1233.4" fill="#64748b" font-size="13" font-family="Inter, Arial, sans-serif" text-anchor="end" font-weight="normal">0.8</text>
<line x1="138.0" y1="1288.8" x2="1494.0" y2="1288.8" stroke="#e2e8f0" stroke-width="1.0" stroke-dasharray="4 6"/>
<text x="130.0" y="1293.8" fill="#64748b" font-size="13" font-family="Inter, Arial, sans-serif" text-anchor="end" font-weight="normal">0.6</text>
<line x1="138.0" y1="1349.2" x2="1494.0" y2="1349.2" stroke="#e2e8f0" stroke-width="1.0" stroke-dasharray="4 6"/>
<text x="130.0" y="1354.2" fill="#64748b" font-size="13" font-family="Inter, Arial, sans-serif" text-anchor="end" font-weight="normal">0.4</text>
<line x1="138.0" y1="1409.6" x2="1494.0" y2="1409.6" stroke="#e2e8f0" stroke-width="1.0" stroke-dasharray="4 6"/>
<text x="130.0" y="1414.6" fill="#64748b" font-size="13" font-family="Inter, Arial, sans-serif" text-anchor="end" font-weight="normal">0.2</text>
<line x1="138.0" y1="1470.0" x2="1494.0" y2="1470.0" stroke="#e2e8f0" stroke-width="1.0" stroke-dasharray="4 6"/>
<text x="130.0" y="1475.0" fill="#64748b" font-size="13" font-family="Inter, Arial, sans-serif" text-anchor="end" font-weight="normal">0.0</text>
<line x1="138.0" y1="1168.0" x2="138.0" y2="1470.0" stroke="#eef2f7" stroke-width="1.0" stroke-dasharray="4 6"/>
<text x="138.0" y="1554.0" fill="#64748b" font-size="13" font-family="Inter, Arial, sans-serif" text-anchor="middle" font-weight="normal">-1.00</text>
<line x1="364.0" y1="1168.0" x2="364.0" y2="1470.0" stroke="#eef2f7" stroke-width="1.0" stroke-dasharray="4 6"/>
<text x="364.0" y="1554.0" fill="#64748b" font-size="13" font-family="Inter, Arial, sans-serif" text-anchor="middle" font-weight="normal">-0.67</text>
<line x1="590.0" y1="1168.0" x2="590.0" y2="1470.0" stroke="#eef2f7" stroke-width="1.0" stroke-dasharray="4 6"/>
<text x="590.0" y="1554.0" fill="#64748b" font-size="13" font-family="Inter, Arial, sans-serif" text-anchor="middle" font-weight="normal">-0.33</text>
<line x1="816.0" y1="1168.0" x2="816.0" y2="1470.0" stroke="#eef2f7" stroke-width="1.0" stroke-dasharray="4 6"/>
<text x="816.0" y="1554.0" fill="#64748b" font-size="13" font-family="Inter, Arial, sans-serif" text-anchor="middle" font-weight="normal">+0.00</text>
<line x1="1042.0" y1="1168.0" x2="1042.0" y2="1470.0" stroke="#eef2f7" stroke-width="1.0" stroke-dasharray="4 6"/>
<text x="1042.0" y="1554.0" fill="#64748b" font-size="13" font-family="Inter, Arial, sans-serif" text-anchor="middle" font-weight="normal">+0.33</text>
<line x1="1268.0" y1="1168.0" x2="1268.0" y2="1470.0" stroke="#eef2f7" stroke-width="1.0" stroke-dasharray="4 6"/>
<text x="1268.0" y="1554.0" fill="#64748b" font-size="13" font-family="Inter, Arial, sans-serif" text-anchor="middle" font-weight="normal">+0.67</text>
<line x1="1494.0" y1="1168.0" x2="1494.0" y2="1470.0" stroke="#eef2f7" stroke-width="1.0" stroke-dasharray="4 6"/>
<text x="1494.0" y="1554.0" fill="#64748b" font-size="13" font-family="Inter, Arial, sans-serif" text-anchor="middle" font-weight="normal">+1.00</text>
<line x1="138.0" y1="1168.0" x2="138.0" y2="1470.0" stroke="#334155" stroke-width="2.0"/>
<line x1="138.0" y1="1470.0" x2="1494.0" y2="1470.0" stroke="#334155" stroke-width="2.0"/>
<line x1="283.5" y1="1168.0" x2="283.5" y2="1470.0" stroke="#f59e0b" stroke-width="2.0" stroke-dasharray="10 8"/>
<line x1="1348.5" y1="1168.0" x2="1348.5" y2="1470.0" stroke="#f59e0b" stroke-width="2.0" stroke-dasharray="10 8"/>
<polyline fill="none" stroke="#ef4444" stroke-width="3.0" points="138.0,1268.7 171.9,1243.9 205.8,1244.3 239.7,1243.5 273.6,1243.5 307.5,1243.5 341.4,1243.5 375.3,1244.8 409.2,1245.2 443.1,1243.5 477.0,1243.5 510.9,1244.3 544.8,1243.9 578.7,1416.7 612.6,1444.8 646.5,1470.0 680.4,1470.0 714.3,1470.0 748.2,1470.0 782.1,1470.0 816.0,1470.0 849.9,1470.0 883.8,1470.0 917.7,1470.0 951.6,1470.0 985.5,1470.0 1019.4,1431.0 1053.3,1413.0 1087.2,1243.5 1121.1,1244.3 1155.0,1243.5 1188.9,1243.5 1222.8,1244.3 1256.7,1251.0 1290.6,1243.5 1324.5,1243.5 1358.4,1243.5 1392.3,1243.5 1426.2,1245.2 1460.1,1243.5 1494.0,1268.7"/>
<polyline fill="none" stroke="#7c3aed" stroke-width="3.3" points="138.0,1243.5 171.9,1243.5 205.8,1243.5 239.7,1243.5 273.6,1243.5 307.5,1470.0 341.4,1470.0 375.3,1470.0 409.2,1470.0 443.1,1470.0 477.0,1470.0 510.9,1470.0 544.8,1470.0 578.7,1470.0 612.6,1470.0 646.5,1470.0 680.4,1470.0 714.3,1470.0 748.2,1470.0 782.1,1470.0 816.0,1470.0 849.9,1470.0 883.8,1470.0 917.7,1470.0 951.6,1470.0 985.5,1470.0 1019.4,1470.0 1053.3,1470.0 1087.2,1470.0 1121.1,1470.0 1155.0,1470.0 1188.9,1470.0 1222.8,1470.0 1256.7,1470.0 1290.6,1470.0 1324.5,1470.0 1358.4,1243.5 1392.3,1243.5 1426.2,1243.5 1460.1,1243.5 1494.0,1243.5"/>
<text x="800.0" y="1584.0" fill="#374151" font-size="16" font-family="Inter, Arial, sans-serif" text-anchor="middle" font-weight="normal">true carrier offset (rad/sample)</text>
<text x="28.0" y="1300.0" fill="#374151" font-size="16" font-family="Inter, Arial, sans-serif" text-anchor="middle" font-weight="normal" transform="rotate(-90 28 1300.0)">symbol error rate</text>
<rect x="1284.0" y="1094.0" width="196" height="64" rx="14" fill="#ffffff" stroke="#e2e8f0"/>
<line x1="1302.0" y1="1116.0" x2="1330.0" y2="1116.0" stroke="#ef4444" stroke-width="3.0"/>
<text x="1342.0" y="1120.0" fill="#ef4444" font-size="13" font-family="Inter, Arial, sans-serif" text-anchor="start" font-weight="700">phase-only</text>
<line x1="1302.0" y1="1138.0" x2="1330.0" y2="1138.0" stroke="#7c3aed" stroke-width="3.2"/>
<text x="1342.0" y="1142.0" fill="#7c3aed" font-size="13" font-family="Inter, Arial, sans-serif" text-anchor="start" font-weight="700">freq-acquired</text>
<text x="980.0" y="1114.0" fill="#475569" font-size="12" font-family="Inter, Arial, sans-serif" text-anchor="start" font-weight="normal"><tspan x="980.0" dy="0">At -1.00 rad/sample:</tspan><tspan x="980.0" dy="15">RMS 0.057, SER 0.75.</tspan></text>
</svg>
