<svg xmlns="http://www.w3.org/2000/svg" viewBox="0 0 1660 1020" width="1660" height="1020">
<rect width="100%" height="100%" fill="#f8fafc"/>
<text x="830.0" y="42.0" fill="#111827" font-size="28" font-family="Inter, Arial, sans-serif" text-anchor="middle" font-weight="700">QPSK coarse-prefix budget: when the loop stops caring</text>
<text x="830.0" y="68.0" fill="#475569" font-size="16" font-family="Inter, Arial, sans-serif" text-anchor="middle" font-weight="normal"><tspan x="830.0" dy="0">Same outer-band carrier offset, same loop gains, same symbol-rate model.</tspan><tspan x="830.0" dy="18">Only the front-end sample budget changes, and the post-lock output flattens early.</tspan></text>
<rect x="80.0" y="118.0" width="1440.0" height="338.0" rx="18" fill="#ffffff" stroke="#e2e8f0"/>
<text x="98.0" y="146.0" fill="#334155" font-size="16" font-family="Inter, Arial, sans-serif" text-anchor="start" font-weight="700">Mean absolute coarse-frequency error at +0.62 rad/sample</text>
<text x="98.0" y="170.0" fill="#526274" font-size="14" font-family="Inter, Arial, sans-serif" text-anchor="start" font-weight="normal"><tspan x="98.0" dy="0">24 Monte Carlo trials per point</tspan><tspan x="98.0" dy="16">lower is better; units are mrad/sample</tspan></text>
<line x1="136.0" y1="204.0" x2="1496.0" y2="204.0" stroke="#e2e8f0" stroke-width="1.0" stroke-dasharray="4 6"/>
<text x="128.0" y="209.0" fill="#64748b" font-size="13" font-family="Inter, Arial, sans-serif" text-anchor="end" font-weight="normal">25.9</text>
<line x1="136.0" y1="241.7" x2="1496.0" y2="241.7" stroke="#e2e8f0" stroke-width="1.0" stroke-dasharray="4 6"/>
<text x="128.0" y="246.7" fill="#64748b" font-size="13" font-family="Inter, Arial, sans-serif" text-anchor="end" font-weight="normal">21.6</text>
<line x1="136.0" y1="279.3" x2="1496.0" y2="279.3" stroke="#e2e8f0" stroke-width="1.0" stroke-dasharray="4 6"/>
<text x="128.0" y="284.3" fill="#64748b" font-size="13" font-family="Inter, Arial, sans-serif" text-anchor="end" font-weight="normal">17.3</text>
<line x1="136.0" y1="317.0" x2="1496.0" y2="317.0" stroke="#e2e8f0" stroke-width="1.0" stroke-dasharray="4 6"/>
<text x="128.0" y="322.0" fill="#64748b" font-size="13" font-family="Inter, Arial, sans-serif" text-anchor="end" font-weight="normal">13.0</text>
<line x1="136.0" y1="354.7" x2="1496.0" y2="354.7" stroke="#e2e8f0" stroke-width="1.0" stroke-dasharray="4 6"/>
<text x="128.0" y="359.7" fill="#64748b" font-size="13" font-family="Inter, Arial, sans-serif" text-anchor="end" font-weight="normal">8.6</text>
<line x1="136.0" y1="392.3" x2="1496.0" y2="392.3" stroke="#e2e8f0" stroke-width="1.0" stroke-dasharray="4 6"/>
<text x="128.0" y="397.3" fill="#64748b" font-size="13" font-family="Inter, Arial, sans-serif" text-anchor="end" font-weight="normal">4.3</text>
<line x1="136.0" y1="430.0" x2="1496.0" y2="430.0" stroke="#e2e8f0" stroke-width="1.0" stroke-dasharray="4 6"/>
<text x="128.0" y="435.0" fill="#64748b" font-size="13" font-family="Inter, Arial, sans-serif" text-anchor="end" font-weight="normal">0.0</text>
<line x1="136.0" y1="204.0" x2="136.0" y2="430.0" stroke="#eef2f7" stroke-width="1.0" stroke-dasharray="4 6"/>
<text x="136.0" y="480.0" fill="#64748b" font-size="13" font-family="Inter, Arial, sans-serif" text-anchor="middle" font-weight="normal">8</text>
<line x1="306.0" y1="204.0" x2="306.0" y2="430.0" stroke="#eef2f7" stroke-width="1.0" stroke-dasharray="4 6"/>
<text x="306.0" y="480.0" fill="#64748b" font-size="13" font-family="Inter, Arial, sans-serif" text-anchor="middle" font-weight="normal">12</text>
<line x1="476.0" y1="204.0" x2="476.0" y2="430.0" stroke="#eef2f7" stroke-width="1.0" stroke-dasharray="4 6"/>
<text x="476.0" y="480.0" fill="#64748b" font-size="13" font-family="Inter, Arial, sans-serif" text-anchor="middle" font-weight="normal">16</text>
<line x1="646.0" y1="204.0" x2="646.0" y2="430.0" stroke="#eef2f7" stroke-width="1.0" stroke-dasharray="4 6"/>
<text x="646.0" y="480.0" fill="#64748b" font-size="13" font-family="Inter, Arial, sans-serif" text-anchor="middle" font-weight="normal">24</text>
<line x1="816.0" y1="204.0" x2="816.0" y2="430.0" stroke="#eef2f7" stroke-width="1.0" stroke-dasharray="4 6"/>
<text x="816.0" y="480.0" fill="#64748b" font-size="13" font-family="Inter, Arial, sans-serif" text-anchor="middle" font-weight="normal">32</text>
<line x1="986.0" y1="204.0" x2="986.0" y2="430.0" stroke="#eef2f7" stroke-width="1.0" stroke-dasharray="4 6"/>
<text x="986.0" y="480.0" fill="#64748b" font-size="13" font-family="Inter, Arial, sans-serif" text-anchor="middle" font-weight="normal">48</text>
<line x1="1156.0" y1="204.0" x2="1156.0" y2="430.0" stroke="#eef2f7" stroke-width="1.0" stroke-dasharray="4 6"/>
<text x="1156.0" y="480.0" fill="#64748b" font-size="13" font-family="Inter, Arial, sans-serif" text-anchor="middle" font-weight="normal">64</text>
<line x1="1326.0" y1="204.0" x2="1326.0" y2="430.0" stroke="#eef2f7" stroke-width="1.0" stroke-dasharray="4 6"/>
<text x="1326.0" y="480.0" fill="#64748b" font-size="13" font-family="Inter, Arial, sans-serif" text-anchor="middle" font-weight="normal">96</text>
<line x1="1496.0" y1="204.0" x2="1496.0" y2="430.0" stroke="#eef2f7" stroke-width="1.0" stroke-dasharray="4 6"/>
<text x="1496.0" y="480.0" fill="#64748b" font-size="13" font-family="Inter, Arial, sans-serif" text-anchor="middle" font-weight="normal">128</text>
<line x1="136.0" y1="204.0" x2="136.0" y2="430.0" stroke="#334155" stroke-width="2.0"/>
<line x1="136.0" y1="430.0" x2="1496.0" y2="430.0" stroke="#334155" stroke-width="2.0"/>
<polyline fill="none" stroke="#0f766e" stroke-width="3.2" points="136.0,403.0 306.0,416.9 476.0,417.2 646.0,422.1 816.0,424.7 986.0,427.0 1156.0,426.7 1326.0,428.0 1496.0,428.0"/>
<circle cx="136.0" cy="403.0" r="4.4" fill="#0f766e" fill-opacity="0.850"/>
<circle cx="306.0" cy="416.9" r="4.4" fill="#0f766e" fill-opacity="0.850"/>
<circle cx="476.0" cy="417.2" r="4.4" fill="#0f766e" fill-opacity="0.850"/>
<circle cx="646.0" cy="422.1" r="4.4" fill="#0f766e" fill-opacity="0.850"/>
<circle cx="816.0" cy="424.7" r="4.4" fill="#0f766e" fill-opacity="0.850"/>
<circle cx="986.0" cy="427.0" r="4.4" fill="#0f766e" fill-opacity="0.850"/>
<circle cx="1156.0" cy="426.7" r="4.4" fill="#0f766e" fill-opacity="0.850"/>
<circle cx="1326.0" cy="428.0" r="4.4" fill="#0f766e" fill-opacity="0.850"/>
<circle cx="1496.0" cy="428.0" r="4.4" fill="#0f766e" fill-opacity="0.850"/>
<polyline fill="none" stroke="#2563eb" stroke-width="3.2" points="136.0,371.6 306.0,400.3 476.0,401.2 646.0,412.0 816.0,417.1 986.0,421.5 1156.0,420.3 1326.0,424.0 1496.0,424.2"/>
<circle cx="136.0" cy="371.6" r="4.4" fill="#2563eb" fill-opacity="0.850"/>
<circle cx="306.0" cy="400.3" r="4.4" fill="#2563eb" fill-opacity="0.850"/>
<circle cx="476.0" cy="401.2" r="4.4" fill="#2563eb" fill-opacity="0.850"/>
<circle cx="646.0" cy="412.0" r="4.4" fill="#2563eb" fill-opacity="0.850"/>
<circle cx="816.0" cy="417.1" r="4.4" fill="#2563eb" fill-opacity="0.850"/>
<circle cx="986.0" cy="421.5" r="4.4" fill="#2563eb" fill-opacity="0.850"/>
<circle cx="1156.0" cy="420.3" r="4.4" fill="#2563eb" fill-opacity="0.850"/>
<circle cx="1326.0" cy="424.0" r="4.4" fill="#2563eb" fill-opacity="0.850"/>
<circle cx="1496.0" cy="424.2" r="4.4" fill="#2563eb" fill-opacity="0.850"/>
<polyline fill="none" stroke="#7c3aed" stroke-width="3.2" points="136.0,332.4 306.0,378.4 476.0,378.6 646.0,397.0 816.0,405.6 986.0,410.9 1156.0,409.0 1326.0,416.9 1496.0,417.5"/>
<circle cx="136.0" cy="332.4" r="4.4" fill="#7c3aed" fill-opacity="0.850"/>
<circle cx="306.0" cy="378.4" r="4.4" fill="#7c3aed" fill-opacity="0.850"/>
<circle cx="476.0" cy="378.6" r="4.4" fill="#7c3aed" fill-opacity="0.850"/>
<circle cx="646.0" cy="397.0" r="4.4" fill="#7c3aed" fill-opacity="0.850"/>
<circle cx="816.0" cy="405.6" r="4.4" fill="#7c3aed" fill-opacity="0.850"/>
<circle cx="986.0" cy="410.9" r="4.4" fill="#7c3aed" fill-opacity="0.850"/>
<circle cx="1156.0" cy="409.0" r="4.4" fill="#7c3aed" fill-opacity="0.850"/>
<circle cx="1326.0" cy="416.9" r="4.4" fill="#7c3aed" fill-opacity="0.850"/>
<circle cx="1496.0" cy="417.5" r="4.4" fill="#7c3aed" fill-opacity="0.850"/>
<polyline fill="none" stroke="#ea580c" stroke-width="3.2" points="136.0,283.9 306.0,347.6 476.0,348.8 646.0,375.7 816.0,388.7 986.0,395.7 1156.0,392.2 1326.0,406.3 1496.0,407.7"/>
<circle cx="136.0" cy="283.9" r="4.4" fill="#ea580c" fill-opacity="0.850"/>
<circle cx="306.0" cy="347.6" r="4.4" fill="#ea580c" fill-opacity="0.850"/>
<circle cx="476.0" cy="348.8" r="4.4" fill="#ea580c" fill-opacity="0.850"/>
<circle cx="646.0" cy="375.7" r="4.4" fill="#ea580c" fill-opacity="0.850"/>
<circle cx="816.0" cy="388.7" r="4.4" fill="#ea580c" fill-opacity="0.850"/>
<circle cx="986.0" cy="395.7" r="4.4" fill="#ea580c" fill-opacity="0.850"/>
<circle cx="1156.0" cy="392.2" r="4.4" fill="#ea580c" fill-opacity="0.850"/>
<circle cx="1326.0" cy="406.3" r="4.4" fill="#ea580c" fill-opacity="0.850"/>
<circle cx="1496.0" cy="407.7" r="4.4" fill="#ea580c" fill-opacity="0.850"/>
<polyline fill="none" stroke="#dc2626" stroke-width="3.2" points="136.0,220.7 306.0,300.2 476.0,307.3 646.0,346.6 816.0,365.1 986.0,374.2 1156.0,368.8 1326.0,391.5 1496.0,394.1"/>
<circle cx="136.0" cy="220.7" r="4.4" fill="#dc2626" fill-opacity="0.850"/>
<circle cx="306.0" cy="300.2" r="4.4" fill="#dc2626" fill-opacity="0.850"/>
<circle cx="476.0" cy="307.3" r="4.4" fill="#dc2626" fill-opacity="0.850"/>
<circle cx="646.0" cy="346.6" r="4.4" fill="#dc2626" fill-opacity="0.850"/>
<circle cx="816.0" cy="365.1" r="4.4" fill="#dc2626" fill-opacity="0.850"/>
<circle cx="986.0" cy="374.2" r="4.4" fill="#dc2626" fill-opacity="0.850"/>
<circle cx="1156.0" cy="368.8" r="4.4" fill="#dc2626" fill-opacity="0.850"/>
<circle cx="1326.0" cy="391.5" r="4.4" fill="#dc2626" fill-opacity="0.850"/>
<circle cx="1496.0" cy="394.1" r="4.4" fill="#dc2626" fill-opacity="0.850"/>
<text x="800.0" y="510.0" fill="#374151" font-size="16" font-family="Inter, Arial, sans-serif" text-anchor="middle" font-weight="normal">coarse-prefix length (symbols)</text>
<text x="28.0" y="287.0" fill="#374151" font-size="16" font-family="Inter, Arial, sans-serif" text-anchor="middle" font-weight="normal" transform="rotate(-90 28 287.0)">mean |freq error| (mrad/sample)</text>
<rect x="1330.0" y="146.0" width="160" height="144.0" rx="14" fill="#ffffff" stroke="#e2e8f0"/>
<text x="1348.0" y="168.0" fill="#334155" font-size="13" font-family="Inter, Arial, sans-serif" text-anchor="start" font-weight="700">noise std</text>
<line x1="1348.0" y1="185.0" x2="1374.0" y2="185.0" stroke="#0f766e" stroke-width="4.0"/>
<text x="1386.0" y="190.0" fill="#334155" font-size="13" font-family="Inter, Arial, sans-serif" text-anchor="start" font-weight="700">0.02</text>
<line x1="1348.0" y1="207.0" x2="1374.0" y2="207.0" stroke="#2563eb" stroke-width="4.0"/>
<text x="1386.0" y="212.0" fill="#334155" font-size="13" font-family="Inter, Arial, sans-serif" text-anchor="start" font-weight="700">0.04</text>
<line x1="1348.0" y1="229.0" x2="1374.0" y2="229.0" stroke="#7c3aed" stroke-width="4.0"/>
<text x="1386.0" y="234.0" fill="#334155" font-size="13" font-family="Inter, Arial, sans-serif" text-anchor="start" font-weight="700">0.06</text>
<line x1="1348.0" y1="251.0" x2="1374.0" y2="251.0" stroke="#ea580c" stroke-width="4.0"/>
<text x="1386.0" y="256.0" fill="#334155" font-size="13" font-family="Inter, Arial, sans-serif" text-anchor="start" font-weight="700">0.08</text>
<line x1="1348.0" y1="273.0" x2="1374.0" y2="273.0" stroke="#dc2626" stroke-width="4.0"/>
<text x="1386.0" y="278.0" fill="#334155" font-size="13" font-family="Inter, Arial, sans-serif" text-anchor="start" font-weight="700">0.10</text>
<rect x="80.0" y="560.0" width="820.0" height="340.0" rx="18" fill="#ffffff" stroke="#e2e8f0"/>
<text x="98.0" y="588.0" fill="#334155" font-size="16" font-family="Inter, Arial, sans-serif" text-anchor="start" font-weight="700">Tracked tail RMS after the Costas loop</text>
<text x="98.0" y="612.0" fill="#526274" font-size="14" font-family="Inter, Arial, sans-serif" text-anchor="start" font-weight="normal"><tspan x="98.0" dy="0">same trials, same outer-band offset</tspan><tspan x="98.0" dy="16">this is the part that flattens once the handoff is already good enough</tspan></text>
<line x1="136.0" y1="646.0" x2="876.0" y2="646.0" stroke="#e2e8f0" stroke-width="1.0" stroke-dasharray="4 6"/>
<text x="128.0" y="651.0" fill="#64748b" font-size="13" font-family="Inter, Arial, sans-serif" text-anchor="end" font-weight="normal">0.163</text>
<line x1="136.0" y1="684.0" x2="876.0" y2="684.0" stroke="#e2e8f0" stroke-width="1.0" stroke-dasharray="4 6"/>
<text x="128.0" y="689.0" fill="#64748b" font-size="13" font-family="Inter, Arial, sans-serif" text-anchor="end" font-weight="normal">0.135</text>
<line x1="136.0" y1="722.0" x2="876.0" y2="722.0" stroke="#e2e8f0" stroke-width="1.0" stroke-dasharray="4 6"/>
<text x="128.0" y="727.0" fill="#64748b" font-size="13" font-family="Inter, Arial, sans-serif" text-anchor="end" font-weight="normal">0.108</text>
<line x1="136.0" y1="760.0" x2="876.0" y2="760.0" stroke="#e2e8f0" stroke-width="1.0" stroke-dasharray="4 6"/>
<text x="128.0" y="765.0" fill="#64748b" font-size="13" font-family="Inter, Arial, sans-serif" text-anchor="end" font-weight="normal">0.081</text>
<line x1="136.0" y1="798.0" x2="876.0" y2="798.0" stroke="#e2e8f0" stroke-width="1.0" stroke-dasharray="4 6"/>
<text x="128.0" y="803.0" fill="#64748b" font-size="13" font-family="Inter, Arial, sans-serif" text-anchor="end" font-weight="normal">0.054</text>
<line x1="136.0" y1="836.0" x2="876.0" y2="836.0" stroke="#e2e8f0" stroke-width="1.0" stroke-dasharray="4 6"/>
<text x="128.0" y="841.0" fill="#64748b" font-size="13" font-family="Inter, Arial, sans-serif" text-anchor="end" font-weight="normal">0.027</text>
<line x1="136.0" y1="874.0" x2="876.0" y2="874.0" stroke="#e2e8f0" stroke-width="1.0" stroke-dasharray="4 6"/>
<text x="128.0" y="879.0" fill="#64748b" font-size="13" font-family="Inter, Arial, sans-serif" text-anchor="end" font-weight="normal">0.000</text>
<line x1="136.0" y1="646.0" x2="136.0" y2="874.0" stroke="#eef2f7" stroke-width="1.0" stroke-dasharray="4 6"/>
<text x="136.0" y="924.0" fill="#64748b" font-size="13" font-family="Inter, Arial, sans-serif" text-anchor="middle" font-weight="normal">8</text>
<line x1="228.5" y1="646.0" x2="228.5" y2="874.0" stroke="#eef2f7" stroke-width="1.0" stroke-dasharray="4 6"/>
<text x="228.5" y="924.0" fill="#64748b" font-size="13" font-family="Inter, Arial, sans-serif" text-anchor="middle" font-weight="normal">12</text>
<line x1="321.0" y1="646.0" x2="321.0" y2="874.0" stroke="#eef2f7" stroke-width="1.0" stroke-dasharray="4 6"/>
<text x="321.0" y="924.0" fill="#64748b" font-size="13" font-family="Inter, Arial, sans-serif" text-anchor="middle" font-weight="normal">16</text>
<line x1="413.5" y1="646.0" x2="413.5" y2="874.0" stroke="#eef2f7" stroke-width="1.0" stroke-dasharray="4 6"/>
<text x="413.5" y="924.0" fill="#64748b" font-size="13" font-family="Inter, Arial, sans-serif" text-anchor="middle" font-weight="normal">24</text>
<line x1="506.0" y1="646.0" x2="506.0" y2="874.0" stroke="#eef2f7" stroke-width="1.0" stroke-dasharray="4 6"/>
<text x="506.0" y="924.0" fill="#64748b" font-size="13" font-family="Inter, Arial, sans-serif" text-anchor="middle" font-weight="normal">32</text>
<line x1="598.5" y1="646.0" x2="598.5" y2="874.0" stroke="#eef2f7" stroke-width="1.0" stroke-dasharray="4 6"/>
<text x="598.5" y="924.0" fill="#64748b" font-size="13" font-family="Inter, Arial, sans-serif" text-anchor="middle" font-weight="normal">48</text>
<line x1="691.0" y1="646.0" x2="691.0" y2="874.0" stroke="#eef2f7" stroke-width="1.0" stroke-dasharray="4 6"/>
<text x="691.0" y="924.0" fill="#64748b" font-size="13" font-family="Inter, Arial, sans-serif" text-anchor="middle" font-weight="normal">64</text>
<line x1="783.5" y1="646.0" x2="783.5" y2="874.0" stroke="#eef2f7" stroke-width="1.0" stroke-dasharray="4 6"/>
<text x="783.5" y="924.0" fill="#64748b" font-size="13" font-family="Inter, Arial, sans-serif" text-anchor="middle" font-weight="normal">96</text>
<line x1="876.0" y1="646.0" x2="876.0" y2="874.0" stroke="#eef2f7" stroke-width="1.0" stroke-dasharray="4 6"/>
<text x="876.0" y="924.0" fill="#64748b" font-size="13" font-family="Inter, Arial, sans-serif" text-anchor="middle" font-weight="normal">128</text>
<line x1="136.0" y1="646.0" x2="136.0" y2="874.0" stroke="#334155" stroke-width="2.0"/>
<line x1="136.0" y1="874.0" x2="876.0" y2="874.0" stroke="#334155" stroke-width="2.0"/>
<polyline fill="none" stroke="#0f766e" stroke-width="3.0" points="136.0,833.3 228.5,833.3 321.0,833.3 413.5,833.3 506.0,833.3 598.5,833.3 691.0,833.3 783.5,833.3 876.0,833.3"/>
<circle cx="136.0" cy="833.3" r="4.1" fill="#0f766e" fill-opacity="0.820"/>
<circle cx="228.5" cy="833.3" r="4.1" fill="#0f766e" fill-opacity="0.820"/>
<circle cx="321.0" cy="833.3" r="4.1" fill="#0f766e" fill-opacity="0.820"/>
<circle cx="413.5" cy="833.3" r="4.1" fill="#0f766e" fill-opacity="0.820"/>
<circle cx="506.0" cy="833.3" r="4.1" fill="#0f766e" fill-opacity="0.820"/>
<circle cx="598.5" cy="833.3" r="4.1" fill="#0f766e" fill-opacity="0.820"/>
<circle cx="691.0" cy="833.3" r="4.1" fill="#0f766e" fill-opacity="0.820"/>
<circle cx="783.5" cy="833.3" r="4.1" fill="#0f766e" fill-opacity="0.820"/>
<circle cx="876.0" cy="833.3" r="4.1" fill="#0f766e" fill-opacity="0.820"/>
<polyline fill="none" stroke="#2563eb" stroke-width="3.0" points="136.0,792.6 228.5,792.6 321.0,792.6 413.5,792.6 506.0,792.6 598.5,792.6 691.0,792.6 783.5,792.6 876.0,792.6"/>
<circle cx="136.0" cy="792.6" r="4.1" fill="#2563eb" fill-opacity="0.820"/>
<circle cx="228.5" cy="792.6" r="4.1" fill="#2563eb" fill-opacity="0.820"/>
<circle cx="321.0" cy="792.6" r="4.1" fill="#2563eb" fill-opacity="0.820"/>
<circle cx="413.5" cy="792.6" r="4.1" fill="#2563eb" fill-opacity="0.820"/>
<circle cx="506.0" cy="792.6" r="4.1" fill="#2563eb" fill-opacity="0.820"/>
<circle cx="598.5" cy="792.6" r="4.1" fill="#2563eb" fill-opacity="0.820"/>
<circle cx="691.0" cy="792.6" r="4.1" fill="#2563eb" fill-opacity="0.820"/>
<circle cx="783.5" cy="792.6" r="4.1" fill="#2563eb" fill-opacity="0.820"/>
<circle cx="876.0" cy="792.6" r="4.1" fill="#2563eb" fill-opacity="0.820"/>
<polyline fill="none" stroke="#7c3aed" stroke-width="3.0" points="136.0,751.9 228.5,751.9 321.0,751.9 413.5,751.9 506.0,751.9 598.5,751.9 691.0,751.9 783.5,751.9 876.0,751.9"/>
<circle cx="136.0" cy="751.9" r="4.1" fill="#7c3aed" fill-opacity="0.820"/>
<circle cx="228.5" cy="751.9" r="4.1" fill="#7c3aed" fill-opacity="0.820"/>
<circle cx="321.0" cy="751.9" r="4.1" fill="#7c3aed" fill-opacity="0.820"/>
<circle cx="413.5" cy="751.9" r="4.1" fill="#7c3aed" fill-opacity="0.820"/>
<circle cx="506.0" cy="751.9" r="4.1" fill="#7c3aed" fill-opacity="0.820"/>
<circle cx="598.5" cy="751.9" r="4.1" fill="#7c3aed" fill-opacity="0.820"/>
<circle cx="691.0" cy="751.9" r="4.1" fill="#7c3aed" fill-opacity="0.820"/>
<circle cx="783.5" cy="751.9" r="4.1" fill="#7c3aed" fill-opacity="0.820"/>
<circle cx="876.0" cy="751.9" r="4.1" fill="#7c3aed" fill-opacity="0.820"/>
<polyline fill="none" stroke="#ea580c" stroke-width="3.0" points="136.0,711.1 228.5,711.1 321.0,711.1 413.5,711.1 506.0,711.1 598.5,711.1 691.0,711.1 783.5,711.1 876.0,711.1"/>
<circle cx="136.0" cy="711.1" r="4.1" fill="#ea580c" fill-opacity="0.820"/>
<circle cx="228.5" cy="711.1" r="4.1" fill="#ea580c" fill-opacity="0.820"/>
<circle cx="321.0" cy="711.1" r="4.1" fill="#ea580c" fill-opacity="0.820"/>
<circle cx="413.5" cy="711.1" r="4.1" fill="#ea580c" fill-opacity="0.820"/>
<circle cx="506.0" cy="711.1" r="4.1" fill="#ea580c" fill-opacity="0.820"/>
<circle cx="598.5" cy="711.1" r="4.1" fill="#ea580c" fill-opacity="0.820"/>
<circle cx="691.0" cy="711.1" r="4.1" fill="#ea580c" fill-opacity="0.820"/>
<circle cx="783.5" cy="711.1" r="4.1" fill="#ea580c" fill-opacity="0.820"/>
<circle cx="876.0" cy="711.1" r="4.1" fill="#ea580c" fill-opacity="0.820"/>
<polyline fill="none" stroke="#dc2626" stroke-width="3.0" points="136.0,670.4 228.5,670.4 321.0,670.4 413.5,670.4 506.0,670.4 598.5,670.4 691.0,670.4 783.5,670.4 876.0,670.4"/>
<circle cx="136.0" cy="670.4" r="4.1" fill="#dc2626" fill-opacity="0.820"/>
<circle cx="228.5" cy="670.4" r="4.1" fill="#dc2626" fill-opacity="0.820"/>
<circle cx="321.0" cy="670.4" r="4.1" fill="#dc2626" fill-opacity="0.820"/>
<circle cx="413.5" cy="670.4" r="4.1" fill="#dc2626" fill-opacity="0.820"/>
<circle cx="506.0" cy="670.4" r="4.1" fill="#dc2626" fill-opacity="0.820"/>
<circle cx="598.5" cy="670.4" r="4.1" fill="#dc2626" fill-opacity="0.820"/>
<circle cx="691.0" cy="670.4" r="4.1" fill="#dc2626" fill-opacity="0.820"/>
<circle cx="783.5" cy="670.4" r="4.1" fill="#dc2626" fill-opacity="0.820"/>
<circle cx="876.0" cy="670.4" r="4.1" fill="#dc2626" fill-opacity="0.820"/>
<text x="490.0" y="954.0" fill="#374151" font-size="16" font-family="Inter, Arial, sans-serif" text-anchor="middle" font-weight="normal">coarse-prefix length (symbols)</text>
<text x="28.0" y="730.0" fill="#374151" font-size="16" font-family="Inter, Arial, sans-serif" text-anchor="middle" font-weight="normal" transform="rotate(-90 28 730.0)">tracked RMS error</text>
<rect x="940.0" y="560.0" width="580.0" height="340.0" rx="18" fill="#ffffff" stroke="#e2e8f0"/>
<text x="958.0" y="588.0" fill="#334155" font-size="16" font-family="Inter, Arial, sans-serif" text-anchor="start" font-weight="700">Where the diminishing returns start</text>
<text x="958.0" y="612.0" fill="#526274" font-size="13" font-family="Inter, Arial, sans-serif" text-anchor="start" font-weight="normal"><tspan x="958.0" dy="0">threshold = first prefix whose mean coarse-frequency error drops below 5 mrad/sample</tspan><tspan x="958.0" dy="16">the loop panel shows why this is mostly a front-end honesty story</tspan></text>
<text x="958.0" y="686.0" fill="#0f766e" font-size="14" font-family="Inter, Arial, sans-serif" text-anchor="start" font-weight="700">noise 0.02</text>
<text x="1066.0" y="686.0" fill="#334155" font-size="13" font-family="Inter, Arial, sans-serif" text-anchor="start" font-weight="normal">8→128: mean coarse error 3.1 → 0.2 mrad</text>
<text x="1066.0" y="706.0" fill="#526274" font-size="12" font-family="Inter, Arial, sans-serif" text-anchor="start" font-weight="normal">crosses 5 mrad by prefix 8</text>
<text x="1496.0" y="686.0" fill="#526274" font-size="12" font-family="Inter, Arial, sans-serif" text-anchor="end" font-weight="normal">tracked RMS Δ +0.0000</text>
<text x="958.0" y="728.0" fill="#2563eb" font-size="14" font-family="Inter, Arial, sans-serif" text-anchor="start" font-weight="700">noise 0.04</text>
<text x="1066.0" y="728.0" fill="#334155" font-size="13" font-family="Inter, Arial, sans-serif" text-anchor="start" font-weight="normal">8→128: mean coarse error 6.7 → 0.7 mrad</text>
<text x="1066.0" y="748.0" fill="#526274" font-size="12" font-family="Inter, Arial, sans-serif" text-anchor="start" font-weight="normal">crosses 5 mrad by prefix 12</text>
<text x="1496.0" y="728.0" fill="#526274" font-size="12" font-family="Inter, Arial, sans-serif" text-anchor="end" font-weight="normal">tracked RMS Δ +0.0000</text>
<text x="958.0" y="770.0" fill="#7c3aed" font-size="14" font-family="Inter, Arial, sans-serif" text-anchor="start" font-weight="700">noise 0.06</text>
<text x="1066.0" y="770.0" fill="#334155" font-size="13" font-family="Inter, Arial, sans-serif" text-anchor="start" font-weight="normal">8→128: mean coarse error 11.2 → 1.4 mrad</text>
<text x="1066.0" y="790.0" fill="#526274" font-size="12" font-family="Inter, Arial, sans-serif" text-anchor="start" font-weight="normal">crosses 5 mrad by prefix 24</text>
<text x="1496.0" y="770.0" fill="#526274" font-size="12" font-family="Inter, Arial, sans-serif" text-anchor="end" font-weight="normal">tracked RMS Δ +0.0000</text>
<text x="958.0" y="812.0" fill="#ea580c" font-size="14" font-family="Inter, Arial, sans-serif" text-anchor="start" font-weight="700">noise 0.08</text>
<text x="1066.0" y="812.0" fill="#334155" font-size="13" font-family="Inter, Arial, sans-serif" text-anchor="start" font-weight="normal">8→128: mean coarse error 16.8 → 2.6 mrad</text>
<text x="1066.0" y="832.0" fill="#526274" font-size="12" font-family="Inter, Arial, sans-serif" text-anchor="start" font-weight="normal">crosses 5 mrad by prefix 32</text>
<text x="1496.0" y="812.0" fill="#526274" font-size="12" font-family="Inter, Arial, sans-serif" text-anchor="end" font-weight="normal">tracked RMS Δ +0.0000</text>
<text x="958.0" y="854.0" fill="#dc2626" font-size="14" font-family="Inter, Arial, sans-serif" text-anchor="start" font-weight="700">noise 0.10</text>
<text x="1066.0" y="854.0" fill="#334155" font-size="13" font-family="Inter, Arial, sans-serif" text-anchor="start" font-weight="normal">8→128: mean coarse error 24.0 → 4.1 mrad</text>
<text x="1066.0" y="874.0" fill="#526274" font-size="12" font-family="Inter, Arial, sans-serif" text-anchor="start" font-weight="normal">crosses 5 mrad by prefix 96</text>
<text x="1496.0" y="854.0" fill="#526274" font-size="12" font-family="Inter, Arial, sans-serif" text-anchor="end" font-weight="normal">tracked RMS Δ +0.0000</text>
</svg>
